<svg xmlns="http://www.w3.org/2000/svg" xmlns:xlink="http://www.w3.org/1999/xlink" id="Layer_1" x="0px" y="0px" viewBox="0 0 384 384" style="enable-background:new 0 0 384 384;" xml:space="preserve">
<g>
	<g>
		<defs>
			<rect id="SVGID_1_" width="384" height="384"></rect>
		</defs>
		<clipPath id="SVGID_2_">
			<use xlink:href="#SVGID_1_" style="overflow:visible;"></use>
		</clipPath>
		<path style="clip-path:url(#SVGID_2_);" d="M381.055,120.699c-7.477-22.949-30.739-37.605-54.668-36.383    c5.886-8.886,8.992-19.171,8.992-29.945C335.379,24.391,310.988,0,281.008,0c-13.75,0-26.863,5.141-36.942,14.477L93.34,138.203    c-0.188,0.152-0.356,0.32-0.52,0.492c-15.425,13.414-25.195,33.176-25.195,55.18c0,6.676,0.906,13.145,2.59,19.293    c0,0-42.61,40.059-52.008,49.629C8.004,273.188,0.129,292.488,0.129,310.879C0.129,351.199,32.93,384,73.25,384    c30.363,0,56.457-18.602,67.496-45.004C151.789,365.398,177.883,384,208.242,384c29.031,0,54.16-17.004,65.961-41.574    l86.231-148.153c3.66-6.285-6.067-11.945-9.723-5.66l-69.414,119.258c-1.582-38.93-33.742-70.113-73.055-70.113    c-3.203,0-6.359,0.207-9.453,0.609c0,0,99.141-118.273,116.938-140.125c20.816-9.726,47.89,5.258,54.628,25.946    c3.817,11.714,2.786,24.664-2.835,35.527c-3.34,6.461,6.652,11.629,9.996,5.168C384.508,151.363,385.797,135.258,381.055,120.699    L381.055,120.699z M251.379,23.027c8.68-7.129,18.113-11.777,29.629-11.777c23.777,0,43.125,19.344,43.125,43.125    c0,9.355-2.942,18.246-8.508,25.719c0,0-95.508,114.828-102.344,123.078c0.387-3.043,0.59-6.149,0.59-9.297    c0-40.32-32.805-73.121-73.125-73.121c-3.082,0-6.121,0.195-9.105,0.566L251.379,23.027z M140.746,132.004    c34.117,0,61.871,27.754,61.871,61.871c0,33.512-28.336,61.871-61.871,61.871c-34.113,0-61.871-27.754-61.871-61.871    S106.633,132.004,140.746,132.004L140.746,132.004z M150.266,266.379c-3.844,4.992-7.055,10.492-9.52,16.383    c-2.461-5.891-5.676-11.391-9.516-16.383c3.118,0.406,6.293,0.617,9.516,0.617C143.973,266.996,147.148,266.785,150.266,266.379    L150.266,266.379z M74.441,224.676c2.274,4.883,5.075,9.472,8.329,13.699c-3.118-0.406-6.293-0.617-9.52-0.617    c-4.777,0-9.445,0.465-13.969,1.344L74.441,224.676z M73.25,372.75c-34.113,0-61.871-27.754-61.871-61.871    c0-15.809,5.965-30.242,15.754-41.188c12.082-12.765,28.308-20.683,46.117-20.683c34.117,0,61.871,27.754,61.871,61.871    S107.367,372.75,73.25,372.75L73.25,372.75z M270.117,310.879c0,34.113-27.758,61.871-61.875,61.871    c-34.113,0-61.871-27.754-61.871-61.871s27.758-61.871,61.871-61.871C242.359,249.008,270.117,276.762,270.117,310.879    L270.117,310.879z M270.117,310.879"></path>
	</g>
	<path d="M140.746,248.246c29.981,0,54.375-24.391,54.375-54.371s-24.394-54.371-54.375-54.371c-10.406,0-20.539,2.976-29.305,8.605   c-6.121,3.934-0.039,13.399,6.079,9.465c6.949-4.461,14.98-6.82,23.226-6.82c23.777,0,43.125,19.344,43.125,43.121   s-19.348,43.121-43.125,43.121s-43.121-19.344-43.121-43.121c0-5.488,1.035-10.855,3.074-15.953   c2.703-6.754-7.742-10.934-10.445-4.18c-2.574,6.434-3.879,13.207-3.879,20.133C86.375,223.855,110.766,248.246,140.746,248.246   L140.746,248.246z M140.746,248.246"></path>
	<path d="M73.25,256.508c-29.98,0-54.371,24.39-54.371,54.371c0,29.98,24.391,54.371,54.371,54.371s54.371-24.391,54.371-54.371   C127.621,280.898,103.23,256.508,73.25,256.508L73.25,256.508z M73.25,354c-23.777,0-43.121-19.344-43.121-43.121   s19.344-43.121,43.121-43.121s43.121,19.344,43.121,43.121S97.027,354,73.25,354L73.25,354z M73.25,354"></path>
	<path d="M208.246,365.25c29.981,0,54.371-24.391,54.371-54.371c0-29.981-24.39-54.371-54.371-54.371   c-29.98,0-54.375,24.39-54.375,54.371C153.871,340.859,178.266,365.25,208.246,365.25L208.246,365.25z M208.246,267.758   c23.777,0,43.121,19.344,43.121,43.121S232.023,354,208.246,354c-23.777,0-43.125-19.344-43.125-43.121   S184.469,267.758,208.246,267.758L208.246,267.758z M208.246,267.758"></path>
</g>
</svg>