<svg xmlns="http://www.w3.org/2000/svg" xmlns:xlink="http://www.w3.org/1999/xlink" id="Layer_1" x="0px" y="0px" viewBox="0 0 437 511" style="enable-background:new 0 0 437 511;" xml:space="preserve">
<style type="text/css">
	.st0{clip-path:url(#SVGID_2_);fill:#1A6BE2;}
	.st1{clip-path:url(#SVGID_2_);fill:#0047BB;}
	.st2{fill:#FFFFFF;}
	.st3{fill:#E1EBF0;}
	.st4{fill:#B3D1D7;}
	.st5{fill:#6EA3A8;}
</style>
<g>
	<g>
		<defs>
			<rect id="SVGID_1_" width="437" height="511"></rect>
		</defs>
		<clipPath id="SVGID_2_">
			<use xlink:href="#SVGID_1_" style="overflow:visible;"></use>
		</clipPath>
		<path class="st0" d="M413.09,341.24c-13.73,37.22-34.51,69.59-61.75,96.19c-31,30.28-71.61,54.34-120.68,71.5    c-1.61,0.56-3.29,1.02-4.98,1.36c-2.23,0.44-4.5,0.68-6.75,0.71h-0.44c-2.39,0-4.8-0.24-7.19-0.71c-1.69-0.34-3.34-0.8-4.95-1.35    c-49.13-17.13-89.78-41.18-120.82-71.46c-27.25-26.6-48.02-58.95-61.74-96.17C-1.13,273.63,0.29,199.07,1.43,139.16l0.02-0.92    c0.23-4.95,0.38-10.14,0.46-15.88c0.42-28.17,22.82-51.48,51-53.06c58.75-3.28,104.2-22.44,143.04-60.29l0.34-0.31    c6.44-5.91,14.57-8.82,22.66-8.7c7.8,0.1,15.56,3,21.78,8.7l0.33,0.31C279.9,46.86,325.35,66.02,384.1,69.3    c28.18,1.57,50.58,24.88,51,53.06c0.08,5.78,0.23,10.97,0.46,15.88l0.01,0.39C436.71,198.66,438.13,273.36,413.09,341.24    L413.09,341.24z M413.09,341.24"></path>
		<path class="st1" d="M413.09,341.24c-13.73,37.22-34.51,69.59-61.75,96.19c-31,30.28-71.61,54.34-120.68,71.5    c-1.61,0.56-3.29,1.02-4.98,1.36c-2.23,0.44-4.5,0.68-6.75,0.71V0c7.8,0.1,15.56,3,21.78,8.7l0.33,0.31    C279.9,46.86,325.35,66.02,384.1,69.3c28.18,1.57,50.58,24.88,51,53.06c0.08,5.78,0.23,10.97,0.46,15.88l0.01,0.39    C436.71,198.66,438.13,273.36,413.09,341.24L413.09,341.24z M413.09,341.24"></path>
	</g>
	<path class="st2" d="M345.85,255.5c0,70.07-56.89,127.1-126.91,127.35h-0.44c-70.22,0-127.36-57.13-127.36-127.35   c0-70.22,57.14-127.35,127.36-127.35h0.44C288.96,128.4,345.85,185.43,345.85,255.5L345.85,255.5z M345.85,255.5"></path>
	<path class="st3" d="M345.85,255.5c0,70.07-56.89,127.1-126.91,127.35V128.15C288.96,128.4,345.85,185.43,345.85,255.5   L345.85,255.5z M345.85,255.5"></path>
	<path class="st4" d="M276.3,237.16l-57.36,57.37l-12.39,12.39c-2.93,2.93-6.77,4.39-10.6,4.39c-3.84,0-7.68-1.46-10.61-4.39   l-26.65-26.66c-5.85-5.86-5.85-15.34,0-21.2c5.85-5.86,15.35-5.86,21.2,0l16.05,16.05l59.15-59.15c5.86-5.86,15.35-5.86,21.2,0   C282.16,221.82,282.16,231.31,276.3,237.16L276.3,237.16z M276.3,237.16"></path>
	<path class="st5" d="M276.3,237.16l-57.36,57.37v-42.41l36.16-36.15c5.86-5.86,15.35-5.86,21.2,0   C282.16,221.82,282.16,231.31,276.3,237.16L276.3,237.16z M276.3,237.16"></path>
</g>
</svg>