<svg xmlns="http://www.w3.org/2000/svg" xmlns:xlink="http://www.w3.org/1999/xlink" id="Layer_1" x="0px" y="0px" viewBox="0 0 537.7 256.9" style="enable-background:new 0 0 537.7 256.9;" xml:space="preserve">
<style type="text/css">
	.st0{fill:#002F65;}
	.st1{fill:#004389;}
	.st2{fill:#0057A3;}
	.st3{fill:#2876BC;}
	.st4{fill:#6291C8;}
	.st5{fill:#FFFFFF;}
</style>
<path class="st0" d="M283.7,126.7c18.4-54.5,81.2-82.7,140.3-63c11.3,3.8,21.7,9,30.9,15.4C448.5,49.4,431,26,405.5,17.5  c-44.7-14.9-97.4,21.7-117.6,81.8c-4.7,14.1-7.3,28.2-7.8,41.8C280.9,136.3,282.1,131.5,283.7,126.7z"></path>
<path class="st1" d="M373.2,4.5C431,5.1,477.4,55.7,476.9,117.7c-0.1,11.9-1.9,23.3-5.2,34c26.4-15.3,43.5-39,43.7-65.8  C515.8,39,464.5,0.6,400.8,0c-14.9-0.1-29.2,1.9-42.4,5.5C363.2,4.9,368.2,4.5,373.2,4.5z"></path>
<path class="st2" d="M517.8,51.4c17.4,54.8-16.8,114.3-76.3,133c-11.4,3.6-22.8,5.4-34.1,5.6c22.8,20.2,50.8,29,76.5,21  c45-14.1,65.9-74.5,46.8-134.9c-4.5-14.2-10.8-27.1-18.4-38.3C514.4,42,516.3,46.6,517.8,51.4z"></path>
<path class="st3" d="M517.7,202.5c-47.1,33.4-114.6,19.5-150.8-31c-6.9-9.7-12.2-19.9-15.9-30.5c-12.3,27.8-12.1,57,3.5,78.8  c27.4,38.2,91.6,39.3,143.5,2.5c12.2-8.6,22.6-18.6,31-29.2C525.5,196.4,521.8,199.6,517.7,202.5z"></path>
<g>
	<path class="st4" d="M373,249.1c-46.5-34.2-54-102.3-16.9-152.1c7.1-9.5,15.3-17.7,24.3-24.4c-30.4-3-58.3,6.2-74.3,27.7   C278,137.9,296.8,199,348,236.7c12,8.8,24.7,15.6,37.6,20.3C381.3,254.7,377,252.1,373,249.1z"></path>
</g>
<path class="st0" d="M334,0c-15.2,10.1-28.4,22.9-39,37.7H18.8c-5.2,0-9.9-2.1-13.3-5.5C2.1,28.7,0,24,0,18.8C0,8.5,8.5,0,18.8,0  H334z"></path>
<path class="st1" d="M284.3,54.8c-6.3,11.7-11,24.4-14,37.7H18.8c-5.2,0-9.9-2.1-13.3-5.5C2.1,83.5,0,78.8,0,73.6  c0-10.4,8.5-18.8,18.8-18.8H284.3z"></path>
<path class="st2" d="M268.2,147.3H18.8c-5.2,0-9.9-2.1-13.3-5.5c-3.4-3.4-5.5-8.1-5.5-13.3c0-10.4,8.5-18.8,18.8-18.8h248.7  c-0.6,5.3-0.9,10.7-0.9,16.1C266.6,133.1,267.2,140.3,268.2,147.3z"></path>
<path class="st3" d="M287.3,202.1H18.8c-5.2,0-9.9-2.1-13.3-5.5c-3.4-3.4-5.5-8.1-5.5-13.3c0-10.3,8.5-18.8,18.8-18.8h252.8  C275.2,177.8,280.5,190.5,287.3,202.1z"></path>
<path class="st4" d="M342.8,256.9h-324c-5.2,0-9.9-2.1-13.3-5.5C2.1,248,0,243.3,0,238.1c0-10.4,8.5-18.8,18.8-18.8h280.2  C311,234.4,325.9,247.3,342.8,256.9z"></path>
<g>
	<g>
		<path class="st5" d="M34,25.5l4.7-14h3.8l4.7,14h-3.6l-0.9-2.9h-4.4l-0.9,2.9H34z M42,20.1l-1.4-4.6l-1.4,4.6H42z"></path>
		<path class="st5" d="M58.6,25.5h-3.3v-5.2c0-0.4,0-0.9-0.1-1.3c0-0.4-0.1-0.7-0.2-0.9c-0.1-0.2-0.3-0.4-0.5-0.5    c-0.2-0.1-0.5-0.2-0.9-0.2c-0.3,0-0.5,0.1-0.8,0.2S52.3,17.8,52,18v7.5h-3.3V14.9H52v1.2c0.5-0.5,1.1-0.8,1.6-1.1    c0.5-0.3,1.1-0.4,1.7-0.4c1.1,0,1.9,0.3,2.5,1c0.6,0.7,0.9,1.7,0.9,3V25.5z"></path>
		<path class="st5" d="M65.3,25.7c-1.3,0-2.3-0.3-2.9-0.8c-0.6-0.6-0.9-1.5-0.9-2.7v-4.9h-1.3v-2.3h1.3v-3h3.3v3h3.2v2.3h-3.2v3.7    c0,0.4,0,0.7,0,1s0.1,0.5,0.2,0.7c0.1,0.2,0.2,0.4,0.5,0.5c0.2,0.1,0.5,0.2,1,0.2c0.2,0,0.4,0,0.7-0.1c0.3-0.1,0.5-0.1,0.6-0.2    h0.3v2.3c-0.4,0.1-0.7,0.2-1.1,0.2C66.3,25.6,65.8,25.7,65.3,25.7z"></path>
		<path class="st5" d="M72.8,13.4h-3.5v-2.6h3.5V13.4z M72.7,25.5h-3.3V14.9h3.3V25.5z"></path>
		<path class="st5" d="M81.4,20.6h-6.2V18h6.2V20.6z"></path>
		<path class="st5" d="M90.1,25.7c-2.1,0-3.8-0.6-5-1.9s-1.9-3.1-1.9-5.4c0-2.2,0.6-4,1.9-5.3c1.2-1.3,2.9-2,5-2    c0.6,0,1.1,0,1.5,0.1c0.4,0.1,0.9,0.2,1.3,0.3c0.3,0.1,0.7,0.2,1,0.4c0.4,0.2,0.7,0.3,0.9,0.4v3.3h-0.4c-0.2-0.2-0.4-0.3-0.6-0.5    c-0.3-0.2-0.5-0.4-0.9-0.6c-0.3-0.2-0.7-0.4-1.1-0.5c-0.4-0.1-0.8-0.2-1.2-0.2c-0.5,0-1,0.1-1.4,0.2s-0.8,0.4-1.2,0.8    c-0.4,0.4-0.6,0.8-0.9,1.4c-0.2,0.6-0.3,1.3-0.3,2.2c0,0.9,0.1,1.6,0.3,2.2c0.2,0.6,0.5,1.1,0.9,1.4c0.4,0.4,0.8,0.6,1.2,0.8    s0.9,0.2,1.3,0.2c0.5,0,0.9-0.1,1.3-0.2c0.4-0.2,0.8-0.3,1.1-0.5c0.3-0.2,0.6-0.4,0.8-0.6s0.4-0.4,0.6-0.5h0.3v3.3    c-0.3,0.1-0.6,0.3-0.9,0.4c-0.3,0.2-0.7,0.3-1,0.4c-0.4,0.1-0.8,0.2-1.2,0.3C91.3,25.7,90.8,25.7,90.1,25.7z"></path>
		<path class="st5" d="M107.1,20.2c0,1.7-0.5,3.1-1.4,4.1c-0.9,1-2.3,1.5-4,1.5c-1.7,0-3.1-0.5-4-1.5c-1-1-1.4-2.4-1.4-4.1    c0-1.8,0.5-3.1,1.4-4.1s2.3-1.5,4-1.5c1.7,0,3.1,0.5,4,1.5C106.6,17.1,107.1,18.4,107.1,20.2z M103.7,20.2c0-0.6-0.1-1.1-0.2-1.6    s-0.2-0.8-0.4-1c-0.2-0.3-0.4-0.4-0.7-0.6c-0.2-0.1-0.5-0.2-0.8-0.2c-0.3,0-0.6,0-0.8,0.1s-0.5,0.3-0.7,0.5    c-0.2,0.2-0.3,0.6-0.5,1c-0.1,0.4-0.2,1-0.2,1.6s0.1,1.2,0.2,1.6c0.1,0.4,0.2,0.7,0.4,1c0.2,0.2,0.4,0.4,0.7,0.5    c0.3,0.1,0.6,0.2,0.9,0.2c0.3,0,0.5-0.1,0.8-0.2c0.3-0.1,0.5-0.3,0.7-0.5c0.2-0.3,0.3-0.6,0.4-1C103.7,21.4,103.7,20.9,103.7,20.2    z"></path>
		<path class="st5" d="M116.1,18h-0.3c-0.1,0-0.3-0.1-0.5-0.1s-0.5,0-0.8,0c-0.3,0-0.7,0.1-1.1,0.2c-0.4,0.1-0.7,0.2-1.1,0.4v7.1    H109V14.9h3.3v1.5c0.2-0.1,0.4-0.3,0.6-0.5c0.3-0.2,0.5-0.4,0.7-0.5c0.2-0.1,0.5-0.3,0.8-0.4c0.3-0.1,0.6-0.2,0.9-0.2    c0.1,0,0.2,0,0.4,0s0.3,0,0.4,0V18z"></path>
		<path class="st5" d="M124.7,18h-0.3c-0.1,0-0.3-0.1-0.5-0.1s-0.5,0-0.8,0c-0.3,0-0.7,0.1-1.1,0.2c-0.4,0.1-0.7,0.2-1.1,0.4v7.1    h-3.3V14.9h3.3v1.5c0.2-0.1,0.4-0.3,0.6-0.5c0.3-0.2,0.5-0.4,0.7-0.5c0.2-0.1,0.5-0.3,0.8-0.4c0.3-0.1,0.6-0.2,0.9-0.2    c0.1,0,0.2,0,0.4,0s0.3,0,0.4,0V18z"></path>
		<path class="st5" d="M136.3,20.2c0,1.7-0.5,3.1-1.4,4.1c-0.9,1-2.3,1.5-4,1.5c-1.7,0-3.1-0.5-4-1.5c-1-1-1.4-2.4-1.4-4.1    c0-1.8,0.5-3.1,1.4-4.1s2.3-1.5,4-1.5c1.7,0,3.1,0.5,4,1.5C135.8,17.1,136.3,18.4,136.3,20.2z M132.9,20.2c0-0.6-0.1-1.1-0.2-1.6    s-0.2-0.8-0.4-1c-0.2-0.3-0.4-0.4-0.7-0.6c-0.2-0.1-0.5-0.2-0.8-0.2c-0.3,0-0.6,0-0.8,0.1s-0.5,0.3-0.7,0.5    c-0.2,0.2-0.3,0.6-0.5,1c-0.1,0.4-0.2,1-0.2,1.6s0.1,1.2,0.2,1.6c0.1,0.4,0.2,0.7,0.4,1c0.2,0.2,0.4,0.4,0.7,0.5    c0.3,0.1,0.6,0.2,0.9,0.2c0.3,0,0.5-0.1,0.8-0.2c0.3-0.1,0.5-0.3,0.7-0.5c0.2-0.3,0.3-0.6,0.4-1C132.8,21.4,132.9,20.9,132.9,20.2    z"></path>
		<path class="st5" d="M141.4,25.7c-0.8,0-1.5-0.1-2.2-0.3c-0.7-0.2-1.3-0.4-1.7-0.6v-2.8h0.3c0.2,0.1,0.3,0.3,0.5,0.4    c0.2,0.1,0.5,0.3,0.8,0.5c0.3,0.1,0.7,0.3,1,0.4c0.4,0.1,0.8,0.2,1.3,0.2c0.5,0,0.9-0.1,1.2-0.2c0.4-0.1,0.5-0.4,0.5-0.7    c0-0.2-0.1-0.4-0.2-0.6c-0.2-0.1-0.5-0.2-0.9-0.4c-0.3-0.1-0.6-0.1-0.9-0.2c-0.4-0.1-0.7-0.2-1-0.2c-0.8-0.3-1.4-0.6-1.9-1.1    c-0.4-0.5-0.6-1.2-0.6-2c0-0.5,0.1-0.9,0.3-1.3c0.2-0.4,0.5-0.8,1-1.1c0.4-0.3,0.9-0.6,1.6-0.8c0.6-0.2,1.3-0.3,2.1-0.3    c0.7,0,1.4,0.1,2,0.2c0.6,0.1,1.1,0.3,1.6,0.5V18h-0.3c-0.1-0.1-0.3-0.2-0.5-0.4c-0.2-0.1-0.5-0.3-0.7-0.4    c-0.3-0.1-0.6-0.2-0.9-0.3s-0.7-0.1-1-0.1c-0.5,0-0.9,0.1-1.2,0.2c-0.3,0.2-0.5,0.4-0.5,0.6c0,0.2,0.1,0.4,0.2,0.6    c0.2,0.1,0.5,0.3,1.1,0.4c0.3,0.1,0.6,0.1,1,0.2c0.4,0.1,0.7,0.2,1.1,0.3c0.8,0.2,1.3,0.6,1.7,1.1c0.4,0.5,0.6,1.1,0.6,1.9    c0,0.5-0.1,1-0.3,1.4s-0.6,0.8-1,1.1c-0.5,0.3-1,0.6-1.6,0.8C143,25.7,142.3,25.7,141.4,25.7z"></path>
		<path class="st5" d="M151.7,13.4h-3.5v-2.6h3.5V13.4z M151.6,25.5h-3.3V14.9h3.3V25.5z"></path>
		<path class="st5" d="M164.4,20.2c0,1.7-0.5,3.1-1.4,4.1c-0.9,1-2.3,1.5-4,1.5c-1.7,0-3.1-0.5-4-1.5c-1-1-1.4-2.4-1.4-4.1    c0-1.8,0.5-3.1,1.4-4.1s2.3-1.5,4-1.5c1.7,0,3.1,0.5,4,1.5C164,17.1,164.4,18.4,164.4,20.2z M161.1,20.2c0-0.6-0.1-1.1-0.2-1.6    s-0.2-0.8-0.4-1c-0.2-0.3-0.4-0.4-0.7-0.6c-0.2-0.1-0.5-0.2-0.8-0.2c-0.3,0-0.6,0-0.8,0.1s-0.5,0.3-0.7,0.5    c-0.2,0.2-0.3,0.6-0.5,1c-0.1,0.4-0.2,1-0.2,1.6s0.1,1.2,0.2,1.6c0.1,0.4,0.2,0.7,0.4,1c0.2,0.2,0.4,0.4,0.7,0.5    c0.3,0.1,0.6,0.2,0.9,0.2c0.3,0,0.5-0.1,0.8-0.2c0.3-0.1,0.5-0.3,0.7-0.5c0.2-0.3,0.3-0.6,0.4-1C161,21.4,161.1,20.9,161.1,20.2z"></path>
		<path class="st5" d="M176.3,25.5H173v-5.2c0-0.4,0-0.9-0.1-1.3c0-0.4-0.1-0.7-0.2-0.9c-0.1-0.2-0.3-0.4-0.5-0.5    c-0.2-0.1-0.5-0.2-0.9-0.2c-0.3,0-0.5,0.1-0.8,0.2s-0.6,0.3-0.9,0.5v7.5h-3.3V14.9h3.3v1.2c0.5-0.5,1.1-0.8,1.6-1.1    c0.5-0.3,1.1-0.4,1.7-0.4c1.1,0,1.9,0.3,2.5,1c0.6,0.7,0.9,1.7,0.9,3V25.5z"></path>
		<path class="st5" d="M191,25.7c-2.1,0-3.8-0.6-5-1.9s-1.9-3.1-1.9-5.4c0-2.2,0.6-4,1.9-5.3c1.2-1.3,2.9-2,5-2c0.6,0,1.1,0,1.5,0.1    c0.4,0.1,0.9,0.2,1.3,0.3c0.3,0.1,0.7,0.2,1,0.4c0.4,0.2,0.7,0.3,0.9,0.4v3.3h-0.4c-0.2-0.2-0.4-0.3-0.6-0.5    c-0.3-0.2-0.5-0.4-0.9-0.6c-0.3-0.2-0.7-0.4-1.1-0.5c-0.4-0.1-0.8-0.2-1.2-0.2c-0.5,0-1,0.1-1.4,0.2s-0.8,0.4-1.2,0.8    c-0.4,0.4-0.6,0.8-0.9,1.4c-0.2,0.6-0.3,1.3-0.3,2.2c0,0.9,0.1,1.6,0.3,2.2c0.2,0.6,0.5,1.1,0.9,1.4c0.4,0.4,0.8,0.6,1.2,0.8    s0.9,0.2,1.3,0.2c0.5,0,0.9-0.1,1.3-0.2c0.4-0.2,0.8-0.3,1.1-0.5c0.3-0.2,0.6-0.4,0.8-0.6s0.4-0.4,0.6-0.5h0.3v3.3    c-0.3,0.1-0.6,0.3-0.9,0.4c-0.3,0.2-0.7,0.3-1,0.4c-0.4,0.1-0.8,0.2-1.2,0.3C192.2,25.7,191.6,25.7,191,25.7z"></path>
		<path class="st5" d="M207.9,20.2c0,1.7-0.5,3.1-1.4,4.1c-0.9,1-2.3,1.5-4,1.5c-1.7,0-3.1-0.5-4-1.5c-1-1-1.4-2.4-1.4-4.1    c0-1.8,0.5-3.1,1.4-4.1s2.3-1.5,4-1.5c1.7,0,3.1,0.5,4,1.5C207.4,17.1,207.9,18.4,207.9,20.2z M204.5,20.2c0-0.6-0.1-1.1-0.2-1.6    s-0.2-0.8-0.4-1c-0.2-0.3-0.4-0.4-0.7-0.6c-0.2-0.1-0.5-0.2-0.8-0.2c-0.3,0-0.6,0-0.8,0.1s-0.5,0.3-0.7,0.5    c-0.2,0.2-0.3,0.6-0.5,1c-0.1,0.4-0.2,1-0.2,1.6s0.1,1.2,0.2,1.6c0.1,0.4,0.2,0.7,0.4,1c0.2,0.2,0.4,0.4,0.7,0.5    c0.3,0.1,0.6,0.2,0.9,0.2c0.3,0,0.5-0.1,0.8-0.2c0.3-0.1,0.5-0.3,0.7-0.5c0.2-0.3,0.3-0.6,0.4-1C204.5,21.4,204.5,20.9,204.5,20.2    z"></path>
		<path class="st5" d="M215.7,24.3c-0.2,0.2-0.4,0.4-0.6,0.5s-0.4,0.3-0.7,0.5c-0.3,0.1-0.6,0.3-0.9,0.3c-0.3,0.1-0.7,0.1-1.2,0.1    c-0.9,0-1.7-0.3-2.3-0.9c-0.6-0.6-0.9-1.4-0.9-2.4c0-0.8,0.2-1.4,0.5-1.9c0.3-0.5,0.8-0.9,1.4-1.1c0.6-0.3,1.3-0.5,2.1-0.6    c0.8-0.1,1.7-0.2,2.7-0.3v-0.1c0-0.6-0.2-1-0.6-1.2c-0.4-0.2-1.1-0.3-1.9-0.3c-0.4,0-0.8,0.1-1.4,0.2c-0.5,0.1-1,0.3-1.5,0.5H210    v-2.5c0.3-0.1,0.9-0.2,1.6-0.3c0.7-0.1,1.5-0.2,2.2-0.2c1.8,0,3.1,0.3,4,0.9c0.8,0.6,1.2,1.5,1.2,2.8v7.2h-3.3V24.3z M215.7,22.7    v-2.2c-0.6,0.1-1,0.1-1.4,0.1c-0.3,0-0.7,0.1-1,0.2c-0.3,0.1-0.5,0.3-0.7,0.5c-0.2,0.2-0.2,0.5-0.2,0.8c0,0.5,0.1,0.8,0.4,1    c0.3,0.2,0.7,0.3,1.2,0.3c0.3,0,0.6-0.1,0.9-0.2C215.2,23.1,215.4,22.9,215.7,22.7z"></path>
		<path class="st5" d="M225.6,25.7c-1.3,0-2.3-0.3-2.9-0.8c-0.6-0.6-0.9-1.5-0.9-2.7v-4.9h-1.3v-2.3h1.3v-3h3.3v3h3.2v2.3h-3.2v3.7    c0,0.4,0,0.7,0,1s0.1,0.5,0.2,0.7c0.1,0.2,0.2,0.4,0.5,0.5c0.2,0.1,0.5,0.2,1,0.2c0.2,0,0.4,0,0.7-0.1c0.3-0.1,0.5-0.1,0.6-0.2    h0.3v2.3c-0.4,0.1-0.7,0.2-1.1,0.2C226.7,25.6,226.2,25.7,225.6,25.7z"></path>
		<path class="st5" d="M233.2,13.4h-3.5v-2.6h3.5V13.4z M233.1,25.5h-3.3V14.9h3.3V25.5z"></path>
		<path class="st5" d="M245.7,25.5h-3.3v-5.2c0-0.4,0-0.9-0.1-1.3c0-0.4-0.1-0.7-0.2-0.9c-0.1-0.2-0.3-0.4-0.5-0.5    c-0.2-0.1-0.5-0.2-0.9-0.2c-0.3,0-0.5,0.1-0.8,0.2s-0.6,0.3-0.9,0.5v7.5h-3.3V14.9h3.3v1.2c0.5-0.5,1.1-0.8,1.6-1.1    c0.5-0.3,1.1-0.4,1.7-0.4c1.1,0,1.9,0.3,2.5,1c0.6,0.7,0.9,1.7,0.9,3V25.5z"></path>
		<path class="st5" d="M257.9,24.2c0,1-0.1,1.8-0.4,2.5s-0.7,1.2-1.2,1.6c-0.5,0.4-1.1,0.7-1.8,0.8s-1.4,0.3-2.3,0.3    c-0.7,0-1.4,0-2-0.1c-0.6-0.1-1.2-0.2-1.6-0.3v-2.6h0.4c0.2,0.1,0.4,0.1,0.6,0.2c0.2,0.1,0.4,0.1,0.7,0.2c0.3,0.1,0.5,0.1,0.8,0.2    c0.3,0,0.5,0.1,0.8,0.1c0.6,0,1-0.1,1.4-0.2c0.4-0.1,0.7-0.3,0.8-0.5c0.2-0.2,0.3-0.5,0.4-0.8s0.1-0.7,0.1-1.1v-0.2    c-0.4,0.3-0.8,0.6-1.3,0.8c-0.5,0.2-1,0.3-1.5,0.3c-1.4,0-2.4-0.4-3.2-1.3s-1.1-2.2-1.1-4.1c0-0.8,0.1-1.6,0.3-2.2    c0.2-0.7,0.5-1.2,1-1.7c0.4-0.4,0.9-0.8,1.4-1c0.6-0.2,1.1-0.4,1.7-0.4c0.5,0,1,0.1,1.4,0.2c0.4,0.1,0.8,0.3,1.2,0.6l0.1-0.5h3.2    V24.2z M254.6,22.1v-4.8c-0.2-0.1-0.4-0.1-0.6-0.2c-0.2-0.1-0.5-0.1-0.7-0.1c-0.8,0-1.4,0.3-1.8,0.8c-0.4,0.5-0.6,1.2-0.6,2.1    c0,0.5,0,0.8,0.1,1.2c0.1,0.3,0.2,0.6,0.3,0.8c0.2,0.2,0.4,0.4,0.6,0.5c0.3,0.1,0.6,0.2,1,0.2c0.3,0,0.6-0.1,0.9-0.2    C254.1,22.5,254.3,22.3,254.6,22.1z"></path>
	</g>
</g>
<g>
	<g>
		<path class="st5" d="M39.9,243.5h-9.3v-14h3.5v11.3h5.8V243.5z"></path>
		<path class="st5" d="M47,243.8c-2,0-3.5-0.5-4.6-1.4c-1.1-1-1.6-2.3-1.6-4.1c0-1.7,0.5-3.1,1.5-4.1c1-1,2.4-1.5,4.2-1.5    c1.6,0,2.8,0.4,3.6,1.3c0.8,0.9,1.2,2.1,1.2,3.7v1.2h-7.2c0,0.5,0.1,0.9,0.3,1.2c0.2,0.3,0.4,0.6,0.7,0.8c0.3,0.2,0.6,0.3,1,0.4    c0.4,0.1,0.8,0.1,1.2,0.1c0.4,0,0.8,0,1.1-0.1c0.4-0.1,0.7-0.2,1-0.3c0.3-0.1,0.5-0.2,0.7-0.4c0.2-0.1,0.4-0.3,0.6-0.4h0.3v2.7    c-0.3,0.1-0.5,0.2-0.7,0.3c-0.2,0.1-0.5,0.2-0.9,0.3c-0.4,0.1-0.7,0.2-1.1,0.2C48,243.8,47.5,243.8,47,243.8z M48.1,236.9    c0-0.7-0.2-1.2-0.5-1.6c-0.3-0.4-0.8-0.5-1.4-0.5c-0.6,0-1.1,0.2-1.5,0.6c-0.4,0.4-0.6,0.9-0.6,1.6H48.1z"></path>
		<path class="st5" d="M59,242.4c-0.2,0.2-0.4,0.4-0.6,0.5s-0.4,0.3-0.7,0.5c-0.3,0.1-0.6,0.3-0.9,0.3c-0.3,0.1-0.7,0.1-1.2,0.1    c-0.9,0-1.7-0.3-2.3-0.9c-0.6-0.6-0.9-1.4-0.9-2.4c0-0.8,0.2-1.4,0.5-1.9c0.3-0.5,0.8-0.9,1.4-1.1c0.6-0.3,1.3-0.5,2.1-0.6    c0.8-0.1,1.7-0.2,2.7-0.3v-0.1c0-0.6-0.2-1-0.6-1.2c-0.4-0.2-1.1-0.3-1.9-0.3c-0.4,0-0.8,0.1-1.4,0.2c-0.5,0.1-1,0.3-1.5,0.5h-0.3    v-2.5c0.3-0.1,0.9-0.2,1.6-0.3c0.7-0.1,1.5-0.2,2.2-0.2c1.8,0,3.1,0.3,4,0.9s1.2,1.5,1.2,2.8v7.2H59V242.4z M59,240.8v-2.2    c-0.6,0.1-1,0.1-1.4,0.1s-0.7,0.1-1,0.2c-0.3,0.1-0.5,0.3-0.7,0.5c-0.2,0.2-0.2,0.5-0.2,0.8c0,0.5,0.1,0.8,0.4,1    c0.3,0.2,0.7,0.3,1.2,0.3c0.3,0,0.6-0.1,0.9-0.2C58.5,241.2,58.8,241,59,240.8z"></path>
		<path class="st5" d="M75.5,243.5h-3.9l-2.9-4.6l-0.5,0.7v3.9h-3.3v-14.6h3.3v8.2l3.1-4.1h3.9l-3.7,4.6L75.5,243.5z"></path>
		<path class="st5" d="M95.2,236.5c0,1.3-0.3,2.5-0.9,3.5c-0.6,1-1.3,1.8-2.2,2.4c-0.7,0.5-1.5,0.8-2.4,0.9s-1.8,0.2-2.7,0.2h-4.4    v-14h4.3c1,0,1.9,0.1,2.8,0.2c0.9,0.1,1.7,0.4,2.4,0.9c0.9,0.6,1.6,1.4,2.2,2.4S95.2,235.2,95.2,236.5z M91.6,236.5    c0-0.9-0.2-1.7-0.5-2.4c-0.3-0.7-0.8-1.2-1.5-1.5c-0.5-0.3-1-0.4-1.5-0.4s-1.1,0-1.9,0h-0.1v8.8h0.1c0.8,0,1.5,0,2,0    c0.5,0,1.1-0.2,1.5-0.5c0.6-0.4,1-0.9,1.3-1.5C91.5,238.2,91.6,237.4,91.6,236.5z"></path>
		<path class="st5" d="M102.7,243.8c-2,0-3.5-0.5-4.6-1.4c-1.1-1-1.6-2.3-1.6-4.1c0-1.7,0.5-3.1,1.5-4.1c1-1,2.4-1.5,4.2-1.5    c1.6,0,2.8,0.4,3.6,1.3c0.8,0.9,1.2,2.1,1.2,3.7v1.2h-7.2c0,0.5,0.1,0.9,0.3,1.2c0.2,0.3,0.4,0.6,0.7,0.8c0.3,0.2,0.6,0.3,1,0.4    c0.4,0.1,0.8,0.1,1.2,0.1c0.4,0,0.8,0,1.1-0.1c0.4-0.1,0.7-0.2,1-0.3c0.3-0.1,0.5-0.2,0.7-0.4c0.2-0.1,0.4-0.3,0.6-0.4h0.3v2.7    c-0.3,0.1-0.5,0.2-0.7,0.3c-0.2,0.1-0.5,0.2-0.9,0.3c-0.4,0.1-0.7,0.2-1.1,0.2C103.7,243.8,103.3,243.8,102.7,243.8z M103.8,236.9    c0-0.7-0.2-1.2-0.5-1.6c-0.3-0.4-0.8-0.5-1.4-0.5c-0.6,0-1.1,0.2-1.5,0.6c-0.4,0.4-0.6,0.9-0.6,1.6H103.8z"></path>
		<path class="st5" d="M113,243.7c-1.3,0-2.3-0.3-2.9-0.8c-0.6-0.6-0.9-1.5-0.9-2.7v-4.9h-1.3V233h1.3v-3h3.3v3h3.2v2.3h-3.2v3.7    c0,0.4,0,0.7,0,1c0,0.3,0.1,0.5,0.2,0.7c0.1,0.2,0.2,0.4,0.5,0.5c0.2,0.1,0.5,0.2,1,0.2c0.2,0,0.4,0,0.7-0.1s0.5-0.1,0.6-0.2h0.3    v2.3c-0.4,0.1-0.7,0.2-1.1,0.2C114.1,243.7,113.6,243.7,113,243.7z"></path>
		<path class="st5" d="M122.6,243.8c-2,0-3.5-0.5-4.6-1.4c-1.1-1-1.6-2.3-1.6-4.1c0-1.7,0.5-3.1,1.5-4.1c1-1,2.4-1.5,4.2-1.5    c1.6,0,2.8,0.4,3.6,1.3c0.8,0.9,1.2,2.1,1.2,3.7v1.2h-7.2c0,0.5,0.1,0.9,0.3,1.2c0.2,0.3,0.4,0.6,0.7,0.8c0.3,0.2,0.6,0.3,1,0.4    c0.4,0.1,0.8,0.1,1.2,0.1c0.4,0,0.8,0,1.1-0.1c0.4-0.1,0.7-0.2,1-0.3c0.3-0.1,0.5-0.2,0.7-0.4c0.2-0.1,0.4-0.3,0.6-0.4h0.3v2.7    c-0.3,0.1-0.5,0.2-0.7,0.3c-0.2,0.1-0.5,0.2-0.9,0.3c-0.4,0.1-0.7,0.2-1.1,0.2C123.6,243.8,123.1,243.8,122.6,243.8z M123.6,236.9    c0-0.7-0.2-1.2-0.5-1.6c-0.3-0.4-0.8-0.5-1.4-0.5c-0.6,0-1.1,0.2-1.5,0.6c-0.4,0.4-0.6,0.9-0.6,1.6H123.6z"></path>
		<path class="st5" d="M134,243.8c-0.9,0-1.7-0.1-2.4-0.3c-0.7-0.2-1.4-0.6-1.9-1c-0.5-0.5-0.9-1-1.2-1.7c-0.3-0.7-0.4-1.5-0.4-2.4    c0-1,0.2-1.9,0.5-2.6c0.3-0.7,0.8-1.3,1.3-1.7c0.5-0.4,1.1-0.8,1.9-1s1.5-0.3,2.2-0.3c0.6,0,1.2,0.1,1.7,0.2s1.2,0.3,1.8,0.6v2.8    h-0.4c-0.1-0.1-0.3-0.3-0.5-0.4c-0.2-0.2-0.4-0.3-0.6-0.4c-0.2-0.1-0.5-0.2-0.8-0.3c-0.3-0.1-0.6-0.1-1-0.1c-0.8,0-1.5,0.3-2,0.9    c-0.5,0.6-0.7,1.4-0.7,2.4c0,1.1,0.2,1.8,0.7,2.4c0.5,0.5,1.1,0.8,2,0.8c0.4,0,0.8,0,1.1-0.1s0.6-0.2,0.8-0.3    c0.2-0.1,0.4-0.3,0.6-0.4c0.2-0.1,0.3-0.3,0.4-0.4h0.4v2.8c-0.2,0.1-0.4,0.2-0.7,0.3c-0.2,0.1-0.5,0.2-0.8,0.3    c-0.3,0.1-0.6,0.2-0.9,0.2S134.4,243.8,134,243.8z"></path>
		<path class="st5" d="M143.2,243.7c-1.3,0-2.3-0.3-2.9-0.8c-0.6-0.6-0.9-1.5-0.9-2.7v-4.9h-1.3V233h1.3v-3h3.3v3h3.2v2.3h-3.2v3.7    c0,0.4,0,0.7,0,1c0,0.3,0.1,0.5,0.2,0.7c0.1,0.2,0.2,0.4,0.5,0.5c0.2,0.1,0.5,0.2,1,0.2c0.2,0,0.4,0,0.7-0.1s0.5-0.1,0.6-0.2h0.3    v2.3c-0.4,0.1-0.7,0.2-1.1,0.2C144.2,243.7,143.7,243.7,143.2,243.7z"></path>
		<path class="st5" d="M150.7,231.4h-3.5v-2.6h3.5V231.4z M150.6,243.5h-3.3V233h3.3V243.5z"></path>
		<path class="st5" d="M163.5,238.2c0,1.7-0.5,3.1-1.4,4.1s-2.3,1.5-4,1.5c-1.7,0-3.1-0.5-4-1.5s-1.4-2.4-1.4-4.1    c0-1.8,0.5-3.1,1.4-4.1c1-1,2.3-1.5,4-1.5c1.7,0,3.1,0.5,4,1.5C163,235.1,163.5,236.5,163.5,238.2z M160.1,238.3    c0-0.6-0.1-1.1-0.2-1.6s-0.2-0.8-0.4-1c-0.2-0.3-0.4-0.4-0.7-0.5c-0.2-0.1-0.5-0.2-0.8-0.2c-0.3,0-0.6,0-0.8,0.1s-0.5,0.3-0.7,0.5    c-0.2,0.2-0.3,0.6-0.5,1c-0.1,0.4-0.2,1-0.2,1.6c0,0.6,0.1,1.2,0.2,1.6c0.1,0.4,0.2,0.7,0.4,1c0.2,0.2,0.4,0.4,0.7,0.5    c0.3,0.1,0.6,0.2,0.9,0.2c0.3,0,0.5-0.1,0.8-0.2c0.3-0.1,0.5-0.3,0.7-0.5c0.2-0.3,0.3-0.6,0.4-1    C160,239.5,160.1,238.9,160.1,238.3z"></path>
		<path class="st5" d="M175.3,243.5H172v-5.2c0-0.4,0-0.9-0.1-1.3c0-0.4-0.1-0.7-0.2-0.9c-0.1-0.2-0.3-0.4-0.5-0.5    c-0.2-0.1-0.5-0.2-0.9-0.2c-0.3,0-0.5,0.1-0.8,0.2c-0.3,0.1-0.6,0.3-0.9,0.5v7.5h-3.3V233h3.3v1.2c0.5-0.5,1.1-0.8,1.6-1.1    c0.5-0.3,1.1-0.4,1.7-0.4c1.1,0,1.9,0.3,2.5,1c0.6,0.7,0.9,1.7,0.9,3V243.5z"></path>
	</g>
</g>
<g>
	<g>
		<path class="st5" d="M39.9,177.3H34v2.6h5.4v2.7H34v6h-3.5v-14h9.4V177.3z"></path>
		<path class="st5" d="M47.6,187.5c-0.2,0.2-0.4,0.4-0.6,0.5s-0.4,0.3-0.7,0.5c-0.3,0.1-0.6,0.3-0.9,0.3c-0.3,0.1-0.7,0.1-1.2,0.1    c-0.9,0-1.7-0.3-2.3-0.9c-0.6-0.6-0.9-1.4-0.9-2.4c0-0.8,0.2-1.4,0.5-1.9c0.3-0.5,0.8-0.9,1.4-1.1c0.6-0.3,1.3-0.5,2.1-0.6    c0.8-0.1,1.7-0.2,2.7-0.3v-0.1c0-0.6-0.2-1-0.6-1.2c-0.4-0.2-1.1-0.3-1.9-0.3c-0.4,0-0.8,0.1-1.4,0.2c-0.5,0.1-1,0.3-1.5,0.5h-0.3    v-2.5c0.3-0.1,0.9-0.2,1.6-0.3c0.7-0.1,1.5-0.2,2.2-0.2c1.8,0,3.1,0.3,4,0.9s1.2,1.5,1.2,2.8v7.2h-3.3V187.5z M47.6,185.8v-2.2    c-0.6,0.1-1,0.1-1.4,0.1s-0.7,0.1-1,0.2c-0.3,0.1-0.5,0.3-0.7,0.5c-0.2,0.2-0.2,0.5-0.2,0.8c0,0.5,0.1,0.8,0.4,1    c0.3,0.2,0.7,0.3,1.2,0.3c0.3,0,0.6-0.1,0.9-0.2C47,186.3,47.3,186.1,47.6,185.8z"></path>
		<path class="st5" d="M63.8,183.2c0,1.7-0.4,3-1.3,4.1c-0.9,1-1.9,1.6-3.2,1.6c-0.5,0-1-0.1-1.4-0.2s-0.8-0.3-1.2-0.6l-0.1,0.5    h-3.1V174h3.3v5.2c0.5-0.4,1-0.7,1.5-1s1.1-0.4,1.7-0.4c1.2,0,2.2,0.5,2.8,1.4C63.5,180.1,63.8,181.5,63.8,183.2z M60.4,183.2    c0-1.1-0.2-1.8-0.5-2.3c-0.3-0.5-0.8-0.7-1.5-0.7c-0.3,0-0.6,0-0.9,0.1s-0.6,0.2-0.9,0.4v5.3c0.2,0.1,0.4,0.1,0.7,0.2s0.4,0,0.7,0    c0.8,0,1.4-0.3,1.8-0.8C60.2,185.1,60.4,184.3,60.4,183.2z"></path>
		<path class="st5" d="M72.9,181.1h-0.3c-0.1,0-0.3-0.1-0.5-0.1c-0.2,0-0.5,0-0.8,0c-0.3,0-0.7,0.1-1.1,0.2    c-0.4,0.1-0.7,0.2-1.1,0.4v7.1h-3.3V178h3.3v1.5c0.2-0.1,0.4-0.3,0.6-0.5s0.5-0.4,0.7-0.5c0.2-0.1,0.5-0.3,0.8-0.4    s0.6-0.2,0.9-0.2c0.1,0,0.2,0,0.4,0s0.3,0,0.4,0V181.1z"></path>
		<path class="st5" d="M77.7,176.5h-3.5V174h3.5V176.5z M77.7,188.6h-3.3V178h3.3V188.6z"></path>
		<path class="st5" d="M85.5,188.9c-0.9,0-1.7-0.1-2.4-0.3c-0.7-0.2-1.4-0.6-1.9-1c-0.5-0.5-0.9-1-1.2-1.7c-0.3-0.7-0.4-1.5-0.4-2.4    c0-1,0.2-1.9,0.5-2.6c0.3-0.7,0.8-1.3,1.3-1.7c0.5-0.4,1.1-0.8,1.9-1s1.5-0.3,2.2-0.3c0.6,0,1.2,0.1,1.7,0.2s1.2,0.3,1.8,0.6v2.8    h-0.4c-0.1-0.1-0.3-0.3-0.5-0.4c-0.2-0.2-0.4-0.3-0.6-0.4c-0.2-0.1-0.5-0.2-0.8-0.3c-0.3-0.1-0.6-0.1-1-0.1c-0.8,0-1.5,0.3-2,0.9    c-0.5,0.6-0.7,1.4-0.7,2.4c0,1.1,0.2,1.8,0.7,2.4c0.5,0.5,1.1,0.8,2,0.8c0.4,0,0.8,0,1.1-0.1s0.6-0.2,0.8-0.3    c0.2-0.1,0.4-0.3,0.6-0.4c0.2-0.1,0.3-0.3,0.4-0.4H89v2.8c-0.2,0.1-0.4,0.2-0.7,0.3c-0.2,0.1-0.5,0.2-0.8,0.3    c-0.3,0.1-0.6,0.2-0.9,0.2S86,188.9,85.5,188.9z"></path>
		<path class="st5" d="M96.5,187.5c-0.2,0.2-0.4,0.4-0.6,0.5s-0.4,0.3-0.7,0.5c-0.3,0.1-0.6,0.3-0.9,0.3c-0.3,0.1-0.7,0.1-1.2,0.1    c-0.9,0-1.7-0.3-2.3-0.9c-0.6-0.6-0.9-1.4-0.9-2.4c0-0.8,0.2-1.4,0.5-1.9c0.3-0.5,0.8-0.9,1.4-1.1c0.6-0.3,1.3-0.5,2.1-0.6    c0.8-0.1,1.7-0.2,2.7-0.3v-0.1c0-0.6-0.2-1-0.6-1.2c-0.4-0.2-1.1-0.3-1.9-0.3c-0.4,0-0.8,0.1-1.4,0.2c-0.5,0.1-1,0.3-1.5,0.5h-0.3    v-2.5c0.3-0.1,0.9-0.2,1.6-0.3c0.7-0.1,1.5-0.2,2.2-0.2c1.8,0,3.1,0.3,4,0.9s1.2,1.5,1.2,2.8v7.2h-3.3V187.5z M96.5,185.8v-2.2    c-0.6,0.1-1,0.1-1.4,0.1s-0.7,0.1-1,0.2c-0.3,0.1-0.5,0.3-0.7,0.5c-0.2,0.2-0.2,0.5-0.2,0.8c0,0.5,0.1,0.8,0.4,1    c0.3,0.2,0.7,0.3,1.2,0.3c0.3,0,0.6-0.1,0.9-0.2C96,186.3,96.3,186.1,96.5,185.8z"></path>
		<path class="st5" d="M106.5,188.8c-1.3,0-2.3-0.3-2.9-0.8c-0.6-0.6-0.9-1.5-0.9-2.7v-4.9h-1.3V178h1.3v-3h3.3v3h3.2v2.3h-3.2v3.7    c0,0.4,0,0.7,0,1c0,0.3,0.1,0.5,0.2,0.7c0.1,0.2,0.2,0.4,0.5,0.5c0.2,0.1,0.5,0.2,1,0.2c0.2,0,0.4,0,0.7-0.1s0.5-0.1,0.6-0.2h0.3    v2.3c-0.4,0.1-0.7,0.2-1.1,0.2C107.6,188.8,107.1,188.8,106.5,188.8z"></path>
		<path class="st5" d="M114,176.5h-3.5V174h3.5V176.5z M113.9,188.6h-3.3V178h3.3V188.6z"></path>
		<path class="st5" d="M126.8,183.3c0,1.7-0.5,3.1-1.4,4.1s-2.3,1.5-4,1.5c-1.7,0-3.1-0.5-4-1.5s-1.4-2.4-1.4-4.1    c0-1.8,0.5-3.1,1.4-4.1c1-1,2.3-1.5,4-1.5c1.7,0,3.1,0.5,4,1.5C126.3,180.2,126.8,181.6,126.8,183.3z M123.4,183.3    c0-0.6-0.1-1.1-0.2-1.6s-0.2-0.8-0.4-1c-0.2-0.3-0.4-0.4-0.7-0.5c-0.2-0.1-0.5-0.2-0.8-0.2c-0.3,0-0.6,0-0.8,0.1s-0.5,0.3-0.7,0.5    c-0.2,0.2-0.3,0.6-0.5,1c-0.1,0.4-0.2,1-0.2,1.6c0,0.6,0.1,1.2,0.2,1.6c0.1,0.4,0.2,0.7,0.4,1c0.2,0.2,0.4,0.4,0.7,0.5    c0.3,0.1,0.6,0.2,0.9,0.2c0.3,0,0.5-0.1,0.8-0.2c0.3-0.1,0.5-0.3,0.7-0.5c0.2-0.3,0.3-0.6,0.4-1    C123.3,184.5,123.4,184,123.4,183.3z"></path>
		<path class="st5" d="M138.6,188.6h-3.3v-5.2c0-0.4,0-0.9-0.1-1.3c0-0.4-0.1-0.7-0.2-0.9c-0.1-0.2-0.3-0.4-0.5-0.5    c-0.2-0.1-0.5-0.2-0.9-0.2c-0.3,0-0.5,0.1-0.8,0.2c-0.3,0.1-0.6,0.3-0.9,0.5v7.5h-3.3V178h3.3v1.2c0.5-0.5,1.1-0.8,1.6-1.1    c0.5-0.3,1.1-0.4,1.7-0.4c1.1,0,1.9,0.3,2.5,1c0.6,0.7,0.9,1.7,0.9,3V188.6z"></path>
	</g>
</g>
<g>
	<g>
		<path class="st5" d="M36.6,134c-2.1,0-3.8-0.6-5-1.9s-1.9-3.1-1.9-5.4c0-2.2,0.6-4,1.9-5.3c1.2-1.3,2.9-2,5-2c0.6,0,1.1,0,1.5,0.1    c0.4,0.1,0.9,0.2,1.3,0.3c0.3,0.1,0.7,0.2,1,0.4c0.4,0.2,0.7,0.3,0.9,0.4v3.3H41c-0.2-0.2-0.4-0.3-0.6-0.5    c-0.3-0.2-0.5-0.4-0.9-0.6c-0.3-0.2-0.7-0.4-1.1-0.5c-0.4-0.1-0.8-0.2-1.2-0.2c-0.5,0-1,0.1-1.4,0.2s-0.8,0.4-1.2,0.8    c-0.4,0.4-0.6,0.8-0.9,1.4s-0.3,1.3-0.3,2.2c0,0.9,0.1,1.6,0.3,2.2c0.2,0.6,0.5,1.1,0.9,1.4c0.4,0.4,0.8,0.6,1.2,0.8    s0.9,0.2,1.3,0.2c0.5,0,0.9-0.1,1.3-0.2c0.4-0.2,0.8-0.3,1.1-0.5c0.3-0.2,0.6-0.4,0.8-0.6s0.4-0.4,0.6-0.5h0.3v3.3    c-0.3,0.1-0.6,0.3-0.9,0.4c-0.3,0.2-0.7,0.3-1,0.4c-0.4,0.1-0.8,0.2-1.2,0.3C37.8,134,37.3,134,36.6,134z"></path>
		<path class="st5" d="M53.5,128.5c0,1.7-0.5,3.1-1.4,4.1c-0.9,1-2.3,1.5-4,1.5c-1.7,0-3.1-0.5-4-1.5c-1-1-1.4-2.4-1.4-4.1    c0-1.8,0.5-3.1,1.4-4.1s2.3-1.5,4-1.5c1.7,0,3.1,0.5,4,1.5C53.1,125.3,53.5,126.7,53.5,128.5z M50.2,128.5c0-0.6-0.1-1.1-0.2-1.6    s-0.2-0.8-0.4-1c-0.2-0.3-0.4-0.4-0.7-0.6c-0.2-0.1-0.5-0.2-0.8-0.2c-0.3,0-0.6,0-0.8,0.1s-0.5,0.3-0.7,0.5    c-0.2,0.2-0.3,0.6-0.5,1c-0.1,0.4-0.2,1-0.2,1.6s0.1,1.2,0.2,1.6c0.1,0.4,0.2,0.7,0.4,1c0.2,0.2,0.4,0.4,0.7,0.5    c0.3,0.1,0.6,0.2,0.9,0.2c0.3,0,0.5-0.1,0.8-0.2c0.3-0.1,0.5-0.3,0.7-0.5c0.2-0.3,0.3-0.6,0.4-1C50.1,129.7,50.2,129.2,50.2,128.5    z"></path>
		<path class="st5" d="M65.4,133.7h-3.3v-5.2c0-0.4,0-0.9-0.1-1.3c0-0.4-0.1-0.7-0.2-0.9c-0.1-0.2-0.3-0.4-0.5-0.5    c-0.2-0.1-0.5-0.2-0.9-0.2c-0.3,0-0.5,0.1-0.8,0.2s-0.6,0.3-0.9,0.5v7.5h-3.3v-10.6h3.3v1.2c0.5-0.5,1.1-0.8,1.6-1.1    c0.5-0.3,1.1-0.4,1.7-0.4c1.1,0,1.9,0.3,2.5,1c0.6,0.7,0.9,1.7,0.9,3V133.7z"></path>
		<path class="st5" d="M72,133.9c-1.3,0-2.3-0.3-2.9-0.8c-0.6-0.6-0.9-1.5-0.9-2.7v-4.9h-1.3v-2.3h1.3v-3h3.3v3h3.2v2.3h-3.2v3.7    c0,0.4,0,0.7,0,1s0.1,0.5,0.2,0.7c0.1,0.2,0.2,0.4,0.5,0.5c0.2,0.1,0.5,0.2,1,0.2c0.2,0,0.4,0,0.7-0.1c0.3-0.1,0.5-0.1,0.6-0.2    h0.3v2.3c-0.4,0.1-0.7,0.2-1.1,0.2C73.1,133.9,72.6,133.9,72,133.9z"></path>
		<path class="st5" d="M82,132.6c-0.2,0.2-0.4,0.4-0.6,0.5s-0.4,0.3-0.7,0.5c-0.3,0.1-0.6,0.3-0.9,0.3c-0.3,0.1-0.7,0.1-1.2,0.1    c-0.9,0-1.7-0.3-2.3-0.9c-0.6-0.6-0.9-1.4-0.9-2.4c0-0.8,0.2-1.4,0.5-1.9c0.3-0.5,0.8-0.9,1.4-1.1c0.6-0.3,1.3-0.5,2.1-0.6    c0.8-0.1,1.7-0.2,2.7-0.3v-0.1c0-0.6-0.2-1-0.6-1.2c-0.4-0.2-1.1-0.3-1.9-0.3c-0.4,0-0.8,0.1-1.4,0.2c-0.5,0.1-1,0.3-1.5,0.5h-0.3    v-2.5c0.3-0.1,0.9-0.2,1.6-0.3c0.7-0.1,1.5-0.2,2.2-0.2c1.8,0,3.1,0.3,4,0.9s1.2,1.5,1.2,2.8v7.2H82V132.6z M82,131v-2.2    c-0.6,0.1-1,0.1-1.4,0.1c-0.3,0-0.7,0.1-1,0.2c-0.3,0.1-0.5,0.3-0.7,0.5c-0.2,0.2-0.2,0.5-0.2,0.8c0,0.5,0.1,0.8,0.4,1    c0.3,0.2,0.7,0.3,1.2,0.3c0.3,0,0.6-0.1,0.9-0.2C81.5,131.4,81.8,131.2,82,131z"></path>
		<path class="st5" d="M91.3,121.7h-3.5v-2.6h3.5V121.7z M91.2,133.7h-3.3v-10.6h3.3V133.7z"></path>
		<path class="st5" d="M103.8,133.7h-3.3v-5.2c0-0.4,0-0.9-0.1-1.3c0-0.4-0.1-0.7-0.2-0.9c-0.1-0.2-0.3-0.4-0.5-0.5    c-0.2-0.1-0.5-0.2-0.9-0.2c-0.3,0-0.5,0.1-0.8,0.2s-0.6,0.3-0.9,0.5v7.5h-3.3v-10.6h3.3v1.2c0.5-0.5,1.1-0.8,1.6-1.1    c0.5-0.3,1.1-0.4,1.7-0.4c1.1,0,1.9,0.3,2.5,1s0.9,1.7,0.9,3V133.7z"></path>
		<path class="st5" d="M119.1,133.7v-5.3c0-0.5,0-1,0-1.3c0-0.4-0.1-0.6-0.2-0.9c-0.1-0.2-0.2-0.4-0.4-0.5c-0.2-0.1-0.5-0.2-0.8-0.2    c-0.3,0-0.5,0.1-0.7,0.2c-0.2,0.1-0.5,0.3-0.8,0.5v7.5h-3.3v-5.3c0-0.5,0-1,0-1.3s-0.1-0.7-0.2-0.9c-0.1-0.2-0.2-0.4-0.4-0.5    c-0.2-0.1-0.5-0.2-0.8-0.2c-0.3,0-0.5,0.1-0.8,0.2c-0.3,0.1-0.5,0.3-0.8,0.4v7.5h-3.3v-10.6h3.3v1.2c0.5-0.5,1-0.8,1.5-1.1    c0.5-0.3,1-0.4,1.6-0.4c0.6,0,1.2,0.2,1.7,0.5c0.5,0.3,0.9,0.8,1.1,1.4c0.6-0.6,1.2-1,1.8-1.4c0.6-0.3,1.1-0.5,1.7-0.5    c0.5,0,0.9,0.1,1.3,0.2c0.4,0.2,0.7,0.4,1,0.7c0.3,0.3,0.5,0.7,0.7,1.2c0.1,0.5,0.2,1.1,0.2,1.8v6.9H119.1z"></path>
		<path class="st5" d="M130.4,134c-2,0-3.5-0.5-4.6-1.4c-1.1-1-1.6-2.3-1.6-4.1c0-1.7,0.5-3.1,1.5-4.1c1-1,2.4-1.5,4.2-1.5    c1.6,0,2.8,0.4,3.6,1.3c0.8,0.9,1.2,2.1,1.2,3.7v1.2h-7.2c0,0.5,0.1,0.9,0.3,1.2c0.2,0.3,0.4,0.6,0.7,0.8c0.3,0.2,0.6,0.3,1,0.4    c0.4,0.1,0.8,0.1,1.2,0.1c0.4,0,0.8,0,1.1-0.1c0.4-0.1,0.7-0.2,1-0.3c0.3-0.1,0.5-0.2,0.7-0.4c0.2-0.1,0.4-0.3,0.6-0.4h0.3v2.7    c-0.3,0.1-0.5,0.2-0.7,0.3c-0.2,0.1-0.5,0.2-0.9,0.3c-0.4,0.1-0.7,0.2-1.1,0.2S130.9,134,130.4,134z M131.5,127.1    c0-0.7-0.2-1.2-0.5-1.6c-0.3-0.4-0.8-0.5-1.4-0.5c-0.6,0-1.1,0.2-1.5,0.6c-0.4,0.4-0.6,0.9-0.6,1.6H131.5z"></path>
		<path class="st5" d="M146.5,133.7h-3.3v-5.2c0-0.4,0-0.9-0.1-1.3c0-0.4-0.1-0.7-0.2-0.9c-0.1-0.2-0.3-0.4-0.5-0.5    c-0.2-0.1-0.5-0.2-0.9-0.2c-0.3,0-0.5,0.1-0.8,0.2s-0.6,0.3-0.9,0.5v7.5h-3.3v-10.6h3.3v1.2c0.5-0.5,1.1-0.8,1.6-1.1    c0.5-0.3,1.1-0.4,1.7-0.4c1.1,0,1.9,0.3,2.5,1s0.9,1.7,0.9,3V133.7z"></path>
		<path class="st5" d="M153.2,133.9c-1.3,0-2.3-0.3-2.9-0.8c-0.6-0.6-0.9-1.5-0.9-2.7v-4.9h-1.3v-2.3h1.3v-3h3.3v3h3.2v2.3h-3.2v3.7    c0,0.4,0,0.7,0,1s0.1,0.5,0.2,0.7c0.1,0.2,0.2,0.4,0.5,0.5c0.2,0.1,0.5,0.2,1,0.2c0.2,0,0.4,0,0.7-0.1c0.3-0.1,0.5-0.1,0.6-0.2    h0.3v2.3c-0.4,0.1-0.7,0.2-1.1,0.2C154.3,133.9,153.8,133.9,153.2,133.9z"></path>
	</g>
</g>
<g>
	<g>
		<path class="st5" d="M42.5,77.6h-7.5v-2.4h2v-9.1h-2v-2.4h7.5v2.4h-2v9.1h2V77.6z"></path>
		<path class="st5" d="M54.7,77.6h-3.3v-5.2c0-0.4,0-0.9-0.1-1.3c0-0.4-0.1-0.7-0.2-0.9c-0.1-0.2-0.3-0.4-0.5-0.5    c-0.2-0.1-0.5-0.2-0.9-0.2c-0.3,0-0.5,0.1-0.8,0.2s-0.6,0.3-0.9,0.5v7.5h-3.3V67.1h3.3v1.2c0.5-0.5,1.1-0.8,1.6-1.1    c0.5-0.3,1.1-0.4,1.7-0.4c1.1,0,1.9,0.3,2.5,1s0.9,1.7,0.9,3V77.6z"></path>
		<path class="st5" d="M60.6,77.9c-0.8,0-1.5-0.1-2.2-0.3c-0.7-0.2-1.3-0.4-1.7-0.6v-2.8h0.3c0.2,0.1,0.3,0.3,0.5,0.4    c0.2,0.1,0.5,0.3,0.8,0.5c0.3,0.1,0.7,0.3,1,0.4c0.4,0.1,0.8,0.2,1.3,0.2c0.5,0,0.9-0.1,1.2-0.2c0.4-0.1,0.5-0.4,0.5-0.7    c0-0.2-0.1-0.4-0.2-0.6c-0.2-0.1-0.5-0.2-0.9-0.4c-0.3-0.1-0.6-0.1-0.9-0.2c-0.4-0.1-0.7-0.2-1-0.2c-0.8-0.3-1.4-0.6-1.9-1.1    c-0.4-0.5-0.6-1.2-0.6-2c0-0.5,0.1-0.9,0.3-1.3c0.2-0.4,0.5-0.8,1-1.1c0.4-0.3,0.9-0.6,1.6-0.8c0.6-0.2,1.3-0.3,2.1-0.3    c0.7,0,1.4,0.1,2,0.2c0.6,0.1,1.1,0.3,1.6,0.5v2.7H65c-0.1-0.1-0.3-0.2-0.5-0.4c-0.2-0.1-0.5-0.3-0.7-0.4    c-0.3-0.1-0.6-0.2-0.9-0.3s-0.7-0.1-1-0.1c-0.5,0-0.9,0.1-1.2,0.2c-0.3,0.2-0.5,0.4-0.5,0.6c0,0.2,0.1,0.4,0.2,0.6    c0.2,0.1,0.5,0.3,1.1,0.4c0.3,0.1,0.6,0.1,1,0.2c0.4,0.1,0.7,0.2,1.1,0.3c0.8,0.2,1.3,0.6,1.7,1.1c0.4,0.5,0.6,1.1,0.6,1.9    c0,0.5-0.1,1-0.3,1.4s-0.6,0.8-1,1.1c-0.5,0.3-1,0.6-1.6,0.8C62.1,77.8,61.4,77.9,60.6,77.9z"></path>
		<path class="st5" d="M77.2,77.6H74v-1.2c-0.6,0.5-1.1,0.8-1.6,1.1s-1,0.4-1.7,0.4c-1,0-1.9-0.3-2.4-1c-0.6-0.7-0.9-1.7-0.9-3v-6.9    h3.3v5.2c0,0.5,0,1,0,1.3c0,0.3,0.1,0.6,0.2,0.9c0.1,0.2,0.3,0.4,0.5,0.5s0.5,0.2,0.9,0.2c0.2,0,0.5-0.1,0.8-0.2    c0.3-0.1,0.6-0.3,0.9-0.5v-7.5h3.3V77.6z"></path>
		<path class="st5" d="M83.3,77.6H80V63h3.3V77.6z"></path>
		<path class="st5" d="M91.8,76.5c-0.2,0.2-0.4,0.4-0.6,0.5s-0.4,0.3-0.7,0.5c-0.3,0.1-0.6,0.3-0.9,0.3c-0.3,0.1-0.7,0.1-1.2,0.1    c-0.9,0-1.7-0.3-2.3-0.9c-0.6-0.6-0.9-1.4-0.9-2.4c0-0.8,0.2-1.4,0.5-1.9c0.3-0.5,0.8-0.9,1.4-1.1c0.6-0.3,1.3-0.5,2.1-0.6    c0.8-0.1,1.7-0.2,2.7-0.3v-0.1c0-0.6-0.2-1-0.6-1.2c-0.4-0.2-1.1-0.3-1.9-0.3c-0.4,0-0.8,0.1-1.4,0.2c-0.5,0.1-1,0.3-1.5,0.5h-0.3    v-2.5c0.3-0.1,0.9-0.2,1.6-0.3c0.7-0.1,1.5-0.2,2.2-0.2c1.8,0,3.1,0.3,4,0.9s1.2,1.5,1.2,2.8v7.2h-3.3V76.5z M91.8,74.9v-2.2    c-0.6,0.1-1,0.1-1.4,0.1c-0.3,0-0.7,0.1-1,0.2c-0.3,0.1-0.5,0.3-0.7,0.5c-0.2,0.2-0.2,0.5-0.2,0.8c0,0.5,0.1,0.8,0.4,1    c0.3,0.2,0.7,0.3,1.2,0.3c0.3,0,0.6-0.1,0.9-0.2C91.3,75.3,91.5,75.1,91.8,74.9z"></path>
		<path class="st5" d="M101.7,77.8c-1.3,0-2.3-0.3-2.9-0.8c-0.6-0.6-0.9-1.5-0.9-2.7v-4.9h-1.3v-2.3h1.3v-3h3.3v3h3.2v2.3h-3.2v3.7    c0,0.4,0,0.7,0,1s0.1,0.5,0.2,0.7c0.1,0.2,0.2,0.4,0.5,0.5c0.2,0.1,0.5,0.2,1,0.2c0.2,0,0.4,0,0.7-0.1c0.3-0.1,0.5-0.1,0.6-0.2    h0.3v2.3c-0.4,0.1-0.7,0.2-1.1,0.2C102.8,77.8,102.3,77.8,101.7,77.8z"></path>
		<path class="st5" d="M109.3,65.6h-3.5V63h3.5V65.6z M109.2,77.6h-3.3V67.1h3.3V77.6z"></path>
		<path class="st5" d="M122,72.3c0,1.7-0.5,3.1-1.4,4.1c-0.9,1-2.3,1.5-4,1.5c-1.7,0-3.1-0.5-4-1.5c-1-1-1.4-2.4-1.4-4.1    c0-1.8,0.5-3.1,1.4-4.1s2.3-1.5,4-1.5c1.7,0,3.1,0.5,4,1.5C121.5,69.2,122,70.6,122,72.3z M118.6,72.4c0-0.6-0.1-1.1-0.2-1.6    s-0.2-0.8-0.4-1c-0.2-0.3-0.4-0.4-0.7-0.6c-0.2-0.1-0.5-0.2-0.8-0.2c-0.3,0-0.6,0-0.8,0.1s-0.5,0.3-0.7,0.5    c-0.2,0.2-0.3,0.6-0.5,1c-0.1,0.4-0.2,1-0.2,1.6s0.1,1.2,0.2,1.6c0.1,0.4,0.2,0.7,0.4,1c0.2,0.2,0.4,0.4,0.7,0.5    c0.3,0.1,0.6,0.2,0.9,0.2c0.3,0,0.5-0.1,0.8-0.2c0.3-0.1,0.5-0.3,0.7-0.5c0.2-0.3,0.3-0.6,0.4-1C118.6,73.6,118.6,73,118.6,72.4z"></path>
		<path class="st5" d="M133.9,77.6h-3.3v-5.2c0-0.4,0-0.9-0.1-1.3c0-0.4-0.1-0.7-0.2-0.9c-0.1-0.2-0.3-0.4-0.5-0.5    c-0.2-0.1-0.5-0.2-0.9-0.2c-0.3,0-0.5,0.1-0.8,0.2s-0.6,0.3-0.9,0.5v7.5H124V67.1h3.3v1.2c0.5-0.5,1.1-0.8,1.6-1.1    c0.5-0.3,1.1-0.4,1.7-0.4c1.1,0,1.9,0.3,2.5,1s0.9,1.7,0.9,3V77.6z"></path>
	</g>
</g>
</svg>