<svg xmlns="http://www.w3.org/2000/svg" xmlns:xlink="http://www.w3.org/1999/xlink" id="Layer_1" x="0px" y="0px" viewBox="0 0 655.52 113.65" style="enable-background:new 0 0 655.52 113.65;" xml:space="preserve">
<style type="text/css">
	.st0{display:none;}
	.st1{display:inline;}
	.st2{fill:#0057A3;}
	.st3{display:inline;fill:#6291C8;}
	.st4{display:inline;fill:#002F65;}
	.st5{fill:#004389;}
	.st6{fill:#0057A2;stroke:#0057A2;stroke-width:0.5;stroke-miterlimit:10;}
	.st7{fill:#004388;}
	.st8{fill:#0057A2;}
	.st9{fill:#002E65;}
	.st10{fill:#0057A3;stroke:#0057A3;stroke-width:0.5;stroke-miterlimit:10;}
	.st11{fill:#1A428A;}
</style>
<g id="TightSeal" class="st0">
	<g class="st1">
		<g>
			<path class="st2" d="M93.68,77.15V25.88H74.96V13.8h53.35v12.08h-18.72v51.26H93.68z"></path>
			<path class="st2" d="M166.42,77.15h-34.12V66.09h9.1V24.86h-9.1V13.8h34.12v11.06h-9.1v41.22h9.1V77.15z"></path>
			<path class="st2" d="M229.9,73.53c-2.78,1.13-6.39,2.24-10.83,3.32c-4.44,1.08-8.81,1.62-13.12,1.62     c-9.95,0-17.89-2.87-23.8-8.61c-5.91-5.74-8.87-13.89-8.87-24.44c0-9.93,2.96-17.88,8.87-23.87c5.91-5.98,14-8.98,24.27-8.98     c5.3,0,9.61,0.5,12.93,1.51s6.75,2.38,10.29,4.1v14.85h-1.45c-0.77-0.59-1.87-1.44-3.3-2.53c-1.43-1.09-2.83-2.02-4.19-2.79     c-1.59-0.91-3.42-1.69-5.51-2.34c-2.08-0.65-4.29-0.98-6.61-0.98c-2.72,0-5.2,0.43-7.44,1.28c-2.24,0.85-4.24,2.16-6,3.91     c-1.67,1.7-3,3.86-3.98,6.47c-0.98,2.61-1.47,5.64-1.47,9.1c0,7.4,1.86,12.86,5.57,16.38c3.71,3.52,8.79,5.28,15.23,5.28     c0.57,0,1.23-0.01,2-0.04s1.43-0.07,2-0.13V54.22H202.2V42.35h27.69V73.53z"></path>
			<path class="st2" d="M295.37,77.15h-15.91V49.07H257.8v28.08h-15.91V13.8h15.91v23.18h21.65V13.8h15.91V77.15z"></path>
			<path class="st2" d="M320.63,77.15V25.88h-18.72V13.8h53.35v12.08h-18.72v51.26H320.63z"></path>
			<path class="st2" d="M388.15,55.11h-28.2V43.28h28.2V55.11z"></path>
			<path class="st2" d="M418.95,78.29c-4.85,0-9.11-0.47-12.78-1.4c-3.67-0.94-7.08-2.1-10.23-3.49V58.34h1.45     c3.18,2.69,6.68,4.76,10.51,6.21c3.83,1.45,7.54,2.17,11.15,2.17c0.91,0,2.11-0.1,3.59-0.3c1.49-0.2,2.69-0.51,3.59-0.94     c1.11-0.48,2.04-1.16,2.81-2.02s1.15-2.01,1.15-3.42c0-1.59-0.62-2.88-1.87-3.87c-1.25-0.99-2.74-1.72-4.47-2.17     c-2.16-0.57-4.46-1.11-6.91-1.62s-4.74-1.13-6.87-1.87c-4.91-1.73-8.42-4.05-10.55-6.98c-2.13-2.92-3.19-6.58-3.19-10.98     c0-5.93,2.51-10.73,7.53-14.4c5.02-3.67,11.29-5.51,18.8-5.51c3.77,0,7.52,0.38,11.25,1.15c3.73,0.77,7.07,1.8,10.02,3.11v14.46     h-1.4c-2.35-2.01-5.23-3.72-8.61-5.11c-3.39-1.39-6.87-2.08-10.44-2.08c-1.39,0-2.64,0.1-3.74,0.3c-1.11,0.2-2.27,0.58-3.49,1.15     c-0.99,0.45-1.85,1.13-2.57,2.02c-0.72,0.89-1.08,1.89-1.08,3c0,1.62,0.57,2.9,1.72,3.85c1.15,0.95,3.37,1.81,6.66,2.57     c2.13,0.48,4.17,0.95,6.15,1.4c1.97,0.45,4.08,1.08,6.32,1.87c4.4,1.59,7.66,3.72,9.81,6.4c2.14,2.68,3.21,6.22,3.21,10.61     c0,6.3-2.47,11.36-7.42,15.19C434.05,76.38,427.37,78.29,418.95,78.29z"></path>
			<path class="st2" d="M454.55,77.15V13.8h42.84v12.08h-27.01v11.1h24.89v12.08h-24.89v16h27.01v12.08H454.55z"></path>
			<path class="st2" d="M501.35,77.15l21.4-63.34h17.36l21.4,63.34h-16.38l-3.96-12.93h-19.91l-3.96,12.93H501.35z M537.68,52.73     l-6.47-20.89l-6.47,20.89H537.68z"></path>
			<path class="st2" d="M610.08,77.15H567.8V13.8h15.91v51.26h26.38V77.15z"></path>
		</g>
	</g>
</g>
<g id="PERMA-COAT" class="st0">
	<g class="st1">
		<path class="st2" d="M94.78,33.8c0,2.95-0.47,5.76-1.4,8.42c-0.94,2.67-2.28,4.89-4.04,6.68c-1.08,1.11-2.26,2.13-3.55,3.06    c-1.29,0.94-2.72,1.73-4.28,2.38c-1.56,0.65-3.25,1.16-5.08,1.53c-1.83,0.37-3.88,0.55-6.15,0.55h-8.34v20.72H46.02V13.8h24.59    c3.66,0,6.81,0.33,9.47,1c2.65,0.67,5.06,1.72,7.21,3.17c2.38,1.59,4.23,3.71,5.53,6.36C94.12,26.98,94.78,30.14,94.78,33.8z     M78.44,34.18c0-1.79-0.43-3.32-1.28-4.62c-0.85-1.29-1.87-2.18-3.06-2.66c-1.5-0.65-2.94-1.03-4.32-1.13    c-1.38-0.1-3.24-0.15-5.59-0.15h-2.25V44.6h1.11c1.5,0,2.92-0.01,4.25-0.04c1.33-0.03,2.5-0.13,3.49-0.3    c0.85-0.14,1.75-0.42,2.7-0.83c0.95-0.41,1.68-0.87,2.19-1.38c1.08-1.05,1.81-2.14,2.19-3.28S78.44,36.11,78.44,34.18z"></path>
		<path class="st2" d="M103.28,77.15V13.8h42.84v12.08h-27.01v11.1H144v12.08h-24.89v16h27.01v12.08H103.28z"></path>
		<path class="st2" d="M215.46,77.15h-19.4l-17.65-23.23h-5.7v23.23h-15.83V13.8h25.48c3.52,0,6.58,0.22,9.19,0.66    c2.61,0.44,5.02,1.35,7.23,2.74c2.27,1.45,4.07,3.28,5.4,5.51c1.33,2.23,2,5.06,2,8.49c0,4.85-1.09,8.78-3.28,11.8    c-2.18,3.02-5.1,5.42-8.76,7.21L215.46,77.15z M189.85,33.2c0-1.59-0.31-2.96-0.91-4.1c-0.61-1.15-1.62-2.03-3.04-2.66    c-0.99-0.43-2.1-0.69-3.32-0.81c-1.22-0.11-2.74-0.17-4.55-0.17h-5.32v17.06h4.55c2.21,0,4.09-0.13,5.64-0.4    c1.55-0.27,2.86-0.84,3.94-1.72c1.02-0.79,1.78-1.74,2.28-2.85C189.61,36.43,189.85,34.99,189.85,33.2z"></path>
		<path class="st2" d="M284.85,77.15h-15.83V35.16l-11.53,27.1h-10.85l-11.53-27.1v41.99h-14.97V13.8h18.33l14.04,31.27l14-31.27    h18.33V77.15z"></path>
		<path class="st2" d="M291.14,77.15l21.4-63.34h17.36l21.4,63.34h-16.38l-3.96-12.93h-19.91l-3.96,12.93H291.14z M327.47,52.73    l-6.47-20.89l-6.47,20.89H327.47z"></path>
		<path class="st2" d="M383.93,55.11h-28.2V43.28h28.2V55.11z"></path>
		<path class="st2" d="M422.47,78.38c-9.5,0-17.04-2.87-22.63-8.61c-5.59-5.74-8.38-13.82-8.38-24.23c0-10.04,2.8-18.04,8.4-24.01    c5.6-5.97,13.15-8.95,22.65-8.95c2.52,0,4.79,0.14,6.81,0.43c2.01,0.28,3.94,0.68,5.79,1.19c1.45,0.43,3.02,1.01,4.72,1.74    c1.7,0.74,3.08,1.38,4.13,1.91v15.1h-1.62c-0.77-0.68-1.73-1.5-2.89-2.45c-1.16-0.95-2.48-1.88-3.96-2.79s-3.1-1.68-4.87-2.32    s-3.62-0.96-5.55-0.96c-2.3,0-4.4,0.36-6.32,1.08c-1.91,0.72-3.74,1.98-5.47,3.76c-1.59,1.62-2.89,3.8-3.89,6.55    c-1.01,2.75-1.51,6-1.51,9.74c0,3.94,0.52,7.25,1.57,9.93c1.05,2.68,2.42,4.84,4.13,6.49c1.64,1.59,3.48,2.74,5.51,3.45    c2.03,0.71,4.05,1.06,6.06,1.06c2.1,0,4.1-0.35,6-1.04c1.9-0.69,3.5-1.47,4.81-2.32c1.42-0.88,2.67-1.77,3.74-2.68    c1.08-0.91,2.01-1.72,2.81-2.42h1.45v14.89c-1.16,0.54-2.51,1.16-4.04,1.85c-1.53,0.7-3.11,1.28-4.72,1.77    c-1.99,0.6-3.84,1.05-5.57,1.36C427.88,78.22,425.5,78.38,422.47,78.38z"></path>
		<path class="st2" d="M510.99,45.5c0,10.24-2.74,18.29-8.21,24.16c-5.47,5.87-12.98,8.81-22.5,8.81c-9.56,0-17.06-2.97-22.5-8.91    c-5.44-5.94-8.17-13.96-8.17-24.06c0-10.18,2.72-18.23,8.17-24.14c5.45-5.91,12.95-8.87,22.5-8.87c9.53,0,17.03,2.94,22.5,8.83    C508.26,27.2,510.99,35.26,510.99,45.5z M494.57,45.45c0-3.77-0.39-6.98-1.17-9.64s-1.82-4.83-3.13-6.53    c-1.36-1.73-2.9-2.97-4.62-3.72c-1.72-0.75-3.5-1.13-5.34-1.13c-1.96,0-3.73,0.35-5.32,1.04c-1.59,0.69-3.12,1.94-4.59,3.72    c-1.3,1.65-2.36,3.83-3.17,6.55s-1.21,5.97-1.21,9.74c0,3.89,0.38,7.11,1.15,9.68c0.77,2.57,1.81,4.72,3.15,6.44    c1.36,1.76,2.91,3.01,4.64,3.76c1.73,0.75,3.52,1.13,5.36,1.13c1.87,0,3.69-0.4,5.45-1.21c1.76-0.81,3.28-2.06,4.55-3.76    c1.36-1.84,2.41-3.99,3.15-6.45C494.2,52.64,494.57,49.42,494.57,45.45z"></path>
		<path class="st2" d="M513.59,77.15l21.4-63.34h17.36l21.4,63.34h-16.38l-3.96-12.93H533.5l-3.96,12.93H513.59z M549.92,52.73    l-6.47-20.89l-6.47,20.89H549.92z"></path>
		<path class="st2" d="M592.2,77.15V25.88h-18.72V13.8h53.35v12.08h-18.72v51.26H592.2z"></path>
	</g>
</g>
<g class="st0">
	<path class="st3" d="M109.56,31.88c0,2.95-0.47,5.76-1.4,8.42c-0.94,2.67-2.28,4.89-4.04,6.68c-1.08,1.11-2.26,2.13-3.55,3.06   c-1.29,0.94-2.72,1.73-4.28,2.38c-1.56,0.65-3.25,1.16-5.08,1.53c-1.83,0.37-3.88,0.55-6.15,0.55h-8.34v20.72H60.81V11.89H85.4   c3.66,0,6.81,0.33,9.47,1c2.65,0.67,5.06,1.72,7.21,3.17c2.38,1.59,4.23,3.71,5.53,6.36C108.91,25.07,109.56,28.23,109.56,31.88z    M93.23,32.27c0-1.79-0.43-3.32-1.28-4.62c-0.85-1.29-1.87-2.18-3.06-2.66c-1.5-0.65-2.94-1.03-4.32-1.13   c-1.38-0.1-3.24-0.15-5.59-0.15h-2.25v18.97h1.11c1.5,0,2.92-0.01,4.25-0.04c1.33-0.03,2.5-0.13,3.49-0.3   c0.85-0.14,1.75-0.42,2.7-0.83c0.95-0.41,1.68-0.87,2.19-1.38c1.08-1.05,1.81-2.14,2.19-3.28S93.23,34.2,93.23,32.27z"></path>
	<path class="st3" d="M118.07,75.23V11.89h42.84v12.08H133.9v11.1h24.89v12.08H133.9v16h27.01v12.08H118.07z"></path>
	<path class="st3" d="M230.25,75.23h-19.4L193.2,52.01h-5.7v23.23h-15.83V11.89h25.48c3.52,0,6.58,0.22,9.19,0.66   c2.61,0.44,5.02,1.35,7.23,2.74c2.27,1.45,4.07,3.28,5.4,5.51c1.33,2.23,2,5.06,2,8.49c0,4.85-1.09,8.78-3.28,11.8   c-2.18,3.02-5.1,5.42-8.76,7.21L230.25,75.23z M204.64,31.29c0-1.59-0.31-2.96-0.91-4.1c-0.61-1.15-1.62-2.03-3.04-2.66   c-0.99-0.43-2.1-0.69-3.32-0.81c-1.22-0.11-2.74-0.17-4.55-0.17h-5.32v17.06h4.55c2.21,0,4.09-0.13,5.64-0.4   c1.55-0.27,2.86-0.84,3.94-1.72c1.02-0.79,1.78-1.74,2.28-2.85C204.39,34.52,204.64,33.08,204.64,31.29z"></path>
	<path class="st3" d="M299.64,75.23h-15.83V33.25l-11.53,27.1h-10.85l-11.53-27.1v41.99h-14.97V11.89h18.33l14.04,31.27l14-31.27   h18.33V75.23z"></path>
	<path class="st3" d="M305.93,75.23l21.4-63.34h17.36l21.4,63.34h-16.38l-3.96-12.93h-19.91l-3.96,12.93H305.93z M342.26,50.81   l-6.47-20.89l-6.47,20.89H342.26z"></path>
	<path class="st3" d="M414.67,75.23h-42.29V11.89h15.91v51.26h26.38V75.23z"></path>
	<path class="st3" d="M422.24,75.23V11.89h42.84v12.08h-27.01v11.1h24.89v12.08h-24.89v16h27.01v12.08H422.24z"></path>
	<path class="st3" d="M534.42,75.23h-19.4l-17.65-23.23h-5.7v23.23h-15.82V11.89h25.48c3.52,0,6.58,0.22,9.19,0.66   c2.61,0.44,5.02,1.35,7.23,2.74c2.27,1.45,4.07,3.28,5.4,5.51c1.33,2.23,2,5.06,2,8.49c0,4.85-1.09,8.78-3.28,11.8   c-2.18,3.02-5.1,5.42-8.76,7.21L534.42,75.23z M508.81,31.29c0-1.59-0.31-2.96-0.92-4.1c-0.61-1.15-1.62-2.03-3.04-2.66   c-0.99-0.43-2.1-0.69-3.32-0.81c-1.22-0.11-2.74-0.17-4.55-0.17h-5.32v17.06h4.55c2.21,0,4.09-0.13,5.64-0.4   c1.55-0.27,2.86-0.84,3.94-1.72c1.02-0.79,1.78-1.74,2.28-2.85C508.56,34.52,508.81,33.08,508.81,31.29z"></path>
	<path class="st3" d="M551.26,75.23V23.97h-18.72V11.89h53.35v12.08h-18.72v51.26H551.26z"></path>
</g>
<g class="st0">
	<path class="st4" d="M2.52,75.23V55.84h13.11v3.7H7.36v3.4h7.62v3.7H7.36v4.9h8.27v3.7H2.52z"></path>
	<path class="st4" d="M35.54,75.23h-4.69l-7.47-13.52v13.52h-4.45V55.84h5.98l6.19,11.11V55.84h4.45V75.23z"></path>
	<path class="st4" d="M55.67,74.13c-0.85,0.35-1.96,0.69-3.31,1.02c-1.36,0.33-2.7,0.49-4.02,0.49c-3.05,0-5.48-0.88-7.29-2.64   s-2.71-4.25-2.71-7.48c0-3.04,0.9-5.47,2.71-7.31c1.81-1.83,4.29-2.75,7.43-2.75c1.62,0,2.94,0.15,3.96,0.46   c1.02,0.31,2.07,0.73,3.15,1.26v4.54h-0.44c-0.23-0.18-0.57-0.44-1.01-0.77c-0.44-0.33-0.87-0.62-1.28-0.85   c-0.49-0.28-1.05-0.52-1.69-0.72s-1.31-0.3-2.02-0.3c-0.83,0-1.59,0.13-2.28,0.39c-0.69,0.26-1.3,0.66-1.84,1.2   c-0.51,0.52-0.92,1.18-1.22,1.98c-0.3,0.8-0.45,1.73-0.45,2.79c0,2.27,0.57,3.94,1.71,5.01c1.14,1.08,2.69,1.62,4.66,1.62   c0.17,0,0.38,0,0.61-0.01c0.23-0.01,0.44-0.02,0.61-0.04v-3.8h-3.76v-3.63h8.48V74.13z"></path>
	<path class="st4" d="M69.01,75.23H58.56v-3.39h2.79V59.23h-2.79v-3.39h10.44v3.39h-2.79v12.62h2.79V75.23z"></path>
	<path class="st4" d="M88.85,75.23h-4.69l-7.47-13.52v13.52h-4.45V55.84h5.98l6.19,11.11V55.84h4.45V75.23z"></path>
	<path class="st4" d="M92.78,75.23V55.84h13.11v3.7h-8.27v3.4h7.62v3.7h-7.62v4.9h8.27v3.7H92.78z"></path>
	<path class="st4" d="M109.19,75.23V55.84h13.11v3.7h-8.27v3.4h7.62v3.7h-7.62v4.9h8.27v3.7H109.19z"></path>
	<path class="st4" d="M125.6,75.23V55.84h13.11v3.7h-8.27v3.4h7.62v3.7h-7.62v4.9h8.27v3.7H125.6z"></path>
	<path class="st4" d="M159.94,75.23H154l-5.4-7.11h-1.75v7.11h-4.84V55.84h7.8c1.08,0,2.01,0.07,2.81,0.2   c0.8,0.13,1.54,0.41,2.21,0.84c0.69,0.44,1.25,1,1.65,1.69s0.61,1.55,0.61,2.6c0,1.48-0.33,2.69-1,3.61   c-0.67,0.92-1.56,1.66-2.68,2.21L159.94,75.23z M152.1,61.78c0-0.49-0.09-0.91-0.28-1.26s-0.5-0.62-0.93-0.81   c-0.3-0.13-0.64-0.21-1.02-0.25c-0.37-0.03-0.84-0.05-1.39-0.05h-1.63v5.22h1.39c0.68,0,1.25-0.04,1.73-0.12s0.87-0.26,1.2-0.53   c0.31-0.24,0.54-0.53,0.7-0.87S152.1,62.33,152.1,61.78z"></path>
	<path class="st4" d="M171.03,75.23h-10.44v-3.39h2.79V59.23h-2.79v-3.39h10.44v3.39h-2.79v12.62h2.79V75.23z"></path>
	<path class="st4" d="M190.88,75.23h-4.69l-7.47-13.52v13.52h-4.45V55.84h5.98l6.19,11.11V55.84h4.45V75.23z"></path>
	<path class="st4" d="M211.01,74.13c-0.85,0.35-1.96,0.69-3.31,1.02c-1.36,0.33-2.7,0.49-4.02,0.49c-3.05,0-5.48-0.88-7.29-2.64   s-2.71-4.25-2.71-7.48c0-3.04,0.9-5.47,2.71-7.31c1.81-1.83,4.29-2.75,7.43-2.75c1.62,0,2.94,0.15,3.96,0.46   c1.02,0.31,2.07,0.73,3.15,1.26v4.54h-0.44c-0.23-0.18-0.57-0.44-1.01-0.77c-0.44-0.33-0.87-0.62-1.28-0.85   c-0.49-0.28-1.05-0.52-1.69-0.72s-1.31-0.3-2.02-0.3c-0.83,0-1.59,0.13-2.28,0.39c-0.69,0.26-1.3,0.66-1.84,1.2   c-0.51,0.52-0.92,1.18-1.22,1.98c-0.3,0.8-0.45,1.73-0.45,2.79c0,2.27,0.57,3.94,1.71,5.01c1.14,1.08,2.69,1.62,4.66,1.62   c0.17,0,0.38,0,0.61-0.01c0.23-0.01,0.44-0.02,0.61-0.04v-3.8h-3.76v-3.63h8.48V74.13z"></path>
	<path class="st4" d="M219.94,70.12l-4.56,9.94h-2.77l2.56-9.94H219.94z"></path>
	<path class="st4" d="M243.81,59.54h-8.14v3.66h7.49v3.7h-7.49v8.33h-4.84V55.84h12.98V59.54z"></path>
	<path class="st4" d="M244.24,75.23l6.55-19.39h5.31l6.55,19.39h-5.01l-1.21-3.96h-6.09l-1.21,3.96H244.24z M255.36,67.76   l-1.98-6.39l-1.98,6.39H255.36z"></path>
	<path class="st4" d="M280.09,69.3c0,0.96-0.18,1.81-0.55,2.54c-0.36,0.73-0.86,1.33-1.47,1.81c-0.73,0.57-1.53,0.98-2.4,1.22   s-1.98,0.36-3.33,0.36h-7.76V55.84h6.85c1.42,0,2.5,0.05,3.24,0.16c0.73,0.11,1.42,0.34,2.06,0.68c0.69,0.37,1.21,0.87,1.56,1.5   s0.51,1.35,0.51,2.16c0,0.95-0.24,1.79-0.71,2.53s-1.13,1.28-1.96,1.63v0.1c1.2,0.25,2.16,0.77,2.88,1.54   C279.73,66.93,280.09,67.98,280.09,69.3z M273.85,61.33c0-0.31-0.08-0.63-0.24-0.96s-0.41-0.57-0.75-0.72   c-0.32-0.14-0.7-0.21-1.14-0.23c-0.44-0.01-1.09-0.02-1.96-0.02h-0.34v4.1h0.61c0.83,0,1.42-0.01,1.75-0.03   c0.33-0.02,0.68-0.11,1.04-0.27c0.39-0.18,0.66-0.43,0.81-0.76S273.85,61.75,273.85,61.33z M275.08,69.2c0-0.6-0.12-1.07-0.36-1.41   c-0.24-0.34-0.61-0.59-1.09-0.77c-0.29-0.11-0.7-0.18-1.22-0.19c-0.52-0.01-1.21-0.02-2.08-0.02h-0.9v4.86h0.26   c1.27,0,2.14-0.01,2.63-0.03c0.49-0.02,0.98-0.13,1.48-0.35c0.44-0.19,0.77-0.47,0.97-0.84C274.98,70.09,275.08,69.67,275.08,69.2z   "></path>
	<path class="st4" d="M300.81,75.23h-5.94l-5.4-7.11h-1.75v7.11h-4.84V55.84h7.8c1.08,0,2.01,0.07,2.81,0.2   c0.8,0.13,1.54,0.41,2.21,0.84c0.69,0.44,1.25,1,1.65,1.69s0.61,1.55,0.61,2.6c0,1.48-0.33,2.69-1,3.61   c-0.67,0.92-1.56,1.66-2.68,2.21L300.81,75.23z M292.97,61.78c0-0.49-0.09-0.91-0.28-1.26s-0.5-0.62-0.93-0.81   c-0.3-0.13-0.64-0.21-1.02-0.25c-0.37-0.03-0.84-0.05-1.39-0.05h-1.63v5.22h1.39c0.68,0,1.25-0.04,1.73-0.12s0.87-0.26,1.2-0.53   c0.31-0.24,0.54-0.53,0.7-0.87S292.97,62.33,292.97,61.78z"></path>
	<path class="st4" d="M311.91,75.23h-10.44v-3.39h2.79V59.23h-2.79v-3.39h10.44v3.39h-2.79v12.62h2.79V75.23z"></path>
	<path class="st4" d="M323.49,75.61c-2.91,0-5.22-0.88-6.93-2.64c-1.71-1.76-2.57-4.23-2.57-7.42c0-3.07,0.86-5.52,2.57-7.35   c1.71-1.83,4.03-2.74,6.93-2.74c0.77,0,1.47,0.04,2.08,0.13c0.62,0.09,1.21,0.21,1.77,0.36c0.44,0.13,0.92,0.31,1.45,0.53   c0.52,0.23,0.94,0.42,1.26,0.59v4.62h-0.49c-0.24-0.21-0.53-0.46-0.89-0.75c-0.36-0.29-0.76-0.57-1.21-0.85   c-0.45-0.28-0.95-0.51-1.49-0.71c-0.54-0.2-1.11-0.29-1.7-0.29c-0.7,0-1.35,0.11-1.93,0.33c-0.59,0.22-1.14,0.61-1.67,1.15   c-0.49,0.5-0.88,1.16-1.19,2.01c-0.31,0.84-0.46,1.84-0.46,2.98c0,1.21,0.16,2.22,0.48,3.04c0.32,0.82,0.74,1.48,1.26,1.99   c0.5,0.49,1.07,0.84,1.69,1.05c0.62,0.22,1.24,0.33,1.86,0.33c0.64,0,1.25-0.11,1.84-0.32c0.58-0.21,1.07-0.45,1.47-0.71   c0.43-0.27,0.82-0.54,1.15-0.82s0.62-0.53,0.86-0.74h0.44v4.56c-0.36,0.17-0.77,0.35-1.24,0.57s-0.95,0.39-1.45,0.54   c-0.61,0.18-1.18,0.32-1.71,0.42C325.15,75.56,324.42,75.61,323.49,75.61z"></path>
	<path class="st4" d="M330.85,75.23l6.55-19.39h5.31l6.55,19.39h-5.01l-1.21-3.96h-6.09l-1.21,3.96H330.85z M341.97,67.76   l-1.98-6.39l-1.98,6.39H341.97z"></path>
	<path class="st4" d="M354.92,75.23V59.54h-5.73v-3.7h16.33v3.7h-5.73v15.69H354.92z"></path>
	<path class="st4" d="M377.19,75.23h-10.44v-3.39h2.79V59.23h-2.79v-3.39h10.44v3.39h-2.79v12.62h2.79V75.23z"></path>
	<path class="st4" d="M398.07,65.54c0,3.13-0.84,5.6-2.51,7.4c-1.68,1.8-3.97,2.7-6.89,2.7c-2.93,0-5.22-0.91-6.89-2.73   c-1.67-1.82-2.5-4.27-2.5-7.36c0-3.12,0.83-5.58,2.5-7.39c1.67-1.81,3.96-2.72,6.89-2.72c2.92,0,5.21,0.9,6.89,2.7   C397.23,59.94,398.07,62.41,398.07,65.54z M393.05,65.53c0-1.15-0.12-2.14-0.36-2.95c-0.24-0.81-0.56-1.48-0.96-2   c-0.42-0.53-0.89-0.91-1.41-1.14s-1.07-0.35-1.63-0.35c-0.6,0-1.14,0.11-1.63,0.32c-0.49,0.21-0.96,0.59-1.41,1.14   c-0.4,0.5-0.72,1.17-0.97,2.01c-0.25,0.83-0.37,1.83-0.37,2.98c0,1.19,0.12,2.18,0.35,2.96c0.23,0.79,0.55,1.44,0.96,1.97   c0.42,0.54,0.89,0.92,1.42,1.15c0.53,0.23,1.08,0.34,1.64,0.34c0.57,0,1.13-0.12,1.67-0.37c0.54-0.25,1-0.63,1.39-1.15   c0.42-0.56,0.74-1.22,0.96-1.97S393.05,66.75,393.05,65.53z"></path>
	<path class="st4" d="M417.57,75.23h-4.69l-7.47-13.52v13.52h-4.45V55.84h5.98l6.19,11.11V55.84h4.45V75.23z"></path>
	<path class="st4" d="M426.76,70.12l-4.56,9.94h-2.77l2.57-9.94H426.76z"></path>
	<path class="st4" d="M447.31,75.23h-10.44v-3.39h2.79V59.23h-2.79v-3.39h10.44v3.39h-2.79v12.62h2.79V75.23z"></path>
	<path class="st4" d="M467.15,75.23h-4.69l-7.47-13.52v13.52h-4.45V55.84h5.98l6.19,11.11V55.84h4.45V75.23z"></path>
	<path class="st4" d="M477.08,75.58c-1.48,0-2.79-0.14-3.91-0.43c-1.12-0.29-2.17-0.64-3.13-1.07v-4.61h0.44   c0.97,0.83,2.04,1.46,3.22,1.9c1.17,0.44,2.31,0.66,3.41,0.66c0.28,0,0.64-0.03,1.1-0.09s0.82-0.16,1.1-0.29   c0.34-0.15,0.63-0.35,0.86-0.62s0.35-0.61,0.35-1.05c0-0.49-0.19-0.88-0.57-1.18c-0.38-0.3-0.84-0.52-1.37-0.66   c-0.66-0.17-1.37-0.34-2.12-0.49s-1.45-0.35-2.1-0.57c-1.5-0.53-2.58-1.24-3.23-2.14c-0.65-0.89-0.98-2.01-0.98-3.36   c0-1.81,0.77-3.28,2.31-4.41c1.54-1.12,3.46-1.69,5.76-1.69c1.15,0,2.3,0.12,3.44,0.35s2.16,0.55,3.07,0.95v4.43h-0.43   c-0.72-0.62-1.6-1.14-2.64-1.56c-1.04-0.43-2.1-0.64-3.2-0.64c-0.43,0-0.81,0.03-1.15,0.09c-0.34,0.06-0.69,0.18-1.07,0.35   c-0.3,0.14-0.57,0.34-0.79,0.62c-0.22,0.27-0.33,0.58-0.33,0.92c0,0.49,0.18,0.89,0.53,1.18c0.35,0.29,1.03,0.55,2.04,0.79   c0.65,0.15,1.28,0.29,1.88,0.43s1.25,0.33,1.93,0.57c1.35,0.49,2.35,1.14,3,1.96c0.66,0.82,0.98,1.9,0.98,3.25   c0,1.93-0.76,3.48-2.27,4.65C481.7,75,479.65,75.58,477.08,75.58z"></path>
	<path class="st4" d="M491.7,75.23V59.54h-5.73v-3.7h16.33v3.7h-5.73v15.69H491.7z"></path>
	<path class="st4" d="M502.22,75.23l6.55-19.39h5.31l6.55,19.39h-5.01l-1.21-3.96h-6.09l-1.21,3.96H502.22z M513.34,67.76   l-1.98-6.39l-1.98,6.39H513.34z"></path>
	<path class="st4" d="M535.51,75.23h-12.94V55.84h4.87v15.69h8.07V75.23z"></path>
	<path class="st4" d="M550.77,75.23h-12.94V55.84h4.87v15.69h8.07V75.23z"></path>
	<path class="st4" d="M551,75.23l6.55-19.39h5.31l6.55,19.39h-5.01l-1.21-3.96h-6.09l-1.21,3.96H551z M562.12,67.76l-1.98-6.39   l-1.98,6.39H562.12z"></path>
	<path class="st4" d="M575.07,75.23V59.54h-5.73v-3.7h16.33v3.7h-5.73v15.69H575.07z"></path>
	<path class="st4" d="M597.33,75.23h-10.44v-3.39h2.79V59.23h-2.79v-3.39h10.44v3.39h-2.79v12.62h2.79V75.23z"></path>
	<path class="st4" d="M618.22,65.54c0,3.13-0.84,5.6-2.51,7.4c-1.68,1.8-3.97,2.7-6.89,2.7c-2.93,0-5.22-0.91-6.89-2.73   c-1.67-1.82-2.5-4.27-2.5-7.36c0-3.12,0.83-5.58,2.5-7.39c1.67-1.81,3.96-2.72,6.89-2.72c2.92,0,5.21,0.9,6.89,2.7   C617.38,59.94,618.22,62.41,618.22,65.54z M613.2,65.53c0-1.15-0.12-2.14-0.36-2.95c-0.24-0.81-0.56-1.48-0.96-2   c-0.42-0.53-0.89-0.91-1.41-1.14s-1.07-0.35-1.63-0.35c-0.6,0-1.14,0.11-1.63,0.32c-0.49,0.21-0.96,0.59-1.41,1.14   c-0.4,0.5-0.72,1.17-0.97,2.01c-0.25,0.83-0.37,1.83-0.37,2.98c0,1.19,0.12,2.18,0.35,2.96c0.23,0.79,0.55,1.44,0.96,1.97   c0.42,0.54,0.89,0.92,1.42,1.15c0.53,0.23,1.08,0.34,1.64,0.34c0.57,0,1.13-0.12,1.67-0.37c0.54-0.25,1-0.63,1.39-1.15   c0.42-0.56,0.74-1.22,0.96-1.97S613.2,66.75,613.2,65.53z"></path>
	<path class="st4" d="M637.72,75.23h-4.69l-7.47-13.52v13.52h-4.45V55.84h5.98l6.19,11.11V55.84h4.45V75.23z"></path>
</g>
<g id="TRACE_THERM" class="st0">
	<g class="st1">
		<path class="st5" d="M18.72,75.23V23.97H0V11.89h53.35v12.08H34.63v51.26H18.72z"></path>
		<path class="st5" d="M118.48,75.23h-19.4L81.42,52.01h-5.7v23.23H59.9V11.89h25.48c3.52,0,6.58,0.22,9.19,0.66    c2.61,0.44,5.02,1.35,7.23,2.74c2.27,1.45,4.07,3.28,5.4,5.51c1.33,2.23,2,5.06,2,8.49c0,4.85-1.09,8.78-3.28,11.8    c-2.18,3.02-5.1,5.42-8.76,7.21L118.48,75.23z M92.87,31.29c0-1.59-0.31-2.96-0.91-4.1c-0.61-1.15-1.62-2.03-3.04-2.66    c-0.99-0.43-2.1-0.69-3.32-0.81c-1.22-0.11-2.74-0.17-4.55-0.17h-5.32v17.06h4.55c2.21,0,4.09-0.13,5.64-0.4    c1.55-0.27,2.86-0.84,3.94-1.72c1.02-0.79,1.78-1.74,2.28-2.85C92.62,34.52,92.87,33.08,92.87,31.29z"></path>
		<path class="st5" d="M116.35,75.23l21.4-63.34h17.36l21.4,63.34h-16.38l-3.96-12.93h-19.91l-3.96,12.93H116.35z M152.68,50.81    l-6.47-20.89l-6.47,20.89H152.68z"></path>
		<path class="st5" d="M210.11,76.47c-9.5,0-17.04-2.87-22.63-8.61c-5.59-5.74-8.38-13.82-8.38-24.23c0-10.04,2.8-18.04,8.4-24.01    c5.6-5.97,13.15-8.95,22.65-8.95c2.52,0,4.79,0.14,6.81,0.43c2.01,0.28,3.94,0.68,5.79,1.19c1.45,0.43,3.02,1.01,4.72,1.74    c1.7,0.74,3.08,1.38,4.13,1.91v15.1h-1.62c-0.77-0.68-1.73-1.5-2.89-2.45c-1.16-0.95-2.48-1.88-3.96-2.79    c-1.48-0.91-3.1-1.68-4.87-2.32s-3.62-0.96-5.55-0.96c-2.3,0-4.4,0.36-6.32,1.08s-3.74,1.98-5.47,3.76    c-1.59,1.62-2.89,3.8-3.89,6.55c-1.01,2.75-1.51,6-1.51,9.74c0,3.94,0.52,7.25,1.57,9.93s2.43,4.84,4.13,6.49    c1.64,1.59,3.48,2.74,5.51,3.45c2.03,0.71,4.05,1.06,6.06,1.06c2.1,0,4.1-0.35,6-1.04c1.9-0.69,3.5-1.47,4.81-2.32    c1.42-0.88,2.67-1.77,3.74-2.68c1.08-0.91,2.01-1.72,2.81-2.42h1.45v14.89c-1.16,0.54-2.51,1.16-4.04,1.85    c-1.53,0.7-3.11,1.28-4.72,1.77c-1.99,0.6-3.84,1.05-5.57,1.36C215.53,76.31,213.14,76.47,210.11,76.47z"></path>
		<path class="st5" d="M240.95,75.23V11.89h42.84v12.08h-27.01v11.1h24.89v12.08h-24.89v16h27.01v12.08H240.95z"></path>
		<path class="st5" d="M320.89,53.2h-28.2V41.37h28.2V53.2z"></path>
		<path class="st5" d="M344.28,75.23V23.97h-18.72V11.89h53.35v12.08h-18.72v51.26H344.28z"></path>
		<path class="st5" d="M438.94,75.23h-15.91V47.16h-21.65v28.08h-15.91V11.89h15.91v23.18h21.65V11.89h15.91V75.23z"></path>
		<path class="st5" d="M452.04,75.23V11.89h42.84v12.08h-27.01v11.1h24.89v12.08h-24.89v16h27.01v12.08H452.04z"></path>
		<path class="st5" d="M564.22,75.23h-19.4l-17.65-23.23h-5.7v23.23h-15.82V11.89h25.48c3.52,0,6.58,0.22,9.19,0.66    c2.61,0.44,5.02,1.35,7.23,2.74c2.27,1.45,4.07,3.28,5.4,5.51c1.33,2.23,2,5.06,2,8.49c0,4.85-1.09,8.78-3.28,11.8    c-2.18,3.02-5.1,5.42-8.76,7.21L564.22,75.23z M538.61,31.29c0-1.59-0.31-2.96-0.92-4.1c-0.61-1.15-1.62-2.03-3.04-2.66    c-0.99-0.43-2.1-0.69-3.32-0.81c-1.22-0.11-2.74-0.17-4.55-0.17h-5.32v17.06h4.55c2.21,0,4.09-0.13,5.64-0.4    c1.55-0.27,2.86-0.84,3.94-1.72c1.02-0.79,1.78-1.74,2.28-2.85C538.36,34.52,538.61,33.08,538.61,31.29z"></path>
		<path class="st5" d="M633.6,75.23h-15.83V33.25l-11.53,27.1H595.4l-11.53-27.1v41.99H568.9V11.89h18.33l14.04,31.27l14-31.27    h18.33V75.23z"></path>
	</g>
	<g class="st1">
		<path class="st5" d="M637.98,22.76v-8.84h-2.92v-2.08h8.32v2.08h-2.92v8.84H637.98z"></path>
		<path class="st5" d="M654.5,22.76h-2.47v-7.24l-1.8,4.68h-1.69l-1.8-4.68v7.24h-2.34V11.84h2.86l2.19,5.39l2.18-5.39h2.86V22.76z"></path>
	</g>
</g>
<g id="POLY_THERM" class="st0">
	<g class="st1">
		<path class="st5" d="M83,31.88c0,2.95-0.47,5.76-1.4,8.42c-0.94,2.67-2.28,4.89-4.04,6.68c-1.08,1.11-2.26,2.13-3.55,3.06    c-1.29,0.94-2.72,1.73-4.28,2.38c-1.56,0.65-3.25,1.16-5.08,1.53c-1.83,0.37-3.88,0.55-6.15,0.55h-8.34v20.72H34.25V11.89h24.59    c3.66,0,6.81,0.33,9.47,1c2.65,0.67,5.06,1.72,7.21,3.17c2.38,1.59,4.23,3.71,5.53,6.36C82.34,25.07,83,28.23,83,31.88z     M66.66,32.27c0-1.79-0.43-3.32-1.28-4.62c-0.85-1.29-1.87-2.18-3.06-2.66c-1.5-0.65-2.94-1.03-4.32-1.13    c-1.38-0.1-3.24-0.15-5.59-0.15h-2.25v18.97h1.11c1.5,0,2.92-0.01,4.25-0.04c1.33-0.03,2.5-0.13,3.49-0.3    c0.85-0.14,1.75-0.42,2.7-0.83c0.95-0.41,1.68-0.87,2.19-1.38c1.08-1.05,1.81-2.14,2.19-3.28S66.66,34.2,66.66,32.27z"></path>
		<path class="st5" d="M149.19,43.58c0,10.24-2.74,18.29-8.21,24.16c-5.47,5.87-12.98,8.81-22.5,8.81c-9.56,0-17.06-2.97-22.5-8.91    c-5.45-5.94-8.17-13.96-8.17-24.06c0-10.18,2.72-18.23,8.17-24.14c5.45-5.91,12.95-8.87,22.5-8.87c9.53,0,17.03,2.94,22.5,8.83    C146.45,25.28,149.19,33.35,149.19,43.58z M132.77,43.54c0-3.77-0.39-6.98-1.17-9.64c-0.78-2.65-1.82-4.83-3.13-6.53    c-1.36-1.73-2.9-2.97-4.62-3.72c-1.72-0.75-3.5-1.13-5.34-1.13c-1.96,0-3.73,0.35-5.32,1.04c-1.59,0.69-3.12,1.94-4.59,3.72    c-1.31,1.65-2.36,3.83-3.17,6.55s-1.21,5.97-1.21,9.74c0,3.89,0.38,7.11,1.15,9.68c0.77,2.57,1.81,4.72,3.15,6.44    c1.36,1.76,2.91,3.01,4.64,3.76c1.73,0.75,3.52,1.13,5.36,1.13c1.87,0,3.69-0.4,5.45-1.21c1.76-0.81,3.28-2.06,4.55-3.76    c1.36-1.84,2.41-3.99,3.15-6.45C132.4,50.72,132.77,47.51,132.77,43.54z"></path>
		<path class="st5" d="M200.88,75.23h-42.29V11.89h15.91v51.26h26.38V75.23z"></path>
		<path class="st5" d="M261.12,11.89l-21.87,36.88v26.46h-15.91V49.58l-22.25-37.69h18.12l12.42,22.63l11.95-22.63H261.12z"></path>
		<path class="st5" d="M293.19,53.2h-28.2V41.37h28.2V53.2z"></path>
		<path class="st5" d="M316.59,75.23V23.97h-18.72V11.89h53.35v12.08H332.5v51.26H316.59z"></path>
		<path class="st5" d="M411.24,75.23h-15.91V47.16h-21.65v28.08h-15.91V11.89h15.91v23.18h21.65V11.89h15.91V75.23z"></path>
		<path class="st5" d="M424.34,75.23V11.89h42.84v12.08h-27.01v11.1h24.89v12.08h-24.89v16h27.01v12.08H424.34z"></path>
		<path class="st5" d="M536.52,75.23h-19.4l-17.65-23.23h-5.7v23.23h-15.82V11.89h25.48c3.52,0,6.58,0.22,9.19,0.66    c2.61,0.44,5.02,1.35,7.23,2.74c2.27,1.45,4.07,3.28,5.4,5.51c1.33,2.23,2,5.06,2,8.49c0,4.85-1.09,8.78-3.28,11.8    c-2.18,3.02-5.1,5.42-8.76,7.21L536.52,75.23z M510.91,31.29c0-1.59-0.31-2.96-0.92-4.1c-0.61-1.15-1.62-2.03-3.04-2.66    c-0.99-0.43-2.1-0.69-3.32-0.81c-1.22-0.11-2.74-0.17-4.55-0.17h-5.32v17.06h4.55c2.21,0,4.09-0.13,5.64-0.4    c1.55-0.27,2.86-0.84,3.94-1.72c1.02-0.79,1.78-1.74,2.28-2.85C510.67,34.52,510.91,33.08,510.91,31.29z"></path>
		<path class="st5" d="M605.91,75.23h-15.83V33.25l-11.53,27.1h-10.85l-11.53-27.1v41.99H541.2V11.89h18.33l14.04,31.27l14-31.27    h18.33V75.23z"></path>
	</g>
	<g class="st1">
		<path class="st6" d="M617.58,12.65c0.89,0.5,1.59,1.22,2.09,2.13c0.5,0.92,0.75,1.98,0.75,3.18c0,1.18-0.25,2.24-0.75,3.16    c-0.5,0.92-1.2,1.65-2.1,2.17c-0.9,0.52-1.93,0.78-3.09,0.78c-1.16,0-2.19-0.26-3.09-0.78c-0.9-0.52-1.6-1.24-2.1-2.17    c-0.5-0.92-0.75-1.98-0.75-3.16c0-1.2,0.25-2.27,0.75-3.18c0.5-0.92,1.2-1.63,2.09-2.13c0.9-0.5,1.93-0.76,3.1-0.76    C615.65,11.89,616.69,12.14,617.58,12.65z M617.33,22.76c0.81-0.45,1.43-1.09,1.87-1.92c0.44-0.83,0.65-1.78,0.65-2.88    c0-1.11-0.22-2.09-0.65-2.94c-0.44-0.84-1.06-1.49-1.87-1.95c-0.81-0.46-1.76-0.69-2.85-0.69c-1.09,0-2.04,0.23-2.86,0.69    c-0.82,0.46-1.44,1.11-1.88,1.95c-0.44,0.84-0.65,1.82-0.65,2.94c0,1.09,0.22,2.05,0.65,2.88c0.44,0.83,1.06,1.47,1.88,1.92    c0.81,0.45,1.77,0.68,2.86,0.68C615.58,23.44,616.52,23.21,617.33,22.76z M616.89,17.55c-0.39,0.38-0.94,0.6-1.68,0.65l2.25,3.39    h-0.93l-2.2-3.37h-1.31v3.37h-0.83v-7.71h2.62c0.88,0,1.55,0.2,1.99,0.59c0.44,0.39,0.66,0.91,0.66,1.57    C617.46,16.67,617.27,17.18,616.89,17.55z M616.6,16.12c0-0.48-0.14-0.85-0.43-1.1c-0.29-0.25-0.76-0.38-1.43-0.38h-1.72v2.98    h1.72C615.98,17.62,616.6,17.12,616.6,16.12z"></path>
	</g>
</g>
<g id="HI_GARD" class="st0">
	<g class="st1">
		<path class="st7" d="M180.08,75.23h-15.91V47.16h-21.65v28.08H126.6V11.89h15.91v23.18h21.65V11.89h15.91V75.23z"></path>
		<path class="st7" d="M224.74,75.23h-34.12V64.17h9.1V22.95h-9.1V11.89h34.12v11.06h-9.1v41.22h9.1V75.23z"></path>
		<path class="st7" d="M261.63,53.2h-28.2V41.37h28.2V53.2z"></path>
		<path class="st7" d="M325.78,71.62c-2.78,1.13-6.39,2.24-10.83,3.32c-4.44,1.08-8.81,1.62-13.12,1.62    c-9.95,0-17.89-2.87-23.8-8.61c-5.91-5.74-8.87-13.89-8.87-24.44c0-9.93,2.96-17.88,8.87-23.87c5.91-5.98,14-8.98,24.27-8.98    c5.3,0,9.61,0.5,12.93,1.51c3.32,1.01,6.75,2.38,10.29,4.11v14.85h-1.45c-0.77-0.6-1.87-1.44-3.3-2.53    c-1.43-1.09-2.83-2.02-4.19-2.79c-1.59-0.91-3.42-1.69-5.51-2.34c-2.08-0.65-4.29-0.98-6.61-0.98c-2.72,0-5.2,0.43-7.44,1.28    c-2.24,0.85-4.24,2.16-6,3.91c-1.67,1.7-3,3.86-3.98,6.47c-0.98,2.61-1.47,5.64-1.47,9.1c0,7.4,1.86,12.86,5.57,16.38    c3.71,3.52,8.79,5.27,15.23,5.27c0.57,0,1.23-0.01,2-0.04c0.77-0.03,1.43-0.07,2-0.13V52.3h-12.29V40.44h27.69V71.62z"></path>
		<path class="st7" d="M330.97,75.23l21.4-63.34h17.36l21.4,63.34h-16.38l-3.96-12.93h-19.91l-3.96,12.93H330.97z M367.3,50.81    l-6.47-20.89l-6.47,20.89H367.3z"></path>
		<path class="st7" d="M455.99,75.23h-19.4l-17.65-23.23h-5.7v23.23h-15.82V11.89h25.48c3.52,0,6.58,0.22,9.19,0.66    c2.61,0.44,5.02,1.35,7.23,2.74c2.27,1.45,4.07,3.28,5.4,5.51c1.33,2.23,2,5.06,2,8.49c0,4.85-1.09,8.78-3.28,11.8    c-2.18,3.02-5.1,5.42-8.76,7.21L455.99,75.23z M430.39,31.29c0-1.59-0.31-2.96-0.92-4.1c-0.61-1.15-1.62-2.03-3.04-2.66    c-0.99-0.43-2.1-0.69-3.32-0.81c-1.22-0.11-2.74-0.17-4.55-0.17h-5.32v17.06h4.55c2.21,0,4.09-0.13,5.64-0.4    c1.55-0.27,2.86-0.84,3.94-1.72c1.02-0.79,1.78-1.74,2.28-2.85C430.14,34.52,430.39,33.08,430.39,31.29z"></path>
		<path class="st7" d="M517.25,43.63c0,5.9-1.29,11.18-3.87,15.85c-2.58,4.67-5.84,8.25-9.78,10.74c-3.29,2.13-6.87,3.5-10.74,4.11    c-3.87,0.61-7.99,0.92-12.36,0.92h-19.82V11.89h19.65c4.45,0,8.62,0.28,12.51,0.85s7.53,1.94,10.93,4.13    c4.17,2.67,7.46,6.26,9.87,10.78C516.05,32.18,517.25,37.5,517.25,43.63z M500.92,43.5c0-4.17-0.72-7.74-2.15-10.7    c-1.43-2.96-3.64-5.28-6.62-6.96c-2.16-1.19-4.42-1.84-6.79-1.96c-2.37-0.11-5.2-0.17-8.49-0.17h-0.3v39.65h0.3    c3.57,0,6.59-0.06,9.04-0.19c2.45-0.13,4.79-0.89,7-2.28c2.61-1.64,4.59-3.91,5.96-6.81C500.24,51.2,500.92,47.67,500.92,43.5z"></path>
	</g>
	<g class="st1">
		<path class="st7" d="M519.03,24.35v-8h-2.92v-1.88h8.32v1.88h-2.92v8H519.03z"></path>
		<path class="st7" d="M535.55,24.35h-2.47v-6.55l-1.8,4.23h-1.69l-1.8-4.23v6.55h-2.34v-9.88h2.86l2.19,4.88l2.18-4.88h2.86V24.35z    "></path>
	</g>
</g>
<g id="CRYO_THERM" class="st0">
	<g class="st1">
		<path class="st7" d="M54.41,76.47c-9.5,0-17.04-2.87-22.63-8.61c-5.59-5.74-8.38-13.82-8.38-24.23c0-10.04,2.8-18.04,8.4-24.01    c5.6-5.97,13.15-8.95,22.65-8.95c2.52,0,4.79,0.14,6.81,0.43c2.01,0.28,3.94,0.68,5.79,1.19c1.45,0.43,3.02,1.01,4.72,1.74    c1.7,0.74,3.08,1.38,4.13,1.91v15.1h-1.62c-0.77-0.68-1.73-1.5-2.89-2.45c-1.16-0.95-2.48-1.88-3.96-2.79    c-1.48-0.91-3.1-1.68-4.87-2.32s-3.62-0.96-5.55-0.96c-2.3,0-4.4,0.36-6.32,1.08s-3.74,1.98-5.47,3.76    c-1.59,1.62-2.89,3.8-3.89,6.55c-1.01,2.75-1.51,6-1.51,9.74c0,3.94,0.52,7.25,1.57,9.93s2.43,4.84,4.13,6.49    c1.64,1.59,3.48,2.74,5.51,3.45c2.03,0.71,4.05,1.06,6.06,1.06c2.1,0,4.1-0.35,6-1.04c1.9-0.69,3.5-1.47,4.81-2.32    c1.42-0.88,2.67-1.77,3.74-2.68c1.08-0.91,2.01-1.72,2.81-2.42h1.45v14.89c-1.16,0.54-2.51,1.16-4.04,1.85    c-1.53,0.7-3.11,1.28-4.72,1.77c-1.99,0.6-3.84,1.05-5.57,1.36C59.83,76.31,57.44,76.47,54.41,76.47z"></path>
		<path class="st7" d="M143.83,75.23h-19.4l-17.65-23.23h-5.7v23.23H85.25V11.89h25.48c3.52,0,6.58,0.22,9.19,0.66    c2.61,0.44,5.02,1.35,7.23,2.74c2.27,1.45,4.07,3.28,5.4,5.51c1.33,2.23,2,5.06,2,8.49c0,4.85-1.09,8.78-3.28,11.8    c-2.18,3.02-5.1,5.42-8.76,7.21L143.83,75.23z M118.22,31.29c0-1.59-0.31-2.96-0.91-4.1c-0.61-1.15-1.62-2.03-3.04-2.66    c-0.99-0.43-2.1-0.69-3.32-0.81c-1.22-0.11-2.74-0.17-4.55-0.17h-5.32v17.06h4.55c2.21,0,4.09-0.13,5.64-0.4    c1.55-0.27,2.86-0.84,3.94-1.72c1.02-0.79,1.78-1.74,2.28-2.85C117.97,34.52,118.22,33.08,118.22,31.29z"></path>
		<path class="st7" d="M201.18,11.89l-21.87,36.88v26.46H163.4V49.58l-22.25-37.69h18.12l12.42,22.63l11.95-22.63H201.18z"></path>
		<path class="st7" d="M264.6,43.58c0,10.24-2.74,18.29-8.21,24.16c-5.47,5.87-12.98,8.81-22.5,8.81c-9.56,0-17.06-2.97-22.5-8.91    c-5.45-5.94-8.17-13.96-8.17-24.06c0-10.18,2.72-18.23,8.17-24.14c5.45-5.91,12.95-8.87,22.5-8.87c9.53,0,17.03,2.94,22.5,8.83    C261.87,25.28,264.6,33.35,264.6,43.58z M248.18,43.54c0-3.77-0.39-6.98-1.17-9.64c-0.78-2.65-1.82-4.83-3.13-6.53    c-1.36-1.73-2.9-2.97-4.62-3.72c-1.72-0.75-3.5-1.13-5.34-1.13c-1.96,0-3.73,0.35-5.32,1.04c-1.59,0.69-3.12,1.94-4.59,3.72    c-1.31,1.65-2.36,3.83-3.17,6.55s-1.21,5.97-1.21,9.74c0,3.89,0.38,7.11,1.15,9.68c0.77,2.57,1.81,4.72,3.15,6.44    c1.36,1.76,2.91,3.01,4.64,3.76c1.73,0.75,3.52,1.13,5.36,1.13c1.87,0,3.69-0.4,5.45-1.21c1.76-0.81,3.28-2.06,4.55-3.76    c1.36-1.84,2.41-3.99,3.15-6.45C247.81,50.72,248.18,47.51,248.18,43.54z"></path>
		<path class="st7" d="M300.34,53.2h-28.2V41.37h28.2V53.2z"></path>
		<path class="st7" d="M323.73,75.23V23.97h-18.72V11.89h53.35v12.08h-18.72v51.26H323.73z"></path>
		<path class="st7" d="M418.39,75.23h-15.91V47.16h-21.65v28.08h-15.91V11.89h15.91v23.18h21.65V11.89h15.91V75.23z"></path>
		<path class="st7" d="M431.49,75.23V11.89h42.84v12.08h-27.01v11.1h24.89v12.08h-24.89v16h27.01v12.08H431.49z"></path>
		<path class="st7" d="M543.67,75.23h-19.4l-17.65-23.23h-5.7v23.23h-15.82V11.89h25.48c3.52,0,6.58,0.22,9.19,0.66    c2.61,0.44,5.02,1.35,7.23,2.74c2.27,1.45,4.07,3.28,5.4,5.51c1.33,2.23,2,5.06,2,8.49c0,4.85-1.09,8.78-3.28,11.8    c-2.18,3.02-5.1,5.42-8.76,7.21L543.67,75.23z M518.06,31.29c0-1.59-0.31-2.96-0.92-4.1c-0.61-1.15-1.62-2.03-3.04-2.66    c-0.99-0.43-2.1-0.69-3.32-0.81c-1.22-0.11-2.74-0.17-4.55-0.17h-5.32v17.06h4.55c2.21,0,4.09-0.13,5.64-0.4    c1.55-0.27,2.86-0.84,3.94-1.72c1.02-0.79,1.78-1.74,2.28-2.85C517.81,34.52,518.06,33.08,518.06,31.29z"></path>
		<path class="st7" d="M613.06,75.23h-15.83V33.25l-11.53,27.1h-10.85l-11.53-27.1v41.99h-14.97V11.89h18.33l14.04,31.27l14-31.27    h18.33V75.23z"></path>
	</g>
	<g class="st1">
		<path class="st7" d="M618.38,21.5v-8h-2.92v-1.88h8.32v1.88h-2.92v8H618.38z"></path>
		<path class="st7" d="M634.89,21.5h-2.47v-6.55l-1.8,4.23h-1.69l-1.8-4.23v6.55h-2.34v-9.88h2.86l2.19,4.88l2.18-4.88h2.86V21.5z"></path>
	</g>
</g>
<g id="PVC_THERM" class="st0">
	<g class="st1">
		<path class="st7" d="M112.2,31.88c0,2.95-0.47,5.76-1.4,8.42c-0.94,2.67-2.28,4.89-4.04,6.68c-1.08,1.11-2.26,2.13-3.55,3.06    c-1.29,0.94-2.72,1.73-4.28,2.38c-1.56,0.65-3.25,1.16-5.08,1.53c-1.83,0.37-3.88,0.55-6.15,0.55h-8.34v20.72H63.45V11.89h24.59    c3.66,0,6.81,0.33,9.47,1c2.65,0.67,5.06,1.72,7.21,3.17c2.38,1.59,4.23,3.71,5.53,6.36C111.55,25.07,112.2,28.23,112.2,31.88z     M95.87,32.27c0-1.79-0.43-3.32-1.28-4.62c-0.85-1.29-1.87-2.18-3.06-2.66c-1.5-0.65-2.94-1.03-4.32-1.13    c-1.38-0.1-3.24-0.15-5.59-0.15h-2.25v18.97h1.11c1.5,0,2.92-0.01,4.25-0.04c1.33-0.03,2.5-0.13,3.49-0.3    c0.85-0.14,1.75-0.42,2.7-0.83c0.95-0.41,1.68-0.87,2.19-1.38c1.08-1.05,1.81-2.14,2.19-3.28S95.87,34.2,95.87,32.27z"></path>
		<path class="st7" d="M173.63,11.89l-21.78,63.34h-16.59l-21.78-63.34h16.51l13.78,42.92l13.78-42.92H173.63z"></path>
		<path class="st7" d="M206.81,76.47c-9.5,0-17.04-2.87-22.63-8.61c-5.59-5.74-8.38-13.82-8.38-24.23c0-10.04,2.8-18.04,8.4-24.01    c5.6-5.97,13.15-8.95,22.65-8.95c2.52,0,4.79,0.14,6.81,0.43c2.01,0.28,3.94,0.68,5.79,1.19c1.45,0.43,3.02,1.01,4.72,1.74    c1.7,0.74,3.08,1.38,4.13,1.91v15.1h-1.62c-0.77-0.68-1.73-1.5-2.89-2.45c-1.16-0.95-2.48-1.88-3.96-2.79    c-1.48-0.91-3.1-1.68-4.87-2.32s-3.62-0.96-5.55-0.96c-2.3,0-4.4,0.36-6.32,1.08s-3.74,1.98-5.47,3.76    c-1.59,1.62-2.89,3.8-3.89,6.55c-1.01,2.75-1.51,6-1.51,9.74c0,3.94,0.52,7.25,1.57,9.93s2.43,4.84,4.13,6.49    c1.64,1.59,3.48,2.74,5.51,3.45c2.03,0.71,4.05,1.06,6.06,1.06c2.1,0,4.1-0.35,6-1.04c1.9-0.69,3.5-1.47,4.81-2.32    c1.42-0.88,2.67-1.77,3.74-2.68c1.08-0.91,2.01-1.72,2.81-2.42h1.45v14.89c-1.16,0.54-2.51,1.16-4.04,1.85    c-1.53,0.7-3.11,1.28-4.72,1.77c-1.99,0.6-3.84,1.05-5.57,1.36C212.23,76.31,209.85,76.47,206.81,76.47z"></path>
		<path class="st7" d="M263.99,53.2h-28.2V41.37h28.2V53.2z"></path>
		<path class="st7" d="M287.38,75.23V23.97h-18.72V11.89h53.35v12.08h-18.72v51.26H287.38z"></path>
		<path class="st7" d="M382.04,75.23h-15.91V47.16h-21.65v28.08h-15.91V11.89h15.91v23.18h21.65V11.89h15.91V75.23z"></path>
		<path class="st7" d="M395.14,75.23V11.89h42.84v12.08h-27.01v11.1h24.89v12.08h-24.89v16h27.01v12.08H395.14z"></path>
		<path class="st7" d="M507.32,75.23h-19.4l-17.65-23.23h-5.7v23.23h-15.82V11.89h25.48c3.52,0,6.58,0.22,9.19,0.66    c2.61,0.44,5.02,1.35,7.23,2.74c2.27,1.45,4.07,3.28,5.4,5.51c1.33,2.23,2,5.06,2,8.49c0,4.85-1.09,8.78-3.28,11.8    c-2.18,3.02-5.1,5.42-8.76,7.21L507.32,75.23z M481.71,31.29c0-1.59-0.31-2.96-0.92-4.1c-0.61-1.15-1.62-2.03-3.04-2.66    c-0.99-0.43-2.1-0.69-3.32-0.81c-1.22-0.11-2.74-0.17-4.55-0.17h-5.32v17.06h4.55c2.21,0,4.09-0.13,5.64-0.4    c1.55-0.27,2.86-0.84,3.94-1.72c1.02-0.79,1.78-1.74,2.28-2.85C481.46,34.52,481.71,33.08,481.71,31.29z"></path>
		<path class="st7" d="M576.7,75.23h-15.83V33.25l-11.53,27.1H538.5l-11.53-27.1v41.99H512V11.89h18.33l14.04,31.27l14-31.27h18.33    V75.23z"></path>
	</g>
	<g class="st1">
		<path class="st7" d="M583.03,22v-8.5h-2.92v-2h8.32v2h-2.92V22H583.03z"></path>
		<path class="st7" d="M599.55,22h-2.47v-6.96l-1.8,4.49h-1.69l-1.8-4.49V22h-2.34v-10.5h2.86l2.19,5.18l2.18-5.18h2.86V22z"></path>
	</g>
</g>
<g id="ENI_GARD" class="st0">
	<g class="st1">
		<path class="st8" d="M99.52,75.23V11.89h42.84v12.08h-27.01v11.1h24.89v12.08h-24.89v16h27.01v12.08H99.52z"></path>
		<path class="st8" d="M207.41,75.23h-15.31l-24.42-44.16v44.16h-14.55V11.89h19.53l20.21,36.29V11.89h14.55V75.23z"></path>
		<path class="st8" d="M251.82,75.23H217.7V64.17h9.1V22.95h-9.1V11.89h34.12v11.06h-9.1v41.22h9.1V75.23z"></path>
		<path class="st8" d="M288.7,53.2h-28.2V41.37h28.2V53.2z"></path>
		<path class="st8" d="M352.85,71.62c-2.78,1.13-6.39,2.24-10.83,3.32c-4.44,1.08-8.81,1.62-13.12,1.62    c-9.95,0-17.89-2.87-23.8-8.61c-5.91-5.74-8.87-13.89-8.87-24.44c0-9.93,2.96-17.88,8.87-23.87c5.91-5.98,14-8.98,24.27-8.98    c5.3,0,9.61,0.5,12.93,1.51c3.32,1.01,6.75,2.38,10.29,4.11v14.85h-1.45c-0.77-0.6-1.87-1.44-3.3-2.53    c-1.43-1.09-2.83-2.02-4.19-2.79c-1.59-0.91-3.42-1.69-5.51-2.34c-2.08-0.65-4.29-0.98-6.62-0.98c-2.72,0-5.21,0.43-7.44,1.28    c-2.24,0.85-4.24,2.16-6,3.91c-1.67,1.7-3,3.86-3.98,6.47c-0.98,2.61-1.47,5.64-1.47,9.1c0,7.4,1.86,12.86,5.57,16.38    c3.71,3.52,8.79,5.27,15.23,5.27c0.57,0,1.23-0.01,2-0.04c0.77-0.03,1.43-0.07,2-0.13V52.3h-12.29V40.44h27.69V71.62z"></path>
		<path class="st8" d="M358.04,75.23l21.4-63.34h17.36l21.4,63.34h-16.38l-3.96-12.93h-19.91L374,75.23H358.04z M394.37,50.81    l-6.47-20.89l-6.47,20.89H394.37z"></path>
		<path class="st8" d="M483.07,75.23h-19.4l-17.65-23.23h-5.7v23.23h-15.82V11.89h25.48c3.52,0,6.58,0.22,9.19,0.66    c2.61,0.44,5.02,1.35,7.23,2.74c2.27,1.45,4.07,3.28,5.4,5.51c1.33,2.23,2,5.06,2,8.49c0,4.85-1.09,8.78-3.28,11.8    c-2.18,3.02-5.1,5.42-8.76,7.21L483.07,75.23z M457.46,31.29c0-1.59-0.31-2.96-0.92-4.1c-0.61-1.15-1.62-2.03-3.04-2.66    c-0.99-0.43-2.1-0.69-3.32-0.81c-1.22-0.11-2.74-0.17-4.55-0.17h-5.32v17.06h4.55c2.21,0,4.09-0.13,5.64-0.4    c1.55-0.27,2.86-0.84,3.94-1.72c1.02-0.79,1.78-1.74,2.28-2.85C457.21,34.52,457.46,33.08,457.46,31.29z"></path>
		<path class="st8" d="M544.33,43.63c0,5.9-1.29,11.18-3.87,15.85c-2.58,4.67-5.84,8.25-9.78,10.74c-3.29,2.13-6.87,3.5-10.74,4.11    c-3.87,0.61-7.99,0.92-12.36,0.92h-19.82V11.89h19.65c4.45,0,8.62,0.28,12.51,0.85s7.53,1.94,10.93,4.13    c4.17,2.67,7.46,6.26,9.87,10.78C543.12,32.18,544.33,37.5,544.33,43.63z M527.99,43.5c0-4.17-0.72-7.74-2.15-10.7    c-1.43-2.96-3.64-5.28-6.62-6.96c-2.16-1.19-4.42-1.84-6.79-1.96c-2.37-0.11-5.2-0.17-8.49-0.17h-0.3v39.65h0.3    c3.57,0,6.59-0.06,9.04-0.19c2.45-0.13,4.79-0.89,7-2.28c2.61-1.64,4.59-3.91,5.96-6.81C527.31,51.2,527.99,47.67,527.99,43.5z"></path>
	</g>
	<g class="st1">
		<path class="st8" d="M543.78,22.07v-8h-2.92v-1.88h8.32v1.88h-2.92v8H543.78z"></path>
		<path class="st8" d="M560.3,22.07h-2.47v-6.55l-1.8,4.23h-1.69l-1.8-4.23v6.55h-2.34v-9.88h2.86l2.19,4.88l2.18-4.88h2.86V22.07z"></path>
	</g>
</g>
<g id="PERMA_BOND" class="st0">
	<g class="st1">
		<path class="st9" d="M70.83,31.88c0,2.95-0.47,5.76-1.4,8.42c-0.94,2.67-2.28,4.89-4.04,6.68c-1.08,1.11-2.26,2.13-3.55,3.06    c-1.29,0.94-2.72,1.73-4.28,2.38c-1.56,0.65-3.25,1.16-5.08,1.53c-1.83,0.37-3.88,0.55-6.15,0.55h-8.34v20.72H22.08V11.89h24.59    c3.66,0,6.81,0.33,9.47,1c2.65,0.67,5.06,1.72,7.21,3.17c2.38,1.59,4.23,3.71,5.53,6.36C70.18,25.07,70.83,28.23,70.83,31.88z     M54.49,32.27c0-1.79-0.43-3.32-1.28-4.62c-0.85-1.29-1.87-2.18-3.06-2.66c-1.5-0.65-2.94-1.03-4.32-1.13    c-1.38-0.1-3.24-0.15-5.59-0.15h-2.25v18.97h1.11c1.5,0,2.92-0.01,4.25-0.04c1.33-0.03,2.5-0.13,3.49-0.3    c0.85-0.14,1.75-0.42,2.7-0.83c0.95-0.41,1.68-0.87,2.19-1.38c1.08-1.05,1.81-2.14,2.19-3.28S54.49,34.2,54.49,32.27z"></path>
		<path class="st9" d="M79.34,75.23V11.89h42.84v12.08H95.16v11.1h24.89v12.08H95.16v16h27.01v12.08H79.34z"></path>
		<path class="st9" d="M191.52,75.23h-19.4l-17.65-23.23h-5.7v23.23h-15.83V11.89h25.48c3.52,0,6.58,0.22,9.19,0.66    c2.61,0.44,5.02,1.35,7.23,2.74c2.27,1.45,4.07,3.28,5.4,5.51c1.33,2.23,2,5.06,2,8.49c0,4.85-1.09,8.78-3.28,11.8    c-2.18,3.02-5.1,5.42-8.76,7.21L191.52,75.23z M165.91,31.29c0-1.59-0.31-2.96-0.91-4.1c-0.61-1.15-1.62-2.03-3.04-2.66    c-0.99-0.43-2.1-0.69-3.32-0.81c-1.22-0.11-2.74-0.17-4.55-0.17h-5.32v17.06h4.55c2.21,0,4.09-0.13,5.64-0.4    c1.55-0.27,2.86-0.84,3.94-1.72c1.02-0.79,1.78-1.74,2.28-2.85C165.66,34.52,165.91,33.08,165.91,31.29z"></path>
		<path class="st9" d="M260.9,75.23h-15.83V33.25l-11.53,27.1H222.7l-11.53-27.1v41.99H196.2V11.89h18.33l14.04,31.27l14-31.27    h18.33V75.23z"></path>
		<path class="st9" d="M267.2,75.23l21.4-63.34h17.36l21.4,63.34h-16.38l-3.96-12.93h-19.91l-3.96,12.93H267.2z M303.53,50.81    l-6.47-20.89l-6.47,20.89H303.53z"></path>
		<path class="st9" d="M359.98,53.2h-28.2V41.37h28.2V53.2z"></path>
		<path class="st9" d="M421.88,55.83c0,3.15-0.6,5.91-1.79,8.3s-2.79,4.35-4.81,5.91c-2.38,1.87-5,3.21-7.85,4    c-2.85,0.79-6.47,1.19-10.87,1.19h-25.35V11.89h22.38c4.65,0,8.17,0.18,10.57,0.53c2.4,0.35,4.64,1.1,6.74,2.23    c2.27,1.22,3.96,2.85,5.08,4.89s1.68,4.4,1.68,7.06c0,3.09-0.77,5.84-2.32,8.25c-1.55,2.41-3.68,4.18-6.4,5.32v0.34    c3.91,0.82,7.05,2.5,9.4,5.04C420.7,48.1,421.88,51.52,421.88,55.83z M401.5,29.8c0-1.02-0.26-2.07-0.79-3.15    c-0.53-1.08-1.34-1.86-2.45-2.34c-1.05-0.45-2.29-0.7-3.72-0.74c-1.43-0.04-3.57-0.06-6.4-0.06h-1.11v13.4h2    c2.72,0,4.63-0.03,5.72-0.08c1.09-0.06,2.22-0.35,3.38-0.89c1.28-0.6,2.16-1.42,2.64-2.47C401.26,32.41,401.5,31.19,401.5,29.8z     M405.5,55.54c0-1.96-0.4-3.49-1.19-4.59c-0.79-1.11-1.99-1.94-3.57-2.51c-0.96-0.37-2.29-0.57-3.98-0.62s-3.95-0.06-6.79-0.06    h-2.94v15.87h0.85c4.14,0,7-0.03,8.59-0.08c1.59-0.06,3.21-0.44,4.85-1.15c1.45-0.62,2.5-1.54,3.17-2.74    C405.17,58.44,405.5,57.07,405.5,55.54z"></path>
		<path class="st9" d="M488.67,43.58c0,10.24-2.74,18.29-8.21,24.16c-5.47,5.87-12.98,8.81-22.5,8.81c-9.56,0-17.06-2.97-22.5-8.91    c-5.44-5.94-8.17-13.96-8.17-24.06c0-10.18,2.72-18.23,8.17-24.14c5.45-5.91,12.95-8.87,22.5-8.87c9.53,0,17.03,2.94,22.5,8.83    C485.93,25.28,488.67,33.35,488.67,43.58z M472.24,43.54c0-3.77-0.39-6.98-1.17-9.64s-1.82-4.83-3.13-6.53    c-1.36-1.73-2.9-2.97-4.62-3.72c-1.72-0.75-3.5-1.13-5.34-1.13c-1.96,0-3.73,0.35-5.32,1.04c-1.59,0.69-3.12,1.94-4.59,3.72    c-1.3,1.65-2.36,3.83-3.17,6.55s-1.21,5.97-1.21,9.74c0,3.89,0.38,7.11,1.15,9.68c0.77,2.57,1.81,4.72,3.15,6.44    c1.36,1.76,2.91,3.01,4.64,3.76c1.73,0.75,3.52,1.13,5.36,1.13c1.87,0,3.69-0.4,5.45-1.21c1.76-0.81,3.28-2.06,4.55-3.76    c1.36-1.84,2.41-3.99,3.15-6.45C471.88,50.72,472.24,47.51,472.24,43.54z"></path>
		<path class="st9" d="M552.35,75.23h-15.31l-24.42-44.16v44.16h-14.55V11.89h19.53l20.21,36.29V11.89h14.55V75.23z"></path>
		<path class="st9" d="M621.78,43.63c0,5.9-1.29,11.18-3.87,15.85c-2.58,4.67-5.84,8.25-9.78,10.74c-3.29,2.13-6.87,3.5-10.74,4.11    c-3.87,0.61-7.99,0.92-12.36,0.92H565.2V11.89h19.65c4.45,0,8.62,0.28,12.51,0.85s7.53,1.94,10.93,4.13    c4.17,2.67,7.46,6.26,9.87,10.78C620.57,32.18,621.78,37.5,621.78,43.63z M605.44,43.5c0-4.17-0.72-7.74-2.15-10.7    c-1.43-2.96-3.64-5.28-6.62-6.96c-2.16-1.19-4.42-1.84-6.79-1.96c-2.37-0.11-5.2-0.17-8.49-0.17h-0.3v39.65h0.3    c3.57,0,6.59-0.06,9.04-0.19c2.45-0.13,4.79-0.89,7-2.28c2.61-1.64,4.59-3.91,5.96-6.81C604.76,51.2,605.44,47.67,605.44,43.5z"></path>
	</g>
	<g class="st1">
		<path class="st9" d="M621.28,23.6v-8h-2.92v-1.88h8.32v1.88h-2.92v8H621.28z"></path>
		<path class="st9" d="M637.8,23.6h-2.47v-6.55l-1.8,4.23h-1.69l-1.8-4.23v6.55h-2.34v-9.88h2.86l2.19,4.88l2.18-4.88h2.86V23.6z"></path>
	</g>
</g>
<g id="XTRU-THERM" class="st0">
	<g id="XTRU_THERM" class="st1">
		<g>
			<path class="st5" d="M90.72,75.23H72.25L60.09,55.03L47.67,75.23H30.05L50.6,43.33L30.86,11.89h18.42l11.4,19.1l11.7-19.1h17.65     l-19.87,30.8L90.72,75.23z"></path>
			<path class="st5" d="M108.92,75.23V23.97H90.21V11.89h53.35v12.08h-18.72v51.26H108.92z"></path>
			<path class="st5" d="M208.68,75.23h-19.4l-17.65-23.23h-5.7v23.23H150.1V11.89h25.48c3.52,0,6.58,0.22,9.19,0.66     c2.61,0.44,5.02,1.35,7.23,2.74c2.27,1.45,4.07,3.28,5.4,5.51c1.33,2.23,2,5.06,2,8.49c0,4.85-1.09,8.78-3.28,11.8     c-2.18,3.02-5.1,5.42-8.76,7.21L208.68,75.23z M183.07,31.29c0-1.59-0.31-2.96-0.91-4.1c-0.61-1.15-1.62-2.03-3.04-2.66     c-0.99-0.43-2.1-0.69-3.32-0.81c-1.22-0.11-2.74-0.17-4.55-0.17h-5.32v17.06h4.55c2.21,0,4.09-0.13,5.64-0.4     c1.55-0.27,2.86-0.84,3.94-1.72c1.02-0.79,1.78-1.74,2.28-2.85C182.82,34.52,183.07,33.08,183.07,31.29z"></path>
			<path class="st5" d="M238.97,76.55c-8.51,0-15.05-2.06-19.63-6.17c-4.58-4.11-6.87-10.12-6.87-18.04V11.89h15.91v39.52     c0,4.4,0.83,7.67,2.49,9.83c1.66,2.16,4.36,3.23,8.1,3.23c3.66,0,6.35-1.04,8.06-3.11c1.72-2.07,2.57-5.39,2.57-9.95V11.89h15.91     V52.3c0,7.8-2.23,13.79-6.7,17.97C254.35,74.46,247.74,76.55,238.97,76.55z"></path>
			<path class="st5" d="M304.06,53.2h-28.2V41.37h28.2V53.2z"></path>
			<path class="st5" d="M327.46,75.23V23.97h-18.72V11.89h53.35v12.08h-18.72v51.26H327.46z"></path>
			<path class="st5" d="M422.11,75.23H406.2V47.16h-21.65v28.08h-15.91V11.89h15.91v23.18h21.65V11.89h15.91V75.23z"></path>
			<path class="st5" d="M435.21,75.23V11.89h42.84v12.08h-27.01v11.1h24.89v12.08h-24.89v16h27.01v12.08H435.21z"></path>
			<path class="st5" d="M547.39,75.23h-19.4l-17.65-23.23h-5.7v23.23h-15.82V11.89h25.48c3.52,0,6.58,0.22,9.19,0.66     c2.61,0.44,5.02,1.35,7.23,2.74c2.27,1.45,4.07,3.28,5.4,5.51c1.33,2.23,2,5.06,2,8.49c0,4.85-1.09,8.78-3.28,11.8     c-2.18,3.02-5.1,5.42-8.76,7.21L547.39,75.23z M521.78,31.29c0-1.59-0.31-2.96-0.92-4.1c-0.61-1.15-1.62-2.03-3.04-2.66     c-0.99-0.43-2.1-0.69-3.32-0.81c-1.22-0.11-2.74-0.17-4.55-0.17h-5.32v17.06h4.55c2.21,0,4.09-0.13,5.64-0.4     c1.55-0.27,2.86-0.84,3.94-1.72c1.02-0.79,1.78-1.74,2.28-2.85C521.53,34.52,521.78,33.08,521.78,31.29z"></path>
			<path class="st5" d="M616.78,75.23h-15.83V33.25l-11.53,27.1h-10.85l-11.53-27.1v41.99h-14.97V11.89h18.33l14.04,31.27l14-31.27     h18.33V75.23z"></path>
		</g>
	</g>
	<g class="st1">
		<path class="st6" d="M628.29,12.65c0.89,0.5,1.59,1.22,2.09,2.13c0.5,0.92,0.75,1.98,0.75,3.18c0,1.18-0.25,2.24-0.75,3.16    c-0.5,0.92-1.2,1.65-2.1,2.17c-0.9,0.52-1.93,0.78-3.09,0.78c-1.16,0-2.19-0.26-3.09-0.78c-0.9-0.52-1.6-1.24-2.1-2.17    c-0.5-0.92-0.75-1.98-0.75-3.16c0-1.2,0.25-2.27,0.75-3.18s1.2-1.63,2.09-2.13c0.9-0.5,1.93-0.76,3.1-0.76    C626.36,11.89,627.4,12.14,628.29,12.65z M628.04,22.76c0.81-0.45,1.43-1.09,1.87-1.92c0.44-0.83,0.65-1.78,0.65-2.88    c0-1.11-0.22-2.09-0.65-2.94c-0.44-0.84-1.06-1.49-1.87-1.95c-0.81-0.46-1.76-0.69-2.85-0.69c-1.09,0-2.04,0.23-2.86,0.69    c-0.82,0.46-1.44,1.11-1.88,1.95c-0.44,0.84-0.65,1.82-0.65,2.94c0,1.09,0.22,2.05,0.65,2.88c0.44,0.83,1.06,1.47,1.88,1.92    c0.81,0.45,1.77,0.68,2.86,0.68C626.28,23.44,627.23,23.21,628.04,22.76z M627.59,17.55c-0.39,0.38-0.94,0.6-1.68,0.65l2.25,3.39    h-0.93l-2.2-3.37h-1.31v3.37h-0.83v-7.71h2.62c0.88,0,1.55,0.2,1.99,0.59c0.44,0.39,0.66,0.91,0.66,1.57    C628.17,16.67,627.98,17.18,627.59,17.55z M627.31,16.12c0-0.48-0.14-0.85-0.43-1.1c-0.29-0.25-0.76-0.38-1.43-0.38h-1.72v2.98    h1.72C626.69,17.62,627.31,17.12,627.31,16.12z"></path>
	</g>
</g>
<g id="MULTI-THERM" class="st0">
	<g id="MULTI_THERM" class="st1">
		<g>
			<path class="st2" d="M71.51,75.23H55.69V33.25l-11.53,27.1H33.31l-11.53-27.1v41.99H6.81V11.89h18.33l14.04,31.27l14-31.27h18.33     V75.23z"></path>
			<path class="st2" d="M110.22,76.55c-8.51,0-15.05-2.06-19.63-6.17c-4.58-4.11-6.87-10.12-6.87-18.04V11.89h15.91v39.52     c0,4.4,0.83,7.67,2.49,9.83c1.66,2.16,4.36,3.23,8.1,3.23c3.66,0,6.35-1.04,8.06-3.11c1.72-2.07,2.57-5.39,2.57-9.95V11.89h15.91     V52.3c0,7.8-2.23,13.79-6.7,17.97C125.6,74.46,118.99,76.55,110.22,76.55z"></path>
			<path class="st2" d="M191.26,75.23h-42.29V11.89h15.91v51.26h26.38V75.23z"></path>
			<path class="st2" d="M211,75.23V23.97h-18.72V11.89h53.35v12.08h-18.72v51.26H211z"></path>
			<path class="st2" d="M283.75,75.23h-34.12V64.17h9.1V22.95h-9.1V11.89h34.12v11.06h-9.1v41.22h9.1V75.23z"></path>
			<path class="st2" d="M320.63,53.2h-28.2V41.37h28.2V53.2z"></path>
			<path class="st2" d="M344.03,75.23V23.97h-18.72V11.89h53.35v12.08h-18.72v51.26H344.03z"></path>
			<path class="st2" d="M438.68,75.23h-15.91V47.16h-21.65v28.08h-15.91V11.89h15.91v23.18h21.65V11.89h15.91V75.23z"></path>
			<path class="st2" d="M451.78,75.23V11.89h42.84v12.08h-27.01v11.1h24.89v12.08h-24.89v16h27.01v12.08H451.78z"></path>
			<path class="st2" d="M563.96,75.23h-19.4l-17.65-23.23h-5.7v23.23h-15.82V11.89h25.48c3.52,0,6.58,0.22,9.19,0.66     c2.61,0.44,5.02,1.35,7.23,2.74c2.27,1.45,4.07,3.28,5.4,5.51c1.33,2.23,2,5.06,2,8.49c0,4.85-1.09,8.78-3.28,11.8     c-2.18,3.02-5.1,5.42-8.76,7.21L563.96,75.23z M538.35,31.29c0-1.59-0.31-2.96-0.92-4.1c-0.61-1.15-1.62-2.03-3.04-2.66     c-0.99-0.43-2.1-0.69-3.32-0.81c-1.22-0.11-2.74-0.17-4.55-0.17h-5.32v17.06h4.55c2.21,0,4.09-0.13,5.64-0.4     c1.55-0.27,2.86-0.84,3.94-1.72c1.02-0.79,1.78-1.74,2.28-2.85C538.1,34.52,538.35,33.08,538.35,31.29z"></path>
			<path class="st2" d="M633.35,75.23h-15.83V33.25l-11.53,27.1h-10.85l-11.53-27.1v41.99h-14.97V11.89h18.33l14.04,31.27l14-31.27     h18.33V75.23z"></path>
		</g>
	</g>
	<g class="st1">
		<path class="st10" d="M645.3,12.65c0.89,0.5,1.59,1.22,2.09,2.13c0.5,0.92,0.75,1.98,0.75,3.18c0,1.18-0.25,2.24-0.75,3.16    c-0.5,0.92-1.2,1.65-2.1,2.17c-0.9,0.52-1.93,0.78-3.09,0.78c-1.16,0-2.19-0.26-3.09-0.78c-0.9-0.52-1.6-1.24-2.1-2.17    c-0.5-0.92-0.75-1.98-0.75-3.16c0-1.2,0.25-2.27,0.75-3.18c0.5-0.92,1.2-1.63,2.09-2.13c0.9-0.5,1.93-0.76,3.1-0.76    C643.37,11.89,644.41,12.14,645.3,12.65z M645.05,22.76c0.81-0.45,1.43-1.09,1.87-1.92c0.44-0.83,0.65-1.78,0.65-2.88    c0-1.11-0.22-2.09-0.65-2.94c-0.44-0.84-1.06-1.49-1.87-1.95c-0.81-0.46-1.76-0.69-2.85-0.69c-1.09,0-2.04,0.23-2.86,0.69    c-0.82,0.46-1.44,1.11-1.88,1.95c-0.44,0.84-0.65,1.82-0.65,2.94c0,1.09,0.22,2.05,0.65,2.88c0.44,0.83,1.06,1.47,1.88,1.92    c0.81,0.45,1.77,0.68,2.86,0.68C643.29,23.44,644.24,23.21,645.05,22.76z M644.6,17.55c-0.39,0.38-0.94,0.6-1.68,0.65l2.25,3.39    h-0.93l-2.2-3.37h-1.31v3.37h-0.83v-7.71h2.62c0.88,0,1.55,0.2,1.99,0.59c0.44,0.39,0.66,0.91,0.66,1.57    C645.18,16.67,644.99,17.18,644.6,17.55z M644.32,16.12c0-0.48-0.14-0.85-0.43-1.1c-0.29-0.25-0.76-0.38-1.43-0.38h-1.72v2.98    h1.72C643.7,17.62,644.32,17.12,644.32,16.12z"></path>
	</g>
</g>
<g id="FLOW_THERM_1_">
	<g>
		<path class="st11" d="M64.41,23.97H37.82v11.95h24.46v12.08H37.82v27.23H21.99V11.89h42.41V23.97z"></path>
		<path class="st11" d="M114.9,75.23H72.62V11.89h15.91v51.26h26.38V75.23z"></path>
		<path class="st11" d="M180.16,43.58c0,10.24-2.74,18.29-8.21,24.16c-5.47,5.87-12.98,8.81-22.5,8.81c-9.56,0-17.06-2.97-22.5-8.91    c-5.45-5.94-8.17-13.96-8.17-24.06c0-10.18,2.72-18.23,8.17-24.14c5.45-5.91,12.95-8.87,22.5-8.87c9.53,0,17.03,2.94,22.5,8.83    C177.42,25.28,180.16,33.35,180.16,43.58z M163.74,43.54c0-3.77-0.39-6.98-1.17-9.64c-0.78-2.65-1.82-4.83-3.13-6.53    c-1.36-1.73-2.9-2.97-4.62-3.72c-1.72-0.75-3.5-1.13-5.34-1.13c-1.96,0-3.73,0.35-5.32,1.04c-1.59,0.69-3.12,1.94-4.59,3.72    c-1.31,1.65-2.36,3.83-3.17,6.55s-1.21,5.97-1.21,9.74c0,3.89,0.38,7.11,1.15,9.68c0.77,2.57,1.81,4.72,3.15,6.44    c1.36,1.76,2.91,3.01,4.64,3.76c1.73,0.75,3.52,1.13,5.36,1.13c1.87,0,3.69-0.4,5.45-1.21c1.76-0.81,3.28-2.06,4.55-3.76    c1.36-1.84,2.41-3.99,3.15-6.45C163.37,50.72,163.74,47.51,163.74,43.54z"></path>
		<path class="st11" d="M271.28,11.89l-16.04,63.34H237.8l-10.17-39.18l-9.87,39.18h-17.44l-16.04-63.34h16.51l8.72,42.5l10.64-42.5    h15.78l10.08,42.5l9.19-42.5H271.28z"></path>
		<path class="st11" d="M305.44,53.2h-28.2V41.37h28.2V53.2z"></path>
		<path class="st11" d="M328.84,75.23V23.97h-18.72V11.89h53.35v12.08h-18.72v51.26H328.84z"></path>
		<path class="st11" d="M423.49,75.23h-15.91V47.16h-21.65v28.08h-15.91V11.89h15.91v23.18h21.65V11.89h15.91V75.23z"></path>
		<path class="st11" d="M436.6,75.23V11.89h42.84v12.08h-27.01v11.1h24.89v12.08h-24.89v16h27.01v12.08H436.6z"></path>
		<path class="st11" d="M548.78,75.23h-19.4l-17.65-23.23h-5.7v23.23H490.2V11.89h25.48c3.52,0,6.58,0.22,9.19,0.66    c2.61,0.44,5.02,1.35,7.23,2.74c2.27,1.45,4.07,3.28,5.4,5.51c1.33,2.23,2,5.06,2,8.49c0,4.85-1.09,8.78-3.28,11.8    c-2.18,3.02-5.1,5.42-8.76,7.21L548.78,75.23z M523.17,31.29c0-1.59-0.31-2.96-0.92-4.1c-0.61-1.15-1.62-2.03-3.04-2.66    c-0.99-0.43-2.1-0.69-3.32-0.81c-1.22-0.11-2.74-0.17-4.55-0.17h-5.32v17.06h4.55c2.21,0,4.09-0.13,5.64-0.4    c1.55-0.27,2.86-0.84,3.94-1.72c1.02-0.79,1.78-1.74,2.28-2.85C522.92,34.52,523.17,33.08,523.17,31.29z"></path>
		<path class="st11" d="M618.16,75.23h-15.83V33.25l-11.53,27.1h-10.85l-11.53-27.1v41.99h-14.97V11.89h18.33l14.04,31.27l14-31.27    h18.33V75.23z"></path>
	</g>
	<g>
		<path class="st11" d="M623.03,22.5v-8.84h-2.92v-2.08h8.32v2.08h-2.92v8.84H623.03z"></path>
		<path class="st11" d="M639.55,22.5h-2.47v-7.24l-1.8,4.68h-1.69l-1.8-4.68v7.24h-2.34V11.57h2.86l2.19,5.39l2.18-5.39h2.86V22.5z"></path>
	</g>
</g>
</svg>