<svg xmlns="http://www.w3.org/2000/svg" xmlns:xlink="http://www.w3.org/1999/xlink" id="Layer_1" x="0px" y="0px" viewBox="0 0 655.52 113.65" style="enable-background:new 0 0 655.52 113.65;" xml:space="preserve">
<style type="text/css">
	.st0{fill:#1A428A;}
	.st1{fill:#1A428A;stroke:#1A428A;stroke-width:0.5;stroke-miterlimit:10;}
	.st2{font-family:'Tahoma';}
	.st3{font-size:14.0381px;}
</style>
<g id="MULTI-THERM_1_">
	<g id="MULTI_THERM_1_">
		<g>
			<path class="st0" d="M74.42,73.96H58.59V31.97l-11.53,27.1H36.22l-11.53-27.1v41.99H9.71V10.62h18.33l14.04,31.27l14-31.27h18.33     V73.96z"></path>
			<path class="st0" d="M113.13,75.28c-8.51,0-15.05-2.06-19.63-6.17c-4.58-4.11-6.87-10.12-6.87-18.04V10.62h15.91v39.52     c0,4.4,0.83,7.67,2.49,9.83c1.66,2.16,4.36,3.23,8.1,3.23c3.66,0,6.35-1.04,8.06-3.11c1.72-2.07,2.57-5.39,2.57-9.95V10.62h15.91     v40.41c0,7.8-2.23,13.79-6.7,17.97C128.51,73.19,121.89,75.28,113.13,75.28z"></path>
			<path class="st0" d="M194.17,73.96h-42.29V10.62h15.91v51.26h26.38V73.96z"></path>
			<path class="st0" d="M213.91,73.96V22.7h-18.72V10.62h53.35V22.7h-18.72v51.26H213.91z"></path>
			<path class="st0" d="M286.66,73.96h-34.12V62.9h9.1V21.68h-9.1V10.62h34.12v11.06h-9.1V62.9h9.1V73.96z"></path>
			<path class="st0" d="M323.54,51.92h-28.2V40.1h28.2V51.92z"></path>
			<path class="st0" d="M346.93,73.96V22.7h-18.72V10.62h53.35V22.7h-18.72v51.26H346.93z"></path>
			<path class="st0" d="M441.59,73.96h-15.91V45.88h-21.65v28.08h-15.91V10.62h15.91V33.8h21.65V10.62h15.91V73.96z"></path>
			<path class="st0" d="M454.69,73.96V10.62h42.84V22.7h-27.01v11.1h24.89v12.08h-24.89v16h27.01v12.08H454.69z"></path>
			<path class="st0" d="M566.87,73.96h-19.4l-17.65-23.23h-5.7v23.23h-15.82V10.62h25.48c3.52,0,6.58,0.22,9.19,0.66     c2.61,0.44,5.02,1.35,7.23,2.74c2.27,1.45,4.07,3.28,5.4,5.51c1.33,2.23,2,5.06,2,8.49c0,4.85-1.09,8.78-3.28,11.8     c-2.18,3.02-5.1,5.42-8.76,7.21L566.87,73.96z M541.26,30.02c0-1.59-0.31-2.96-0.92-4.1c-0.61-1.15-1.62-2.03-3.04-2.66     c-0.99-0.43-2.1-0.69-3.32-0.81c-1.22-0.11-2.74-0.17-4.55-0.17h-5.32v17.06h4.55c2.21,0,4.09-0.13,5.64-0.4     c1.55-0.27,2.86-0.84,3.94-1.72c1.02-0.79,1.78-1.74,2.28-2.85C541.01,33.25,541.26,31.8,541.26,30.02z"></path>
			<path class="st0" d="M636.25,73.96h-15.83V31.97l-11.53,27.1h-10.85l-11.53-27.1v41.99h-14.97V10.62h18.33l14.04,31.27l14-31.27     h18.33V73.96z"></path>
		</g>
	</g>
	<text transform="matrix(1 0 0 1 639.2894 20.4562)" class="st1 st2 st3">®</text>
</g>
</svg>