<?xml version="1.0" encoding="UTF-8" standalone="no"?>
<svg
   id="Layer_1"
   x="0px"
   y="0px"
   viewBox="0 0 429706.46 12916.323"
   xml:space="preserve"
   version="1.1"
   width="429706.47"
   height="12916.323"
   xmlns="http://www.w3.org/2000/svg"
   xmlns:svg="http://www.w3.org/2000/svg"><defs
   id="defs346" />
<style
   type="text/css"
   id="style312">
	.st0{fill:#212B53;}
</style>
<g
   id="PERMA_BOND">
	<g
   id="g334">
		
		
		<path
   class="st0"
   d="m 79.181983,76.046189 h -19.4 l -17.65,-23.23 h -5.7 v 23.23 h -15.83 v -63.35 h 25.48 c 3.52,0 6.58,0.22 9.19,0.66 2.61,0.44 5.02,1.35 7.23,2.74 2.27,1.45 4.07,3.28 5.4,5.51 1.33,2.23 2,5.06 2,8.49 0,4.85 -1.09,8.78 -3.28,11.8 -2.18,3.02 -5.1,5.42 -8.76,7.21 z m -25.61,-43.95 c 0,-1.59 -0.31,-2.96 -0.91,-4.1 -0.61,-1.15 -1.62,-2.03 -3.04,-2.66 -0.99,-0.43 -2.1,-0.69 -3.32,-0.81 -1.22,-0.11 -2.74,-0.17 -4.55,-0.17 h -5.32 v 17.06 h 4.55 c 2.21,0 4.09,-0.13 5.64,-0.4 1.55,-0.27 2.86,-0.84 3.94,-1.72 1.02,-0.79 1.78,-1.74 2.28,-2.85 0.48,-1.12 0.73,-2.56 0.73,-4.35 z"
   id="path318" />
		
		
		<path
   class="st0"
   d="m 363.23,54.54 h -28.2 V 42.71 h 28.2 z"
   id="path324" />
		<path
   class="st0"
   d="m 425.13,57.18 c 0,3.15 -0.6,5.91 -1.79,8.3 -1.19,2.38 -2.79,4.35 -4.81,5.91 -2.38,1.87 -5,3.21 -7.85,4 -2.85,0.79 -6.47,1.19 -10.87,1.19 H 374.46 V 13.23 h 22.38 c 4.65,0 8.17,0.18 10.57,0.53 2.4,0.35 4.64,1.1 6.74,2.23 2.27,1.22 3.96,2.85 5.08,4.89 1.12,2.04 1.68,4.4 1.68,7.06 0,3.09 -0.77,5.84 -2.32,8.25 -1.55,2.41 -3.68,4.18 -6.4,5.32 v 0.34 c 3.91,0.82 7.05,2.5 9.4,5.04 2.36,2.55 3.54,5.98 3.54,10.29 z M 404.75,31.14 c 0,-1.02 -0.26,-2.07 -0.79,-3.15 -0.53,-1.08 -1.34,-1.86 -2.45,-2.34 -1.05,-0.45 -2.29,-0.7 -3.72,-0.74 -1.43,-0.04 -3.57,-0.06 -6.4,-0.06 h -1.11 v 13.4 h 2 c 2.72,0 4.63,-0.03 5.72,-0.08 1.09,-0.06 2.22,-0.35 3.38,-0.89 1.28,-0.6 2.16,-1.42 2.64,-2.47 0.49,-1.06 0.73,-2.28 0.73,-3.67 z m 4,25.74 c 0,-1.96 -0.4,-3.49 -1.19,-4.59 -0.79,-1.11 -1.99,-1.94 -3.57,-2.51 -0.96,-0.37 -2.29,-0.57 -3.98,-0.62 -1.69,-0.05 -3.95,-0.06 -6.79,-0.06 h -2.94 v 15.87 h 0.85 c 4.14,0 7,-0.03 8.59,-0.08 1.59,-0.06 3.21,-0.44 4.85,-1.15 1.45,-0.62 2.5,-1.54 3.17,-2.74 0.67,-1.22 1.01,-2.59 1.01,-4.12 z"
   id="path326" />
		<path
   class="st0"
   d="m 491.91,44.93 c 0,10.24 -2.74,18.29 -8.21,24.16 -5.47,5.87 -12.98,8.81 -22.5,8.81 -9.56,0 -17.06,-2.97 -22.5,-8.91 -5.44,-5.94 -8.17,-13.96 -8.17,-24.06 0,-10.18 2.72,-18.23 8.17,-24.14 5.45,-5.91 12.95,-8.87 22.5,-8.87 9.53,0 17.03,2.94 22.5,8.83 5.48,5.88 8.21,13.94 8.21,24.18 z m -16.42,-0.05 c 0,-3.77 -0.39,-6.98 -1.17,-9.64 -0.78,-2.66 -1.82,-4.83 -3.13,-6.53 -1.36,-1.73 -2.9,-2.97 -4.62,-3.72 -1.72,-0.75 -3.5,-1.13 -5.34,-1.13 -1.96,0 -3.73,0.35 -5.32,1.04 -1.59,0.69 -3.12,1.94 -4.59,3.72 -1.3,1.65 -2.36,3.83 -3.17,6.55 -0.81,2.72 -1.21,5.97 -1.21,9.74 0,3.89 0.38,7.11 1.15,9.68 0.77,2.57 1.81,4.72 3.15,6.44 1.36,1.76 2.91,3.01 4.64,3.76 1.73,0.75 3.52,1.13 5.36,1.13 1.87,0 3.69,-0.4 5.45,-1.21 1.76,-0.81 3.28,-2.06 4.55,-3.76 1.36,-1.84 2.41,-3.99 3.15,-6.45 0.73,-2.43 1.1,-5.65 1.1,-9.62 z"
   id="path328" />
		<path
   class="st0"
   d="M 555.6,76.58 H 540.29 L 515.87,32.42 V 76.58 H 501.32 V 13.23 h 19.53 l 20.21,36.29 V 13.23 h 14.55 v 63.35 z"
   id="path330" />
		<path
   class="st0"
   d="m 625.02,44.97 c 0,5.9 -1.29,11.18 -3.87,15.85 -2.58,4.67 -5.84,8.25 -9.78,10.74 -3.29,2.13 -6.87,3.5 -10.74,4.11 -3.87,0.61 -7.99,0.92 -12.36,0.92 H 568.45 V 13.23 h 19.65 c 4.45,0 8.62,0.28 12.51,0.85 3.89,0.57 7.53,1.94 10.93,4.13 4.17,2.67 7.46,6.26 9.87,10.78 2.41,4.53 3.61,9.85 3.61,15.98 z m -16.33,-0.13 c 0,-4.17 -0.72,-7.74 -2.15,-10.7 -1.43,-2.96 -3.64,-5.28 -6.62,-6.96 -2.16,-1.19 -4.42,-1.84 -6.79,-1.96 -2.37,-0.11 -5.2,-0.17 -8.49,-0.17 h -0.3 V 64.7 h 0.3 c 3.57,0 6.59,-0.06 9.04,-0.19 2.45,-0.13 4.79,-0.89 7,-2.28 2.61,-1.64 4.59,-3.91 5.96,-6.81 1.37,-2.88 2.05,-6.41 2.05,-10.58 z"
   id="path332" /><path
   class="st0"
   d="m 140.91914,44.900131 c 0,5.9 -1.29,11.18 -3.87,15.85 -2.58,4.67 -5.84,8.25 -9.78,10.74 -3.29,2.13 -6.87,3.5 -10.74,4.11 -3.87,0.61 -7.99,0.92 -12.36,0.92 H 84.349145 v -63.36 h 19.649995 c 4.45,0 8.62,0.28 12.51,0.85 3.89,0.57 7.53,1.94 10.93,4.13 4.17,2.67 7.46,6.26 9.87,10.78 2.41,4.53 3.61,9.85 3.61,15.98 z m -16.33,-0.13 c 0,-4.17 -0.72,-7.74 -2.15,-10.7 -1.43,-2.96 -3.64,-5.28 -6.62,-6.96 -2.16,-1.19 -4.42,-1.84 -6.79,-1.96 -2.37,-0.11 -5.2,-0.17 -8.49,-0.17 h -0.3 v 39.65 h 0.3 c 3.57,0 6.59,-0.06 9.04,-0.19 2.45,-0.13 4.79,-0.89 7,-2.28 2.61,-1.64 4.59,-3.91 5.96,-6.81 1.37,-2.88 2.05,-6.41 2.05,-10.58 z"
   id="path332-9"
   style="fill:#212b53" />
	<text
   xml:space="preserve"
   style="font-style:normal;font-variant:normal;font-weight:bold;font-stretch:normal;font-size:80.233px;font-family:sans-serif;-inkscape-font-specification:'sans-serif Bold';fill:#212b53;fill-opacity:1;stroke-width:1.07453"
   x="148.73051"
   y="70.424438"
   id="text612"
   transform="scale(0.93062861,1.0745425)"><tspan
     id="tspan610"
     x="148.73051"
     y="70.424438"
     style="stroke-width:1.07453">ILLS</tspan></text></g>
	<g
   id="g340">
		<path
   class="st0"
   d="m 624.53,24.95 v -8 h -2.92 v -1.88 h 8.32 v 1.88 h -2.92 v 8 z"
   id="path336" />
		<path
   class="st0"
   d="m 641.05,24.95 h -2.47 V 18.4 l -1.8,4.23 h -1.69 l -1.8,-4.23 v 6.55 h -2.34 v -9.88 h 2.86 l 2.19,4.88 2.18,-4.88 h 2.86 v 9.88 z"
   id="path338" />
	</g>
</g>
</svg>
