<svg xmlns="http://www.w3.org/2000/svg" xmlns:xlink="http://www.w3.org/1999/xlink" id="Layer_1" x="0px" y="0px" viewBox="0 0 655.52 113.65" style="enable-background:new 0 0 655.52 113.65;" xml:space="preserve">
<style type="text/css">
	.st0{fill:#1A428A;}
	.st1{fill:#1A428A;stroke:#184388;stroke-width:0.5;stroke-miterlimit:10;}
</style>
<g id="POLY_THERM">
	<g>
		<path class="st0" d="M84.67,33.23c0,2.95-0.47,5.76-1.4,8.42c-0.94,2.67-2.28,4.89-4.04,6.68c-1.08,1.11-2.26,2.13-3.55,3.06    c-1.29,0.94-2.72,1.73-4.28,2.38c-1.56,0.65-3.25,1.16-5.08,1.53c-1.83,0.37-3.88,0.55-6.15,0.55h-8.34v20.72H35.91V13.23H60.5    c3.66,0,6.81,0.33,9.47,1c2.65,0.67,5.06,1.72,7.21,3.17c2.38,1.59,4.23,3.71,5.53,6.36C84.01,26.41,84.67,29.57,84.67,33.23z     M68.33,33.61c0-1.79-0.43-3.32-1.28-4.62c-0.85-1.29-1.87-2.18-3.06-2.66c-1.5-0.65-2.94-1.03-4.32-1.13    c-1.38-0.1-3.24-0.15-5.59-0.15h-2.25v18.97h1.11c1.5,0,2.92-0.01,4.25-0.04c1.33-0.03,2.5-0.13,3.49-0.3    c0.85-0.14,1.75-0.42,2.7-0.83c0.95-0.41,1.68-0.87,2.19-1.38c1.08-1.05,1.81-2.14,2.19-3.28S68.33,35.54,68.33,33.61z"></path>
		<path class="st0" d="M150.86,44.93c0,10.24-2.74,18.29-8.21,24.16c-5.47,5.87-12.98,8.81-22.5,8.81c-9.56,0-17.06-2.97-22.5-8.91    c-5.45-5.94-8.17-13.96-8.17-24.06c0-10.18,2.72-18.23,8.17-24.14c5.45-5.91,12.95-8.87,22.5-8.87c9.53,0,17.03,2.94,22.5,8.83    C148.12,26.63,150.86,34.69,150.86,44.93z M134.44,44.88c0-3.77-0.39-6.98-1.17-9.64c-0.78-2.65-1.82-4.83-3.13-6.53    c-1.36-1.73-2.9-2.97-4.62-3.72c-1.72-0.75-3.5-1.13-5.34-1.13c-1.96,0-3.73,0.35-5.32,1.04c-1.59,0.69-3.12,1.94-4.59,3.72    c-1.31,1.65-2.36,3.83-3.17,6.55s-1.21,5.97-1.21,9.74c0,3.89,0.38,7.11,1.15,9.68c0.77,2.57,1.81,4.72,3.15,6.44    c1.36,1.76,2.91,3.01,4.64,3.76c1.73,0.75,3.52,1.13,5.36,1.13c1.87,0,3.69-0.4,5.45-1.21c1.76-0.81,3.28-2.06,4.55-3.76    c1.36-1.84,2.41-3.99,3.15-6.45C134.07,52.07,134.44,48.85,134.44,44.88z"></path>
		<path class="st0" d="M202.55,76.58h-42.29V13.23h15.91V64.5h26.38V76.58z"></path>
		<path class="st0" d="M262.78,13.23l-21.87,36.88v26.46h-15.91V50.92l-22.25-37.69h18.12l12.42,22.63l11.95-22.63H262.78z"></path>
		<path class="st0" d="M294.86,54.54h-28.2V42.71h28.2V54.54z"></path>
		<path class="st0" d="M318.26,76.58V25.31h-18.72V13.23h53.35v12.08h-18.72v51.26H318.26z"></path>
		<path class="st0" d="M412.91,76.58H397V48.5h-21.65v28.08h-15.91V13.23h15.91v23.18H397V13.23h15.91V76.58z"></path>
		<path class="st0" d="M426.01,76.58V13.23h42.84v12.08h-27.01v11.1h24.89V48.5h-24.89v16h27.01v12.08H426.01z"></path>
		<path class="st0" d="M538.19,76.58h-19.4l-17.65-23.23h-5.7v23.23h-15.82V13.23h25.48c3.52,0,6.58,0.22,9.19,0.66    c2.61,0.44,5.02,1.35,7.23,2.74c2.27,1.45,4.07,3.28,5.4,5.51c1.33,2.23,2,5.06,2,8.49c0,4.85-1.09,8.78-3.28,11.8    c-2.18,3.02-5.1,5.42-8.76,7.21L538.19,76.58z M512.58,32.63c0-1.59-0.31-2.96-0.92-4.1c-0.61-1.15-1.62-2.03-3.04-2.66    c-0.99-0.43-2.1-0.69-3.32-0.81c-1.22-0.11-2.74-0.17-4.55-0.17h-5.32v17.06h4.55c2.21,0,4.09-0.13,5.64-0.4    c1.55-0.27,2.86-0.84,3.94-1.72c1.02-0.79,1.78-1.74,2.28-2.85C512.33,35.87,512.58,34.42,512.58,32.63z"></path>
		<path class="st0" d="M607.58,76.58h-15.83V34.59l-11.53,27.1h-10.85l-11.53-27.1v41.99h-14.97V13.23h18.33l14.04,31.27l14-31.27    h18.33V76.58z"></path>
	</g>
	<g>
		<path class="st1" d="M617.39,13.83c0.7,0.39,1.24,0.95,1.63,1.67c0.39,0.72,0.59,1.55,0.59,2.49c0,0.92-0.2,1.75-0.59,2.47    c-0.39,0.72-0.94,1.29-1.64,1.7c-0.7,0.41-1.51,0.61-2.42,0.61c-0.91,0-1.71-0.2-2.41-0.61c-0.71-0.41-1.25-0.97-1.64-1.7    c-0.39-0.72-0.59-1.54-0.59-2.47c0-0.94,0.2-1.77,0.59-2.49s0.94-1.27,1.63-1.67c0.7-0.39,1.51-0.59,2.42-0.59    C615.88,13.23,616.69,13.43,617.39,13.83z M617.19,21.73c0.63-0.35,1.12-0.85,1.46-1.5c0.34-0.65,0.51-1.4,0.51-2.25    c0-0.87-0.17-1.64-0.51-2.29c-0.34-0.66-0.83-1.17-1.46-1.53c-0.63-0.36-1.37-0.54-2.23-0.54c-0.85,0-1.6,0.18-2.23,0.54    c-0.64,0.36-1.13,0.87-1.47,1.53c-0.34,0.66-0.51,1.42-0.51,2.29c0,0.85,0.17,1.6,0.51,2.25c0.34,0.65,0.83,1.15,1.47,1.5    c0.64,0.35,1.38,0.53,2.23,0.53C615.82,22.26,616.56,22.09,617.19,21.73z M616.84,17.66c-0.3,0.3-0.74,0.47-1.31,0.51l1.76,2.65    h-0.73l-1.72-2.64h-1.02v2.64h-0.65v-6.03h2.05c0.69,0,1.21,0.15,1.55,0.46c0.34,0.31,0.52,0.71,0.52,1.22    C617.29,16.97,617.14,17.37,616.84,17.66z M616.62,16.54c0-0.38-0.11-0.66-0.34-0.86c-0.22-0.2-0.6-0.3-1.12-0.3h-1.35v2.33h1.35    C616.14,17.71,616.62,17.32,616.62,16.54z"></path>
	</g>
</g>
</svg>