<svg xmlns="http://www.w3.org/2000/svg" xmlns:xlink="http://www.w3.org/1999/xlink" x="0px" y="0px" viewBox="-49 141 512 512" style="enable-background:new -49 141 512 512;" xml:space="preserve">
<g id="Capa_1" style="display:none;">
	<path style="display:inline;" d="M215.2,463V233.1h-16.4V463c-36.8,4.1-65.5,35.4-65.5,73.3c0,40.7,33.1,73.7,73.7,73.7   s73.7-33.1,73.7-73.7C280.7,498.4,252,467.1,215.2,463z M207,593.6c-31.6,0-57.4-25.7-57.4-57.4c0-31.6,25.7-57.4,57.4-57.4   s57.4,25.7,57.4,57.4S238.6,593.6,207,593.6z"></path>
	<path style="display:inline;" d="M256.2,432.7v-19.3h41V397h-41v-32.8h24.6v-16.4h-24.6V315h41v-16.4h-41v-32.8h24.6v-16.4h-24.6   v-32.7h41v-16.3h-41v-8.2c0-27.1-22.1-49.2-49.2-49.2s-49.2,22.1-49.2,49.2v240.5c-40,19-65.5,59.1-65.5,103.6   C92.3,599.6,143.8,651,207,651s114.7-51.5,114.7-114.7C321.7,491.7,296.2,451.6,256.2,432.7z M207,634.6   c-54.2,0-98.3-44.1-98.3-98.3c0-69.6,65.5-92.9,65.5-92.9V192.2c0-18.1,14.7-32.8,32.8-32.8s32.8,14.7,32.8,32.8v251.3   c0,0,65.5,22.8,65.5,92.9C305.3,590.5,261.2,634.6,207,634.6z"></path>
</g>
<g id="Layer_2">
	<path d="M205.667,209.536c-141.15,0-256,114.85-256,256c0,22.09,2.81,43.54,8.1,64h173.99c17.77,26.84,45,42.67,73.91,42.67   s56.14-15.83,73.91-42.67h173.99c5.29-20.46,8.1-41.91,8.1-64C461.667,324.385,346.817,209.536,205.667,209.536z M436.377,508.206   h-162.72c-3.79-0.01-7.29,2-9.21,5.27c-3.52,6-7.57,11.38-12.05,16.06c-13,13.6-29.56,21.33-46.73,21.33s-33.73-7.73-46.73-21.33   c-4.48-4.68-8.53-10.06-12.05-16.06c-1.92-3.27-5.42-5.28-9.21-5.27h-162.72c-2.62-14.08-3.94-28.36-3.96-42.67   c0-129.4,105.27-234.67,234.67-234.67s234.67,105.27,234.67,234.67C440.317,479.846,438.997,494.126,436.377,508.206z"></path>
	<path d="M205.667,508.202c23.44,0.119,42.539-18.786,42.658-42.226c0.053-10.359-3.685-20.38-10.509-28.174l60.725-60.725   c4.093-4.237,3.976-10.99-0.262-15.083c-4.134-3.993-10.687-3.993-14.821,0l-63.509,63.509c-4.573-1.698-9.405-2.589-14.283-2.635   c-23.564,0-42.667,19.103-42.667,42.667C163,489.1,182.103,508.202,205.667,508.202z M205.667,444.202   c11.782,0,21.333,9.551,21.333,21.333s-9.551,21.333-21.333,21.333s-21.333-9.551-21.333-21.333S193.885,444.202,205.667,444.202z"></path>
	<path d="M205.667,305.536c5.891,0,10.667-4.776,10.667-10.667v-42.667c0-5.891-4.776-10.667-10.667-10.667S195,246.311,195,252.202   v42.667C195,300.76,199.776,305.536,205.667,305.536z"></path>
	<path d="M365.667,465.536c0,5.891,4.776,10.667,10.667,10.667H419c5.891,0,10.667-4.776,10.667-10.667   c0-5.891-4.776-10.667-10.667-10.667h-42.667C370.442,454.869,365.667,459.645,365.667,465.536z"></path>
	<path d="M-7.667,476.202H35c5.891,0,10.667-4.776,10.667-10.667c0-5.891-4.776-10.667-10.667-10.667H-7.667   c-5.891,0-10.667,4.776-10.667,10.667C-18.333,471.427-13.558,476.202-7.667,476.202z"></path>
	<path d="M110.104,321.354c2.912,5.121,9.424,6.912,14.545,4c5.121-2.912,6.912-9.424,4-14.545c-0.023-0.041-0.047-0.081-0.07-0.122   l-18.133-31.477c-2.979-5.082-9.514-6.787-14.596-3.808c-5.035,2.951-6.763,9.401-3.878,14.475L110.104,321.354z"></path>
	<path d="M355.192,389.877c1.872,0,3.712-0.493,5.333-1.429l31.477-18.133c5.121-2.912,6.912-9.424,4-14.545   c-2.912-5.121-9.424-6.912-14.545-4c-0.041,0.023-0.081,0.047-0.122,0.07l-31.477,18.133c-5.102,2.946-6.849,9.469-3.904,14.571   C347.861,387.844,351.382,389.877,355.192,389.877z"></path>
	<path d="M19.341,370.282l31.477,18.133c5.082,2.98,11.617,1.275,14.597-3.807c2.98-5.082,1.275-11.617-3.807-14.597   c-0.041-0.024-0.082-0.048-0.124-0.071l-31.477-18.133c-5.082-2.979-11.617-1.274-14.596,3.808   c-2.979,5.082-1.274,11.617,3.808,14.596C19.26,370.236,19.301,370.259,19.341,370.282L19.341,370.282z"></path>
	<path d="M286.659,325.269c5.102,2.945,11.625,1.198,14.571-3.904l18.133-31.477c2.912-5.121,1.121-11.633-4-14.545   c-5.073-2.885-11.523-1.157-14.475,3.878l-18.133,31.477C279.809,315.8,281.557,322.323,286.659,325.269z"></path>
</g>
<g id="Layer_3" style="display:none;">
	<g style="display:inline;">
		<g>
			<path d="M293.629,407.019c0,4.325-3.508,7.833-7.833,7.833s-7.833-3.508-7.833-7.833c0-4.325,3.508-7.833,7.833-7.833     S293.629,402.694,293.629,407.019L293.629,407.019z M293.629,407.019"></path>
			<path d="M293.629,289.016l14.839-29.678c0.543-1.081,0.828-2.297,0.828-3.504v-47.001c0-4.325-3.508-7.833-7.833-7.833H113.46     c-4.325,0-7.833,3.508-7.833,7.833v47.001c0,1.175,0.274,2.322,0.775,3.378c0.021,0.041,0.032,0.086,0.053,0.126l14.839,29.678     v225.038c0,0-14.839,29.674-14.839,29.678c-0.543,1.081-0.828,2.297-0.828,3.504v47.001c0,4.325,3.508,7.833,7.833,7.833h188.002     c4.325,0,7.833-3.508,7.833-7.833c0,0,0-46.996,0-47.001c0-1.188-0.298-2.444-0.828-3.504l-14.839-29.678v-71.785     c0-4.317-3.517-7.833-7.833-7.833c-4.317,0-7.833,3.517-7.833,7.833v65.801H136.961V295.001h141.002v76.767     c0,4.317,3.517,7.833,7.833,7.833c4.317,0,7.833-3.517,7.833-7.833V289.016z M121.294,216.667h172.335v31.334H121.294V216.667z      M293.629,586.404H121.294V555.07h172.335V586.404z M280.952,523.737l7.833,15.667H126.137l7.833-15.667H280.952z      M133.97,279.334l-7.833-15.667h162.649l-7.833,15.667H133.97z M133.97,279.334"></path>
		</g>
		<path d="M282.405,292.819l-33.506,41.838c-2.951,3.685-0.328,9.148,4.394,9.148h67.013c4.721,0,7.345-5.463,4.394-9.148    l-33.506-41.838C288.939,290.006,284.658,290.006,282.405,292.819z"></path>
		<path d="M290.189,510.26l33.506-41.838c2.951-3.685,0.328-9.148-4.394-9.148h-67.013c-4.721,0-7.345,5.463-4.394,9.148    l33.506,41.838C283.655,513.074,287.936,513.074,290.189,510.26z"></path>
	</g>
</g>
</svg>