<svg xmlns="http://www.w3.org/2000/svg" xmlns:xlink="http://www.w3.org/1999/xlink" id="Layer_1" x="0px" y="0px" viewBox="0 0 683.34 113.65" style="enable-background:new 0 0 683.34 113.65;" xml:space="preserve">
<style type="text/css">
	.st0{fill:#1A428A;}
	.st1{font-family:'Tahoma-Bold';}
	.st2{font-size:15.0309px;}
</style>
<g id="TRACE_THERM_2_">
	<g>
		<path class="st0" d="M28.11,78.74V27.48H9.4V15.39h53.35v12.08H44.02v51.26H28.11z"></path>
		<path class="st0" d="M127.87,78.74h-19.4L90.82,55.51h-5.7v23.23H69.29V15.39h25.48c3.52,0,6.58,0.22,9.19,0.66    c2.61,0.44,5.02,1.35,7.23,2.74c2.27,1.45,4.07,3.28,5.4,5.51c1.33,2.23,2,5.06,2,8.49c0,4.85-1.09,8.78-3.28,11.8    c-2.18,3.02-5.1,5.42-8.76,7.21L127.87,78.74z M102.26,34.79c0-1.59-0.31-2.96-0.91-4.1c-0.61-1.15-1.62-2.03-3.04-2.66    c-0.99-0.43-2.1-0.69-3.32-0.81c-1.22-0.11-2.74-0.17-4.55-0.17h-5.32v17.06h4.55c2.21,0,4.09-0.13,5.64-0.4    c1.55-0.27,2.86-0.84,3.94-1.72c1.02-0.79,1.78-1.74,2.28-2.85C102.01,38.03,102.26,36.58,102.26,34.79z"></path>
		<path class="st0" d="M125.75,78.74l21.4-63.34h17.36l21.4,63.34h-16.38l-3.96-12.93h-19.91l-3.96,12.93H125.75z M162.08,54.32    l-6.47-20.89l-6.47,20.89H162.08z"></path>
		<path class="st0" d="M219.5,79.97c-9.5,0-17.04-2.87-22.63-8.61c-5.59-5.74-8.38-13.82-8.38-24.23c0-10.04,2.8-18.04,8.4-24.01    c5.6-5.97,13.15-8.95,22.65-8.95c2.52,0,4.79,0.14,6.81,0.43c2.01,0.28,3.94,0.68,5.79,1.19c1.45,0.43,3.02,1.01,4.72,1.74    c1.7,0.74,3.08,1.38,4.13,1.91v15.1h-1.62c-0.77-0.68-1.73-1.5-2.89-2.45c-1.16-0.95-2.48-1.88-3.96-2.79    c-1.48-0.91-3.1-1.68-4.87-2.32s-3.62-0.96-5.55-0.96c-2.3,0-4.4,0.36-6.32,1.08s-3.74,1.98-5.47,3.76    c-1.59,1.62-2.89,3.8-3.89,6.55c-1.01,2.75-1.51,6-1.51,9.74c0,3.94,0.52,7.25,1.57,9.93s2.43,4.84,4.13,6.49    c1.64,1.59,3.48,2.74,5.51,3.45c2.03,0.71,4.05,1.06,6.06,1.06c2.1,0,4.1-0.35,6-1.04c1.9-0.69,3.5-1.47,4.81-2.32    c1.42-0.88,2.67-1.77,3.74-2.68c1.08-0.91,2.01-1.72,2.81-2.42h1.45v14.89c-1.16,0.54-2.51,1.16-4.04,1.85    c-1.53,0.7-3.11,1.28-4.72,1.77c-1.99,0.6-3.84,1.05-5.57,1.36C224.92,79.81,222.54,79.97,219.5,79.97z"></path>
		<path class="st0" d="M250.35,78.74V15.39h42.84v12.08h-27.01v11.1h24.89v12.08h-24.89v16h27.01v12.08H250.35z"></path>
		<path class="st0" d="M330.28,56.7h-28.2V44.88h28.2V56.7z"></path>
		<path class="st0" d="M353.68,78.74V27.48h-18.72V15.39h53.35v12.08h-18.72v51.26H353.68z"></path>
		<path class="st0" d="M448.33,78.74h-15.91V50.66h-21.65v28.08h-15.91V15.39h15.91v23.18h21.65V15.39h15.91V78.74z"></path>
		<path class="st0" d="M461.43,78.74V15.39h42.84v12.08h-27.01v11.1h24.89v12.08h-24.89v16h27.01v12.08H461.43z"></path>
		<path class="st0" d="M573.61,78.74h-19.4l-17.65-23.23h-5.7v23.23h-15.82V15.39h25.48c3.52,0,6.58,0.22,9.19,0.66    c2.61,0.44,5.02,1.35,7.23,2.74c2.27,1.45,4.07,3.28,5.4,5.51c1.33,2.23,2,5.06,2,8.49c0,4.85-1.09,8.78-3.28,11.8    c-2.18,3.02-5.1,5.42-8.76,7.21L573.61,78.74z M548,34.79c0-1.59-0.31-2.96-0.92-4.1c-0.61-1.15-1.62-2.03-3.04-2.66    c-0.99-0.43-2.1-0.69-3.32-0.81c-1.22-0.11-2.74-0.17-4.55-0.17h-5.32v17.06h4.55c2.21,0,4.09-0.13,5.64-0.4    c1.55-0.27,2.86-0.84,3.94-1.72c1.02-0.79,1.78-1.74,2.28-2.85C547.76,38.03,548,36.58,548,34.79z"></path>
		<path class="st0" d="M643,78.74h-15.83V36.75l-11.53,27.1H604.8l-11.53-27.1v41.99h-14.97V15.39h18.33l14.04,31.27l14-31.27H643    V78.74z"></path>
	</g>
	<text transform="matrix(0.9041 0 0 1 646.1257 26.2268)" class="st0 st1 st2">TM</text>
</g>
</svg>