<svg xmlns="http://www.w3.org/2000/svg" xmlns:xlink="http://www.w3.org/1999/xlink" id="Layer_1" x="0px" y="0px" viewBox="0 0 683.34 113.65" style="enable-background:new 0 0 683.34 113.65;" xml:space="preserve">
<style type="text/css">
	.st0{fill:#1A428A;}
	.st1{fill:#1A428A;stroke:#184388;stroke-width:0.5;stroke-miterlimit:10;}
</style>
<g>
	<g id="XTRU_THERM">
		<g>
			<path class="st0" d="M108.86,79.08H90.39L78.23,58.87L65.8,79.08H48.19l20.55-31.91L49,15.74h18.42l11.4,19.1l11.7-19.1h17.65     l-19.87,30.8L108.86,79.08z"></path>
			<path class="st0" d="M127.06,79.08V27.82h-18.72V15.74h53.35v12.08h-18.72v51.26H127.06z"></path>
			<path class="st0" d="M226.82,79.08h-19.4l-17.65-23.23h-5.7v23.23h-15.83V15.74h25.48c3.52,0,6.58,0.22,9.19,0.66     c2.61,0.44,5.02,1.35,7.23,2.74c2.27,1.45,4.07,3.28,5.4,5.51c1.33,2.23,2,5.06,2,8.49c0,4.85-1.09,8.78-3.28,11.8     c-2.18,3.02-5.1,5.42-8.76,7.21L226.82,79.08z M201.21,35.13c0-1.59-0.31-2.96-0.91-4.1c-0.61-1.15-1.62-2.03-3.04-2.66     c-0.99-0.43-2.1-0.69-3.32-0.81c-1.22-0.11-2.74-0.17-4.55-0.17h-5.32v17.06h4.55c2.21,0,4.09-0.13,5.64-0.4     c1.55-0.27,2.86-0.84,3.94-1.72c1.02-0.79,1.78-1.74,2.28-2.85C200.96,38.37,201.21,36.92,201.21,35.13z"></path>
			<path class="st0" d="M257.11,80.4c-8.51,0-15.05-2.06-19.63-6.17c-4.58-4.11-6.87-10.12-6.87-18.04V15.74h15.91v39.52     c0,4.4,0.83,7.67,2.49,9.83c1.66,2.16,4.36,3.23,8.1,3.23c3.66,0,6.35-1.04,8.06-3.11c1.72-2.07,2.57-5.39,2.57-9.95V15.74h15.91     v40.41c0,7.8-2.23,13.79-6.7,17.97C272.49,78.31,265.87,80.4,257.11,80.4z"></path>
			<path class="st0" d="M322.2,57.04h-28.2V45.22h28.2V57.04z"></path>
			<path class="st0" d="M345.6,79.08V27.82h-18.72V15.74h53.35v12.08h-18.72v51.26H345.6z"></path>
			<path class="st0" d="M440.25,79.08h-15.91V51h-21.65v28.08h-15.91V15.74h15.91v23.18h21.65V15.74h15.91V79.08z"></path>
			<path class="st0" d="M453.35,79.08V15.74h42.84v12.08h-27.01v11.1h24.89V51h-24.89v16h27.01v12.08H453.35z"></path>
			<path class="st0" d="M565.53,79.08h-19.4l-17.65-23.23h-5.7v23.23h-15.82V15.74h25.48c3.52,0,6.58,0.22,9.19,0.66     c2.61,0.44,5.02,1.35,7.23,2.74c2.27,1.45,4.07,3.28,5.4,5.51c1.33,2.23,2,5.06,2,8.49c0,4.85-1.09,8.78-3.28,11.8     c-2.18,3.02-5.1,5.42-8.76,7.21L565.53,79.08z M539.92,35.13c0-1.59-0.31-2.96-0.92-4.1c-0.61-1.15-1.62-2.03-3.04-2.66     c-0.99-0.43-2.1-0.69-3.32-0.81c-1.22-0.11-2.74-0.17-4.55-0.17h-5.32v17.06h4.55c2.21,0,4.09-0.13,5.64-0.4     c1.55-0.27,2.86-0.84,3.94-1.72c1.02-0.79,1.78-1.74,2.28-2.85C539.67,38.37,539.92,36.92,539.92,35.13z"></path>
			<path class="st0" d="M634.91,79.08h-15.83V37.09l-11.53,27.1h-10.85l-11.53-27.1v41.99h-14.97V15.74h18.33L602.58,47l14-31.27     h18.33V79.08z"></path>
		</g>
	</g>
	<g>
		<path class="st1" d="M646.43,16.49c0.89,0.5,1.59,1.22,2.09,2.13c0.5,0.92,0.75,1.98,0.75,3.18c0,1.18-0.25,2.24-0.75,3.16    c-0.5,0.92-1.2,1.65-2.1,2.17c-0.9,0.52-1.93,0.78-3.09,0.78c-1.16,0-2.19-0.26-3.09-0.78c-0.9-0.52-1.6-1.24-2.1-2.17    c-0.5-0.92-0.75-1.98-0.75-3.16c0-1.2,0.25-2.27,0.75-3.18c0.5-0.92,1.2-1.63,2.09-2.13c0.9-0.5,1.93-0.76,3.1-0.76    C644.5,15.74,645.53,15.99,646.43,16.49z M646.18,26.61c0.81-0.45,1.43-1.09,1.87-1.92c0.44-0.83,0.65-1.78,0.65-2.88    c0-1.11-0.22-2.09-0.65-2.94c-0.44-0.84-1.06-1.49-1.87-1.95c-0.81-0.46-1.76-0.69-2.85-0.69c-1.09,0-2.04,0.23-2.86,0.69    c-0.82,0.46-1.44,1.11-1.88,1.95c-0.44,0.84-0.65,1.82-0.65,2.94c0,1.09,0.22,2.05,0.65,2.88c0.44,0.83,1.06,1.47,1.88,1.92    c0.81,0.45,1.77,0.68,2.86,0.68C644.42,27.29,645.37,27.06,646.18,26.61z M645.73,21.4c-0.39,0.38-0.94,0.6-1.68,0.65l2.25,3.39    h-0.93l-2.2-3.37h-1.31v3.37h-0.83v-7.71h2.62c0.88,0,1.55,0.2,1.99,0.59s0.66,0.91,0.66,1.57    C646.31,20.52,646.12,21.02,645.73,21.4z M645.45,19.97c0-0.48-0.14-0.85-0.43-1.1c-0.29-0.25-0.76-0.38-1.43-0.38h-1.72v2.98    h1.72C644.83,21.47,645.45,20.97,645.45,19.97z"></path>
	</g>
</g>
</svg>