<svg xmlns="http://www.w3.org/2000/svg" xmlns:xlink="http://www.w3.org/1999/xlink" id="Capa_1" x="0px" y="0px" viewBox="0 0 512 512" style="enable-background:new 0 0 512 512;" xml:space="preserve">
<style type="text/css">
	.st0{clip-path:url(#SVGID_2_);}
	.st1{clip-path:url(#SVGID_4_);}
</style>
<g>
	<g>
		<g>
			<defs>
				<rect id="SVGID_1_" x="17.2" y="18.4" width="476.4" height="476.4"></rect>
			</defs>
			<clipPath id="SVGID_2_">
				<use xlink:href="#SVGID_1_" style="overflow:visible;"></use>
			</clipPath>
			<path class="st0" d="M233.6,249.3c-8,8-8,21,0,29c8,8,21,8,29,0c8-8,8-21,0-29C254.6,241.3,241.6,241.3,233.6,249.3L233.6,249.3z      M252.7,259.2c2.5,2.5,2.5,6.7,0,9.2c-2.6,2.5-6.7,2.5-9.2,0c-2.6-2.5-2.6-6.7,0-9.2C246,256.6,250.1,256.6,252.7,259.2     L252.7,259.2z"></path>
		</g>
		<g>
			<defs>
				<rect id="SVGID_3_" x="17.2" y="18.4" width="476.4" height="476.4"></rect>
			</defs>
			<clipPath id="SVGID_4_">
				<use xlink:href="#SVGID_3_" style="overflow:visible;"></use>
			</clipPath>
			<path class="st1" d="M141.9,494.8c7.1,0,13-2.1,17.3-6.4c1.4-1.4-2.5,3.5,59.8-77.7v0.8c0,6.1,6.9,9.8,11.9,6.3l16.1-11     c0.7-0.4,1.5-0.4,2.2,0l16.1,11c5.1,3.5,11.9-0.2,11.9-6.3V393l7.9,16.6c2.6,5.5,10.4,5.9,13.5,0.6l9.8-16.9     c0.4-0.7,1.2-1.1,2-0.9l19.3,3c6.1,0.9,10.7-5.3,8.1-10.8l-33.6-70.8c2.4-3.4,5.6-6.2,9.5-8.1l7.6-3.7c5.1-2.5,7.3-8.4,5.4-13.6     c19-17.7,39.1-34.7,59.7-50.5c106.6-81.7,99.5-76.1,100.9-77.5c9-9,8.4-25.2-1.6-45.7c0.7-4.9-0.2-11.6-4.3-20.6     c-1.6-3.5-5.7-5.1-9.2-3.5c-3.5,1.6-5.1,5.7-3.5,9.2c4.3,9.6,3.3,13.7,2.6,14.4c0,0-0.1,0.1-0.1,0.1c-8.4,6.2-28.3,1.4-51.7-12     l3.1-3.1c3.6-3.6,3.7-9.6,0.1-13.2c-10.1-10.4-18-21.4-22.3-31c-4.3-9.5-3.3-13.7-2.6-14.4c0.1-0.1,0.2-0.2,0.4-0.3     c0.3-0.1,0.6-0.2,1-0.3c5.6-1.1,24.1,5.6,45.6,27.2c2.3,2.3,4.5,4.6,6.6,7c2.5,2.9,7,3.2,9.8,0.6c2.9-2.6,3.2-7,0.6-9.8     c-2.3-2.6-4.7-5.1-7.2-7.6c-18.6-18.6-41.9-33-57.2-31c-20.6-10-36.8-10.6-45.8-1.6c-0.7,0.7-1.4,1.5-2.1,2.4     c-81.2,106-80.1,104.8-90.2,117.2c-3.7,4.6-0.4,11.4,5.4,11.4c2,0,4-0.9,5.4-2.6c10.4-12.7,10.2-12.7,76.7-99.6     c1,4.1,2.5,8.1,4.1,11.9c11.2,26.3,35.4,53.5,57.7,71.7c-86.6,66.4-100.6,76.4-126.6,99c-8-9.8-19.6-15.6-32.2-16.1     c-6.1-7.7-11.9-15.8-17.1-24.2c5.1-5.5,10.2-11.1,15.2-16.7c2.6-2.9,2.3-7.3-0.6-9.8c-2.9-2.6-7.3-2.3-9.8,0.6     c-4.5,5.1-9.2,10.2-13.9,15.3c-5.2-2-11.1,0.3-13.6,5.4l-3.7,7.6c-2.8,5.7-7.7,10.1-13.6,12.4l-4.6,1.7     c-5.8,2.2-8.6,8.8-6.1,14.5c-18.3,17-37.6,33.2-57.4,48.4c-105.9,81.1-99.5,76.1-100.9,77.5c-8.5,8.5-8.4,23.8,0.3,42.9     C44.4,441,105.8,494.8,141.9,494.8L141.9,494.8z M257,395.2c-5.4-3.7-12.5-3.7-17.9,0l-6.3,4.3v-39.8c0-3.9-3.1-7-7-7     c-3.9,0-7,3.1-7,7v28c-73.7,96.3-69.2,90.4-69.6,90.8c-5.2,5.2-22.6,1.9-45.6-13.5l115.3-150.5V327c0,3.9,3.1,7,7,7     c3.8,0,7-3.1,7-7v-22.2c9.4,3.5,20.2,3.8,30.4,0v94.6L257,395.2z M312.6,378.6c-6.5-1-12.8,2-16.2,7.7l-3.8,6.5l-15.4-32.3v-64.1     c0.8-0.7,1.5-1.4,2.2-2.1l40.6,85.5L312.6,378.6z M297.6,300.1l-9.2-19.4c0.4-0.9,0.7-1.9,1.1-2.8c6.6,5,13.5,9.7,20.5,14     C305.8,294,302.2,295.7,297.6,300.1L297.6,300.1z M476.1,128c4.8,12.4,3.9,19.8,1.1,22.5c-3.4,3.4-12.7,3.4-26.9-3L476.1,128z      M409.4,92.6l-2.3,2.3c-10.6-7.1-21.3-15.5-31.8-24.8l10.3-13.5C389.9,68.1,398.9,81.2,409.4,92.6L409.4,92.6z M383.9,35.7     l-18.7,24.7c-0.7-0.7-1.5-1.4-2.2-2.1c-4.5-11.2-5.1-20.1-1.6-23.7C364.1,31.9,371.4,31,383.9,35.7L383.9,35.7z M390,99.9     c17,12.4,39.8,26.2,60.6,30l-13.8,10.4C419.8,129.9,403.1,114.9,390,99.9L390,99.9z M420,146c11.1,7.8,25.1,15.9,38.2,19.2     l-80.5,61.6c-21.4,16.4-42.1,34-61.8,52.4c-8.3-5.2-16.4-11-24.2-17.1c-0.2-4.6-1.1-9.2-2.7-13.5C315.9,225,328.5,216.1,420,146     L420,146z M269.1,284.9c-11.6,11.6-30.5,11.6-42.1,0c-11.6-11.6-11.6-30.5,0-42.1c11.6-11.6,30.5-11.6,42.1,0     C280.7,254.3,280.7,273.2,269.1,284.9L269.1,284.9z M197.5,223.7c9.3-3.5,16.8-10.4,21.2-19.3l1.2-2.5c4.4,7,9,13.9,14,20.5     c-11.1,3.7-19.7,11.6-24.7,21.2c-4.6-6.4-8.9-12.8-12.9-19.5L197.5,223.7z M33.4,362.6c0.4-0.4-6,4.5,99.5-76.3     c19.4-14.8,38.3-30.7,56.3-47.3c4.7,7.4,9.8,14.6,15.3,21.4c-0.9,12.1,3.2,24.5,12.3,33.9L92.4,456.8     c-6.7-5.3-13.3-11.1-19.7-17.5C37.3,403.8,25.8,370.2,33.4,362.6L33.4,362.6z"></path>
		</g>
	</g>
</g>
</svg>