<svg xmlns="http://www.w3.org/2000/svg" xmlns:xlink="http://www.w3.org/1999/xlink" id="Capa_1" x="0px" y="0px" viewBox="0 0 512 512" style="enable-background:new 0 0 512 512;" xml:space="preserve">
<path d="M106.3,190.5c0,82.6,67.2,149.7,149.7,149.7c82.6,0,149.7-67.2,149.7-149.7S338.6,40.8,256,40.8  C173.5,40.8,106.3,107.9,106.3,190.5L106.3,190.5z M256,60.7c71.5,0,129.7,58.2,129.7,129.7S327.5,320.2,256,320.2  c-71.5,0-129.7-58.2-129.7-129.7S184.5,60.7,256,60.7L256,60.7z"></path>
<path d="M163.6,172.7l38.7,38.1l-8.9,53.6c-0.6,3.7,0.9,7.5,4,9.7c3.1,2.2,7.1,2.5,10.5,0.8l48.2-25l48.2,25  c3.3,1.7,7.4,1.5,10.5-0.8c3.1-2.2,4.6-6,4-9.7l-8.9-53.6l38.7-38.1c2.7-2.7,3.7-6.6,2.5-10.2c-1.2-3.6-4.3-6.2-8-6.8l-53.7-8.1  L264.9,99c-1.7-3.4-5.1-5.5-8.9-5.5s-7.2,2.1-8.9,5.5l-24.3,48.6l-53.7,8.1c-3.7,0.6-6.8,3.2-8,6.8  C159.9,166.1,160.9,170,163.6,172.7L163.6,172.7z M230.9,166.6c3.2-0.5,6-2.5,7.4-5.4l17.7-35.4l17.7,35.4c1.5,2.9,4.2,4.9,7.4,5.4  l39.1,5.9L292,200.2c-2.3,2.3-3.4,5.5-2.8,8.8l6.5,39l-35.1-18.2c-1.4-0.7-3-1.1-4.6-1.1c-1.6,0-3.2,0.4-4.6,1.1l-35.1,18.2l6.5-39  c0.5-3.2-0.5-6.5-2.8-8.8l-28.2-27.7L230.9,166.6z"></path>
<path d="M266,10.8c0,5.5-4.5,10-10,10c-5.5,0-10-4.5-10-10c0-5.5,4.5-10,10-10C261.5,0.8,266,5.3,266,10.8L266,10.8z"></path>
<path d="M209,6.7c-84,21.4-142.6,97-142.6,183.7c0,53.9,22.7,104.7,62.4,140.6l-60.1,106c-1.9,3.4-1.7,7.6,0.6,10.8  c2.3,3.2,6.3,4.7,10.1,3.9l68.3-14.2l24,67.6c1.3,3.7,4.6,6.3,8.5,6.6c3.9,0.3,7.6-1.6,9.6-5L256,390.3l66.3,116.5  c1.8,3.1,5.1,5,8.7,5c0.3,0,0.6,0,0.9,0c3.9-0.3,7.2-2.9,8.5-6.6l24-67.6l68.3,14.2c3.8,0.8,7.8-0.7,10.1-3.9  c2.3-3.2,2.6-7.4,0.6-10.8l-60.1-106c39.8-36,62.4-86.7,62.4-140.6C445.6,103.7,387,28.2,303,6.7c-5.3-1.4-10.8,1.9-12.1,7.2  c-1.4,5.3,1.9,10.8,7.2,12.1c75.1,19.2,127.6,86.8,127.6,164.4c0,94.5-76.7,169.7-169.7,169.7c-93,0-169.7-75.3-169.7-169.7  c0-77.6,52.5-145.2,127.6-164.4c5.3-1.4,8.6-6.8,7.2-12.1C219.7,8.6,214.3,5.4,209,6.7L209,6.7z M183.2,478l-19.6-55.3  c-1.7-4.7-6.5-7.5-11.4-6.4l-55.2,11.5l47.6-83.9c27.7,20.2,60.6,32.5,94.8,35.5L183.2,478z M359.9,416.3c-4.9-1-9.8,1.7-11.4,6.4  L328.8,478l-56.1-98.6c34.2-3,67-15.3,94.8-35.5l47.6,83.9L359.9,416.3z"></path>
</svg>