<svg xmlns="http://www.w3.org/2000/svg" xmlns:xlink="http://www.w3.org/1999/xlink" id="Layer_1" x="0px" y="0px" viewBox="0 0 612 792" style="enable-background:new 0 0 612 792;" xml:space="preserve">
<style type="text/css">
	.st0{fill:#0057A3;}
</style>
<path class="st0" d="M608.9,151.4L490.5,33H138.2v437c-77.8,4.5-139.3,70.8-136,150.4c3.1,74.4,63.2,135,137.6,138.4  c56.9,2.6,107-27.8,132.9-73.6h336.2V151.4z M495.5,62l84.4,84.4h-84.4V62z M146.7,742c-72.4,0-130.9-60.6-127.5-133.7  c3.1-65.3,56.1-118.3,121.4-121.4c73.1-3.4,133.7,55.1,133.7,127.5C274.3,684.7,217.1,742,146.7,742L146.7,742z M280.9,668.3  c6.7-16.7,10.4-34.8,10.4-53.9c0-76.9-60.3-140-136.1-144.4V50h323.3v113.4h113.4v504.8H280.9z"></path>
<rect x="214.7" y="123.8" class="st0" width="136.1" height="17"></rect>
<rect x="214.7" y="169.1" class="st0" width="90.8" height="17"></rect>
<rect x="214.7" y="237.2" class="st0" width="317.6" height="17"></rect>
<rect x="214.7" y="282.6" class="st0" width="317.6" height="17"></rect>
<rect x="214.7" y="373.3" class="st0" width="317.6" height="17"></rect>
<rect x="214.7" y="418.7" class="st0" width="226.9" height="17"></rect>
<rect x="214.7" y="327.9" class="st0" width="317.6" height="17"></rect>
<rect x="418.9" y="486.8" class="st0" width="113.4" height="17"></rect>
<path class="st0" d="M198.1,597.7l-12-12l-30.8,30.9v-92.9h-17v92.9l-30.9-30.9l-12,12l51.4,51.4L198.1,597.7z"></path>
<path class="st0" d="M194.9,673.9H98.5v-36.9h-17v53.9h130.5v-53.9h-17V673.9z"></path>
</svg>