<svg xmlns="http://www.w3.org/2000/svg" xmlns:xlink="http://www.w3.org/1999/xlink" id="Layer_1" x="0px" y="0px" viewBox="0 0 112.2 112.2" style="enable-background:new 0 0 112.2 112.2;" xml:space="preserve">
<style type="text/css">
	.st0{fill:none;stroke:#1A428A;stroke-width:5;stroke-miterlimit:10;}
</style>
<path class="st0" d="M97,109.7H15.3C8.2,109.7,2.5,104,2.5,97V15.3c0-7.1,5.7-12.8,12.8-12.8H97c7.1,0,12.8,5.7,12.8,12.8V97  C109.7,104,104,109.7,97,109.7z"></path>
<path class="st0" d="M33.6,56.1V33.6c0-4.8,5.2-7.9,9.4-5.5l19.5,11.2L82,50.7c4.2,2.4,4.2,8.5,0,10.9L62.5,72.8L43,84  c-4.2,2.4-9.4-0.6-9.4-5.5V56.1z"></path>
</svg>