<svg xmlns="http://www.w3.org/2000/svg" xmlns:xlink="http://www.w3.org/1999/xlink" id="Layer_1" x="0px" y="0px" viewBox="0 0 472.89 471.62" style="enable-background:new 0 0 472.89 471.62;" xml:space="preserve">
<style type="text/css">
	.st0{fill:#1D3463;}
	.st1{fill:#1B4785;}
	.st2{fill:#0459A2;}
	.st3{fill:#2978BA;}
	.st4{fill:#6291C5;}
</style>
<g>
	<path class="st0" d="M6.63,232.65C40.32,132.64,155.66,80.86,264.26,117c20.76,6.91,39.75,16.54,56.69,28.29   c-11.93-54.55-43.89-97.58-90.74-113.17C148.1,4.79,51.43,72.02,14.3,182.27C5.59,208.13,0.97,234.05,0,258.94   C1.53,250.14,3.7,241.36,6.63,232.65z"></path>
	<path class="st1" d="M170.87,8.34c106.11,0.94,191.29,93.97,190.28,207.79c-0.19,21.76-3.55,42.69-9.55,62.33   c48.51-28.13,79.81-71.64,80.25-120.75c0.77-86.06-93.43-156.66-210.4-157.7c-27.44-0.24-53.66,3.41-77.78,10.18   C152.57,8.92,161.64,8.26,170.87,8.34z"></path>
	<path class="st2" d="M436.26,94.27c31.89,100.59-30.8,209.87-140.03,244.08c-20.88,6.54-41.94,9.84-62.59,10.23   c41.91,37.16,93.21,53.3,140.34,38.54c82.58-25.87,121.03-136.73,85.88-247.62c-8.25-26.01-19.84-49.67-33.78-70.38   C430.05,77.15,433.49,85.52,436.26,94.27z"></path>
	<path class="st3" d="M436.05,371.7c-86.4,61.23-210.33,35.73-276.82-56.94c-12.71-17.72-22.38-36.61-29.13-56   c-22.61,51.1-22.2,104.58,6.49,144.57c50.27,70.07,168.23,72.16,263.47,4.66c22.34-15.83,41.4-34.1,56.91-53.68   C450.52,360.53,443.57,366.37,436.05,371.7z"></path>
	<g>
		<path class="st4" d="M170.52,457.22c-85.29-62.75-99.19-187.78-31.05-279.27c13.02-17.49,28.11-32.46,44.58-44.84    c-55.88-5.58-106.93,11.33-136.33,50.8c-51.52,69.17-17.06,181.32,76.96,250.5c22.05,16.22,45.42,28.59,68.95,37.21    C185.68,467.45,177.94,462.68,170.52,457.22z"></path>
	</g>
</g>
</svg>