<?xml version="1.0" encoding="UTF-8" standalone="no"?>
<!-- Created with Inkscape (http://www.inkscape.org/) -->

<svg
   width="116.96171mm"
   height="19.659058mm"
   viewBox="0 0 116.96171 19.659058"
   version="1.1"
   id="svg5"
   xml:space="preserve"
   sodipodi:docname="logo-svg.svg"
   inkscape:version="1.2.1 (9c6d41e410, 2022-07-14)"
   xmlns:inkscape="http://www.inkscape.org/namespaces/inkscape"
   xmlns:sodipodi="http://sodipodi.sourceforge.net/DTD/sodipodi-0.dtd"
   xmlns="http://www.w3.org/2000/svg"
   xmlns:svg="http://www.w3.org/2000/svg"><sodipodi:namedview
     id="namedview7"
     pagecolor="#ffffff"
     bordercolor="#000000"
     borderopacity="0.25"
     inkscape:showpageshadow="2"
     inkscape:pageopacity="0.0"
     inkscape:pagecheckerboard="0"
     inkscape:deskcolor="#d1d1d1"
     inkscape:document-units="mm"
     showgrid="false"
     inkscape:zoom="2.737185"
     inkscape:cx="211.53119"
     inkscape:cy="37.264562"
     inkscape:window-width="1600"
     inkscape:window-height="877"
     inkscape:window-x="-8"
     inkscape:window-y="-8"
     inkscape:window-maximized="1"
     inkscape:current-layer="layer1" /><defs
     id="defs2"><rect
       x="-165.88168"
       y="512.13953"
       width="354.31036"
       height="74.083076"
       id="rect531" /></defs><g
     inkscape:label="Layer 1"
     inkscape:groupmode="layer"
     id="layer1"
     transform="translate(-24.184857,-102.2379)"><g
       id="g261"
       transform="matrix(0.25955406,0,0,0.26458333,-67.77784,110.33454)"><g
         id="g224"
         transform="translate(360.42663,-38.599533)"
         inkscape:export-filename="logo-svg.svg"
         inkscape:export-xdpi="96"
         inkscape:export-ydpi="96">
	<path
   class="st1"
   d="m 439.59,13.03 c 0.7,0.39 1.24,0.95 1.63,1.67 0.39,0.72 0.59,1.55 0.59,2.49 0,0.92 -0.2,1.75 -0.59,2.47 -0.39,0.72 -0.94,1.29 -1.64,1.7 -0.7,0.41 -1.51,0.61 -2.42,0.61 -0.91,0 -1.71,-0.2 -2.41,-0.61 -0.71,-0.41 -1.25,-0.97 -1.64,-1.7 -0.39,-0.72 -0.59,-1.54 -0.59,-2.47 0,-0.94 0.2,-1.77 0.59,-2.49 0.39,-0.72 0.94,-1.27 1.63,-1.67 0.7,-0.39 1.51,-0.59 2.42,-0.59 0.92,0 1.73,0.2 2.43,0.59 z m -0.2,7.91 c 0.63,-0.35 1.12,-0.85 1.46,-1.5 0.34,-0.65 0.51,-1.4 0.51,-2.25 0,-0.87 -0.17,-1.64 -0.51,-2.29 -0.34,-0.66 -0.83,-1.17 -1.46,-1.53 -0.63,-0.36 -1.37,-0.54 -2.23,-0.54 -0.85,0 -1.6,0.18 -2.23,0.54 -0.64,0.36 -1.13,0.87 -1.47,1.53 -0.34,0.66 -0.51,1.42 -0.51,2.29 0,0.85 0.17,1.6 0.51,2.25 0.34,0.65 0.83,1.15 1.47,1.5 0.64,0.35 1.38,0.53 2.23,0.53 0.86,0 1.6,-0.18 2.23,-0.53 z m -0.35,-4.07 c -0.3,0.3 -0.74,0.47 -1.31,0.51 l 1.76,2.65 h -0.73 l -1.72,-2.64 h -1.02 v 2.64 h -0.65 V 14 h 2.05 c 0.69,0 1.21,0.15 1.55,0.46 0.35,0.31 0.52,0.71 0.52,1.22 0,0.5 -0.15,0.89 -0.45,1.19 z m -0.22,-1.12 c 0,-0.38 -0.11,-0.66 -0.34,-0.86 -0.22,-0.2 -0.6,-0.3 -1.12,-0.3 h -1.35 v 2.33 h 1.35 c 0.98,0 1.46,-0.39 1.46,-1.17 z"
   id="path222" />
</g><path
         class="st2"
         d="m 355.36038,6.0604673 c 5.3,-15.76 23.48,-23.9200003 40.58,-18.2300003 3.27,1.09 6.26,2.6100003 8.93,4.4600003 -1.88,-8.5900003 -6.91,-15.3700003 -14.3,-17.8300003 -12.93,-4.3 -28.16,6.29 -34.01,23.6600003 -1.37,4.07 -2.1,8.15 -2.25,12.0799997 0.24,-1.3899997 0.58,-2.7699997 1.05,-4.1399997 z"
         id="path226" /><path
         class="st3"
         d="m 381.23038,-29.289533 c 16.72,0.15 30.14,14.81 29.98,32.7400003 -0.03,3.43 -0.56,6.7299997 -1.5,9.8199997 7.64,-4.4299997 12.57,-11.2899997 12.64,-19.0199997 0.12,-13.5600003 -14.72,-24.6900003 -33.15,-24.8500003 -4.32,-0.04 -8.45,0.54 -12.25,1.6 1.4,-0.19 2.83,-0.3 4.28,-0.29 z"
         id="path228" /><path
         class="st0"
         d="m 423.04038,-15.749533 c 5.02,15.85000031 -4.85,33.06 -22.06,38.45 -3.29,1.03 -6.61,1.55 -9.86,1.61 6.6,5.85 14.69,8.4 22.11,6.07 13.01,-4.08 19.07,-21.5399997 13.53,-39.0099997 -1.3,-4.1000003 -3.13,-7.8300003 -5.32,-11.0900003 0.63,1.27 1.17,2.59 1.6,3.97 z"
         id="path230" /><path
         class="st4"
         d="m 423.01038,27.960467 c -13.61,9.65 -33.14,5.63 -43.61,-8.97 -2,-2.79 -3.53,-5.77 -4.59,-8.82 -3.56,8.05 -3.5,16.48 1.02,22.78 7.92,11.04 26.5,11.37 41.51,0.73 3.52,-2.49 6.52,-5.37 8.97,-8.46 -1.02,0.98 -2.12,1.9 -3.3,2.74 z"
         id="path232" /><g
         id="g236"
         transform="translate(354.31038,-30.599533)">
	<path
   class="st5"
   d="M 26.87,72.04 C 13.43,62.15 11.24,42.45 21.98,28.04 24.03,25.28 26.41,22.93 29,20.97 20.2,20.09 12.15,22.76 7.52,28.97 -0.6,39.87 4.83,57.54 19.64,68.44 23.11,71 26.8,72.94 30.5,74.3 29.25,73.65 28.04,72.9 26.87,72.04 Z"
   id="path234" />
</g><text
         xml:space="preserve"
         transform="matrix(1.1661013,0,0,1.4898653,625.02651,-795.94661)"
         id="text529"
         style="font-style:normal;font-variant:normal;font-weight:bold;font-stretch:normal;font-size:48px;font-family:sans-serif;-inkscape-font-specification:'sans-serif Bold';white-space:pre;shape-inside:url(#rect531);display:inline;fill:#0047ba;fill-opacity:1"><tspan
           x="-165.88086"
           y="555.93053"
           id="tspan412">RDILLS-PIPE</tspan></text></g></g><style
     type="text/css"
     id="style202">
	.st0{fill:#0047BA;}
	.st1{fill:#0047BA;stroke:#0047BA;stroke-width:0.5;stroke-miterlimit:10;}
	.st2{fill:#00205C;}
	.st3{fill:#1A428A;}
	.st4{fill:#416BA9;}
	.st5{fill:#6786B8;}
</style></svg>
