<?xml version="1.0" encoding="utf-8"?>
<!-- Generator: Adobe Illustrator 25.2.1, SVG Export Plug-In . SVG Version: 6.00 Build 0)  -->
<svg version="1.1" id="Layer_1" xmlns="http://www.w3.org/2000/svg" xmlns:xlink="http://www.w3.org/1999/xlink" x="0px" y="0px"
	 viewBox="0 0 439.7 26.3" style="enable-background:new 0 0 439.7 26.3;" xml:space="preserve">
<style type="text/css">
	.st0{fill:#0047BA;}
</style>
<g>
	<path class="st0" d="M2.9,10.1c0-5.3,0-6.2-0.1-7.3C2.8,1.6,2.5,1.1,1.4,0.8C1.2,0.8,0.6,0.7,0.3,0.7C0.1,0.7,0,0.7,0,0.5
		c0-0.2,0.2-0.3,0.5-0.3c1.5,0,3.6,0.1,3.8,0.1c0.7,0,2.7-0.1,4.3-0.1c4.2,0,5.8,1.4,6.3,1.9c0.7,0.7,1.7,2.2,1.7,4
		c0,4.8-3.5,8.1-8.3,8.1c-0.2,0-0.5,0-0.7,0c-0.2,0-0.4-0.1-0.4-0.2c0-0.3,0.2-0.3,0.9-0.3c3.3,0,5.9-2.4,5.9-5.5
		c0-1.1-0.1-3.4-1.9-5.2S8.2,1.3,7.5,1.3C6.9,1.3,6.3,1.4,6,1.5C5.8,1.6,5.7,1.8,5.7,2.1v13.9c0,3.3,0,5.9,0.2,7.4
		c0.1,1,0.3,1.7,1.3,1.9c0.5,0.1,1.2,0.1,1.5,0.1C9,25.4,9,25.5,9,25.6c0,0.2-0.2,0.3-0.5,0.3c-1.9,0-4-0.1-4.2-0.1
		c-0.1,0-2.2,0.1-3.3,0.1c-0.4,0-0.5-0.1-0.5-0.3c0-0.1,0.1-0.2,0.3-0.2c0.3,0,0.7-0.1,1-0.1c0.7-0.1,0.8-0.9,1-1.9
		c0.2-1.4,0.2-4.1,0.2-7.4V10.1z"/>
	<path class="st0" d="M26.8,4.7c0.4-0.9,0.5-1.1,0.7-1.1c0.3,0,0.4,0.4,0.7,1.1c0.5,1.2,5.3,13.1,7.2,17.5c1.1,2.6,1.9,2.9,2.5,3.2
		c0.4,0.1,0.9,0.2,1.2,0.2c0.2,0,0.4,0.1,0.4,0.2c0,0.2-0.3,0.2-0.7,0.2c-0.4,0-2.6,0-4.7-0.1c-0.6,0-1.1,0-1.1-0.2
		c0-0.1,0.1-0.1,0.2-0.2c0.2-0.1,0.5-0.3,0.3-0.8L30.8,18c-0.1-0.1-0.1-0.2-0.3-0.2h-6.9c-0.1,0-0.2,0.1-0.3,0.2l-1.7,4.6
		c-0.3,0.7-0.4,1.4-0.4,1.9c0,0.6,0.5,0.8,1,0.8h0.3c0.2,0,0.3,0.1,0.3,0.2c0,0.2-0.2,0.2-0.4,0.2c-0.7,0-2.3-0.1-2.7-0.1
		c-0.3,0-1.8,0.1-3,0.1c-0.4,0-0.6-0.1-0.6-0.2c0-0.1,0.1-0.2,0.3-0.2c0.2,0,0.6,0,0.9-0.1c1.4-0.2,1.9-1.2,2.5-2.6L26.8,4.7z
		 M30.1,16.7c0.1,0,0.1-0.1,0.1-0.2l-2.9-7.9c-0.2-0.4-0.3-0.4-0.5,0L24,16.5c0,0.1,0,0.2,0.1,0.2H30.1z"/>
	<path class="st0" d="M43.4,12.4c0-4.5,0-5.3-0.1-6.2c-0.1-1-0.2-1.5-1.2-1.6c-0.2,0-0.7-0.1-1-0.1c-0.1,0-0.2-0.1-0.2-0.2
		c0-0.2,0.1-0.2,0.5-0.2c1.4,0,3.4,0.1,3.5,0.1c0.3,0,2.8-0.1,3.7-0.1c1.9,0,4,0.2,5.6,1.3c0.7,0.5,2.1,1.9,2.1,3.9
		c0,2.1-0.9,4.2-3.7,6.6c2.4,3.1,4.5,5.7,6.2,7.5c1.6,1.6,2.6,1.9,3.3,2c0.6,0.1,0.9,0.1,1.1,0.1s0.3,0.1,0.3,0.2
		c0,0.2-0.2,0.2-0.7,0.2h-1.9c-1.7,0-2.4-0.2-3.2-0.6c-1.3-0.7-2.4-2.1-4.1-4.2c-1.3-1.6-2.6-3.4-3.2-4.2c-0.1-0.1-0.2-0.2-0.4-0.2
		l-3.8-0.1c-0.1,0-0.2,0.1-0.2,0.2v0.7c0,2.8,0,5,0.1,6.2c0.1,0.8,0.3,1.4,1.2,1.5c0.4,0.1,1.1,0.1,1.3,0.1c0.2,0,0.2,0.1,0.2,0.2
		c0,0.1-0.1,0.2-0.5,0.2c-1.6,0-3.5-0.1-3.7-0.1c0,0-2,0.1-2.9,0.1c-0.3,0-0.5-0.1-0.5-0.2c0-0.1,0.1-0.2,0.2-0.2
		c0.3,0,0.6-0.1,0.9-0.1c0.6-0.1,0.6-0.7,0.8-1.5c0.2-1.2,0.2-3.5,0.2-6.2V12.4z M46,14.9c0,0.2,0.1,0.3,0.2,0.4
		c0.4,0.2,2,0.4,3.3,0.4c0.7,0,1.5,0,2.2-0.5c1-0.7,1.8-2.2,1.8-4.4c0-3.6-2-5.7-5.2-5.7c-0.9,0-1.8,0.1-2.1,0.2
		C46.1,5.4,46,5.5,46,5.6V14.9z"/>
	<path class="st0" d="M71.1,17.5c0,2.8,0,5.1,0.1,6.2c0.1,0.8,0.2,1.4,1.2,1.5c0.4,0.1,1.1,0.1,1.4,0.1c0.2,0,0.2,0.1,0.2,0.2
		c0,0.1-0.1,0.2-0.5,0.2c-1.6,0-3.5-0.1-3.7-0.1c-0.1,0-2.2,0.1-3.1,0.1c-0.3,0-0.5-0.1-0.5-0.2c0-0.1,0.1-0.2,0.2-0.2
		c0.3,0,0.6-0.1,0.9-0.1c0.6-0.1,0.8-0.7,0.9-1.6c0.1-1.2,0.1-3.5,0.1-6.2V5.4l-4.3,0.1c-1.9,0-2.6,0.2-3,0.9
		c-0.3,0.5-0.4,0.7-0.5,0.9c-0.1,0.2-0.2,0.3-0.3,0.3c-0.1,0-0.2-0.1-0.2-0.2c0-0.3,0.6-2.9,0.6-3.1c0-0.2,0.2-0.5,0.3-0.5
		c0.2,0,0.5,0.2,1.3,0.3c0.8,0.1,2,0.1,2.3,0.1H76c1,0,1.7-0.1,2.1-0.1C78.6,4,78.8,3.9,79,3.9s0.1,0.2,0.1,0.3
		c0,0.9-0.1,2.9-0.1,3.3c0,0.2-0.1,0.4-0.3,0.4s-0.2-0.1-0.2-0.5l0-0.3c-0.1-0.9-0.7-1.5-3.6-1.6l-3.7-0.1V17.5z"/>
	<path class="st0" d="M86.6,22c0.1,2.4,0.3,3.1,1.2,3.3c0.5,0.1,1.2,0.2,1.5,0.2c0.1,0,0.2,0.1,0.2,0.2c0,0.2-0.2,0.2-0.5,0.2
		c-1.7,0-2.9-0.1-3.2-0.1c-0.3,0-1.5,0.1-2.9,0.1c-0.3,0-0.5,0-0.5-0.2c0-0.1,0.1-0.2,0.2-0.2c0.2,0,0.8,0,1.2-0.2
		c0.7-0.2,0.8-1,0.8-3.6V5.2c0-1.2,0.2-1.5,0.4-1.5c0.3,0,0.8,0.6,1.2,0.9c0.5,0.5,4.8,5.1,9.4,9.8c2.9,3.1,6.1,6.5,7.1,7.4
		l-0.3-14.4c0-1.9-0.2-2.5-1.1-2.7c-0.5-0.1-1.2-0.1-1.5-0.1c-0.2,0-0.2-0.2-0.2-0.3c0-0.2,0.2-0.2,0.6-0.2c1.4,0,2.8,0.1,3.1,0.1
		s1.3-0.1,2.5-0.1c0.3,0,0.5,0,0.5,0.2c0,0.1-0.1,0.3-0.3,0.3c-0.1,0-0.4,0-0.7,0.1c-1,0.2-1.1,0.8-1.1,2.5L104.2,24
		c0,1.9,0,2.1-0.2,2.1c-0.3,0-0.6-0.2-2.3-1.8c-0.3-0.3-4.6-4.5-7.8-7.8c-3.5-3.6-6.8-7.2-7.7-8.2L86.6,22z"/>
	<path class="st0" d="M112.9,12.4c0-4.5,0-5.3-0.1-6.2c-0.1-1-0.2-1.5-1.2-1.6c-0.2,0-0.7-0.1-1-0.1c-0.1,0-0.2-0.1-0.2-0.2
		c0-0.2,0.1-0.2,0.5-0.2c1.4,0,3.3,0.1,3.5,0.1c0.2,0,6.4,0,7.1,0c0.6,0,1.1-0.1,1.4-0.2c0.1,0,0.3-0.1,0.4-0.1
		c0.1,0,0.1,0.1,0.1,0.3c0,0.2-0.2,0.5-0.2,1.4c0,0.3-0.1,1.6-0.2,1.9c0,0.1-0.1,0.3-0.3,0.3c-0.2,0-0.2-0.1-0.2-0.4
		c0-0.2,0-0.7-0.2-1c-0.2-0.5-0.5-0.7-2.1-0.9c-0.5-0.1-4-0.1-4.3-0.1c-0.1,0-0.2,0.1-0.2,0.3v7.8c0,0.2,0,0.3,0.2,0.3
		c0.4,0,4.3,0,5-0.1c0.7-0.1,1.2-0.1,1.5-0.4c0.2-0.2,0.3-0.4,0.4-0.4c0.1,0,0.2,0.1,0.2,0.2s-0.2,0.6-0.2,1.6
		c-0.1,0.6-0.1,1.7-0.1,1.9c0,0.2-0.1,0.5-0.3,0.5c-0.1,0-0.2-0.1-0.2-0.3c0-0.3,0-0.6-0.1-0.9c-0.1-0.4-0.4-0.7-1.5-0.9
		c-0.8-0.1-4-0.1-4.5-0.1c-0.2,0-0.2,0.1-0.2,0.2v2.4c0,1,0,4.3,0,4.9c0.1,1.9,0.6,2.3,3.6,2.3c0.8,0,2.2,0,3-0.3
		c0.8-0.3,1.2-0.8,1.4-2c0.1-0.3,0.1-0.4,0.3-0.4c0.2,0,0.2,0.2,0.2,0.4s-0.2,2.2-0.4,2.8c-0.2,0.7-0.5,0.7-1.7,0.7
		c-2.2,0-4-0.1-5.2-0.1c-1.3-0.1-2-0.1-2.5-0.1c-0.1,0-0.6,0-1.3,0c-0.6,0-1.3,0.1-1.7,0.1c-0.3,0-0.5-0.1-0.5-0.2
		c0-0.1,0.1-0.2,0.2-0.2c0.3,0,0.6-0.1,0.9-0.1c0.6-0.1,0.6-0.7,0.8-1.5c0.2-1.2,0.2-3.5,0.2-6.2V12.4z"/>
	<path class="st0" d="M131.6,12.4c0-4.5,0-5.3-0.1-6.2c-0.1-1-0.2-1.5-1.2-1.6c-0.2,0-0.7-0.1-1-0.1c-0.1,0-0.2-0.1-0.2-0.2
		c0-0.2,0.1-0.2,0.5-0.2c1.4,0,3.4,0.1,3.5,0.1c0.3,0,2.8-0.1,3.7-0.1c1.9,0,4,0.2,5.6,1.3c0.7,0.5,2.1,1.9,2.1,3.9
		c0,2.1-0.9,4.2-3.7,6.6c2.4,3.1,4.5,5.7,6.2,7.5c1.6,1.6,2.6,1.9,3.3,2c0.6,0.1,0.9,0.1,1.1,0.1s0.3,0.1,0.3,0.2
		c0,0.2-0.2,0.2-0.7,0.2H149c-1.7,0-2.4-0.2-3.2-0.6c-1.3-0.7-2.4-2.1-4.1-4.2c-1.3-1.6-2.6-3.4-3.2-4.2c-0.1-0.1-0.2-0.2-0.4-0.2
		l-3.8-0.1c-0.1,0-0.2,0.1-0.2,0.2v0.7c0,2.8,0,5,0.1,6.2c0.1,0.8,0.3,1.4,1.2,1.5c0.4,0.1,1.1,0.1,1.3,0.1c0.2,0,0.2,0.1,0.2,0.2
		c0,0.1-0.1,0.2-0.5,0.2c-1.6,0-3.5-0.1-3.7-0.1c0,0-2,0.1-2.9,0.1c-0.3,0-0.5-0.1-0.5-0.2c0-0.1,0.1-0.2,0.2-0.2
		c0.3,0,0.6-0.1,0.9-0.1c0.6-0.1,0.6-0.7,0.8-1.5c0.2-1.2,0.2-3.5,0.2-6.2V12.4z M134.1,14.9c0,0.2,0.1,0.3,0.2,0.4
		c0.4,0.2,2,0.4,3.3,0.4c0.7,0,1.5,0,2.2-0.5c1-0.7,1.8-2.2,1.8-4.4c0-3.6-2-5.7-5.2-5.7c-0.9,0-1.8,0.1-2.1,0.2
		c-0.1,0.1-0.2,0.2-0.2,0.3V14.9z"/>
	<path class="st0" d="M151.5,25.5c-0.4-0.2-0.4-0.3-0.4-1.1c0-1.4,0.1-2.6,0.2-3.1c0-0.3,0.1-0.5,0.2-0.5s0.3,0.1,0.3,0.3
		s0,0.6,0.1,1.1c0.5,2.1,2.7,2.8,4.7,2.8c2.9,0,4.5-1.7,4.5-3.8c0-2.1-1.1-3.1-3.8-5l-1.4-1c-3.2-2.4-4.3-4.2-4.3-6.2
		c0-3.4,2.7-5.4,6.6-5.4c1.2,0,2.4,0.2,3.1,0.3c0.6,0.1,0.8,0.1,1.1,0.1s0.3,0,0.3,0.2c0,0.1-0.1,1.1-0.1,3.1c0,0.4,0,0.6-0.2,0.6
		s-0.2-0.1-0.3-0.4c0-0.3-0.3-1.1-0.4-1.4c-0.2-0.3-1.2-1.4-3.9-1.4c-2.2,0-4,1.1-4,3.1c0,1.8,0.9,2.9,3.9,4.9l0.8,0.6
		c3.6,2.5,4.9,4.5,4.9,7c0,1.7-0.6,3.5-2.8,4.9c-1.3,0.8-3.1,1-4.7,1C154.5,26.3,152.8,26.1,151.5,25.5z"/>
	<path class="st0" d="M186.5,16.1c0,3.3,0,5.9,0.2,7.4c0.1,1,0.3,1.7,1.3,1.9c0.5,0.1,1.2,0.1,1.5,0.1c0.2,0,0.3,0.1,0.3,0.2
		c0,0.2-0.2,0.3-0.5,0.3c-1.9,0-4-0.1-4.2-0.1c-0.2,0-2.3,0.1-3.3,0.1c-0.4,0-0.5-0.1-0.5-0.3c0-0.1,0.1-0.2,0.3-0.2
		c0.3,0,0.7-0.1,1-0.1c0.7-0.1,0.8-0.9,1-1.9c0.2-1.4,0.2-4.1,0.2-7.4v-6c0-5.3,0-6.2-0.1-7.3c-0.1-1.2-0.4-1.7-1.2-1.9
		c-0.4-0.1-0.8-0.1-1.1-0.1c-0.1,0-0.3-0.1-0.3-0.2c0-0.2,0.2-0.3,0.5-0.3c1.1,0,3.3,0.1,3.4,0.1c0.2,0,2.3-0.1,3.3-0.1
		c0.4,0,0.5,0.1,0.5,0.3c0,0.1-0.1,0.2-0.3,0.2c-0.2,0-0.4,0-0.8,0.1c-0.9,0.2-1.2,0.7-1.3,1.9c-0.1,1.1-0.1,2-0.1,7.3V16.1z"/>
	<path class="st0" d="M199,22c0.1,2.4,0.3,3.1,1.2,3.3c0.5,0.1,1.2,0.2,1.5,0.2c0.1,0,0.2,0.1,0.2,0.2c0,0.2-0.2,0.2-0.5,0.2
		c-1.7,0-2.9-0.1-3.2-0.1s-1.5,0.1-2.9,0.1c-0.3,0-0.5,0-0.5-0.2c0-0.1,0.1-0.2,0.2-0.2c0.2,0,0.8,0,1.2-0.2c0.7-0.2,0.8-1,0.8-3.6
		V5.2c0-1.2,0.2-1.5,0.4-1.5c0.3,0,0.8,0.6,1.2,0.9c0.5,0.5,4.8,5.1,9.4,9.8c3,3.1,6.1,6.5,7.1,7.4l-0.3-14.4c0-1.9-0.2-2.5-1.1-2.7
		c-0.5-0.1-1.2-0.1-1.5-0.1c-0.2,0-0.2-0.2-0.2-0.3c0-0.2,0.2-0.2,0.6-0.2c1.4,0,2.8,0.1,3.1,0.1s1.3-0.1,2.5-0.1
		c0.3,0,0.5,0,0.5,0.2c0,0.1-0.1,0.3-0.3,0.3c-0.1,0-0.4,0-0.7,0.1c-1,0.2-1.1,0.8-1.1,2.5L216.7,24c0,1.9,0,2.1-0.2,2.1
		c-0.3,0-0.6-0.2-2.3-1.8c-0.3-0.3-4.6-4.5-7.8-7.8c-3.5-3.6-6.8-7.2-7.7-8.2L199,22z"/>
	<path class="st0" d="M237.8,10.1c0-5.3,0-6.2-0.1-7.3c-0.1-1.2-0.3-1.7-1.5-1.9c-0.3-0.1-0.8-0.1-1.2-0.1c-0.1,0-0.3-0.1-0.3-0.2
		c0-0.2,0.2-0.3,0.5-0.3c0.8,0,1.7,0,2.4,0l1.4,0.1c0.2,0,7,0,7.8,0c0.6,0,1.2-0.1,1.5-0.2c0.2,0,0.3-0.2,0.5-0.2
		c0.1,0,0.1,0.1,0.1,0.3c0,0.2-0.2,0.6-0.3,1.6c0,0.3-0.1,1.8-0.2,2.2c0,0.2-0.1,0.4-0.2,0.4c-0.2,0-0.3-0.2-0.3-0.4
		c0-0.2,0-0.8-0.2-1.2c-0.2-0.5-0.6-0.9-2.4-1.2c-0.6-0.1-4.3-0.1-4.6-0.1c-0.1,0-0.2,0.1-0.2,0.3v9.4c0,0.2,0,0.3,0.2,0.3
		c0.4,0,4.6,0,5.4-0.1c0.8-0.1,1.3-0.1,1.6-0.5c0.2-0.3,0.4-0.4,0.5-0.4c0.1,0,0.2,0.1,0.2,0.3c0,0.2-0.2,0.8-0.3,1.9
		c-0.1,0.7-0.1,1.9-0.1,2.2c0,0.3,0,0.6-0.2,0.6c-0.2,0-0.2-0.1-0.2-0.3c0-0.3,0-0.7-0.1-1.1c-0.1-0.5-0.4-1.1-1.8-1.2
		c-0.9-0.1-4.3-0.2-4.8-0.2c-0.2,0-0.2,0.1-0.2,0.2v3c0,1.2,0,5.1,0,5.8c0.1,2.3,0.6,2.8,3.9,2.8c0.9,0,2.4,0,3.3-0.4
		c0.9-0.4,1.3-1.1,1.5-2.4c0.1-0.4,0.1-0.5,0.3-0.5c0.2,0,0.2,0.3,0.2,0.5c0,0.3-0.3,2.6-0.4,3.3c-0.2,0.9-0.5,0.9-1.8,0.9
		c-2.5,0-4.4-0.1-5.7-0.1c-1.3-0.1-2.1-0.1-2.6-0.1c-0.1,0-0.6,0-1.4,0c-0.7,0-1.5,0.1-2,0.1c-0.4,0-0.5-0.1-0.5-0.3
		c0-0.1,0.1-0.2,0.3-0.2c0.3,0,0.7-0.1,1-0.1c0.7-0.1,0.8-0.9,1-1.9c0.2-1.4,0.2-4.1,0.2-7.4V10.1z"/>
	<path class="st0" d="M262.8,14.7L258,7c-0.7-1.1-1.3-1.9-2.3-2.2c-0.5-0.1-1.1-0.2-1.3-0.2c-0.2,0-0.3-0.2-0.3-0.3
		c0-0.1,0.1-0.2,0.5-0.2c0.8,0,3.3,0.1,3.5,0.1c0.3,0,1.9-0.1,2.9-0.1c0.4,0,0.5,0.1,0.5,0.2s-0.1,0.3-0.3,0.3c-0.2,0-0.6,0-0.8,0.1
		c-0.3,0-0.4,0.2-0.4,0.4c0,0.3,0.1,0.6,0.3,0.9c1.3,2.3,2.4,4.3,3.9,6.8c0.9-1.3,4-6.1,4.3-6.7c0.2-0.4,0.3-0.7,0.3-1
		c0-0.2-0.2-0.4-0.5-0.5c-0.3-0.1-0.6-0.1-0.8-0.1c-0.2,0-0.3-0.1-0.3-0.3s0.1-0.2,0.5-0.2c1.1,0,2.4,0.1,2.6,0.1s1.5-0.1,2.5-0.1
		c0.3,0,0.5,0.1,0.5,0.2c0,0.1-0.1,0.3-0.3,0.3c-0.2,0-0.7,0-1,0.1c-0.8,0.3-1.4,1-2.2,2.3l-4.8,7c0.6,0.9,5.7,9.3,6.3,10
		c0.5,0.6,0.8,1,1.7,1.3c0.4,0.1,0.8,0.2,1,0.2c0.2,0,0.2,0.1,0.2,0.2s-0.1,0.2-0.4,0.2c-1.8,0-3.3,0-4.9-0.1
		c-0.8,0-0.9-0.1-0.9-0.2c0-0.1,0.1-0.2,0.2-0.2c0.2,0,0.4-0.3,0.2-0.8c-1.6-2.8-3.3-5.6-5.1-8.5l-4.6,7.6c-0.3,0.5-0.4,1-0.4,1.3
		c0,0.3,0.2,0.4,0.5,0.5c0.2,0,0.4,0.1,0.5,0.1c0.2,0,0.3,0.1,0.3,0.3s-0.2,0.2-0.4,0.2c-0.7,0-2.7-0.1-3-0.1
		c-0.2,0-1.7,0.1-2.7,0.1c-0.2,0-0.3-0.1-0.3-0.2c0-0.1,0.1-0.3,0.2-0.3c0.2,0,0.7-0.1,1.1-0.2c0.9-0.2,1.5-0.8,2.4-2.2L262.8,14.7z
		"/>
	<path class="st0" d="M279.3,23.2c-2.9-2.5-3.6-5.8-3.6-8.5c0-1.9,0.7-5.3,3.4-7.9c1.8-1.7,4.5-3.1,9.1-3.1c1.2,0,2.9,0.1,4.3,0.3
		c1.1,0.2,2.1,0.4,3.1,0.4c0.3,0,0.4,0.1,0.4,0.3c0,0.2-0.1,0.6-0.1,1.6c0,0.9,0,2.5-0.1,2.9c0,0.4-0.2,0.6-0.3,0.6
		c-0.2,0-0.2-0.2-0.2-0.6c0-1.1-0.5-2.3-1.3-2.9c-1.1-0.9-3.2-1.6-5.9-1.6c-3.8,0-5.7,1-6.7,2c-2.2,2-2.7,4.6-2.7,7.5
		c0,5.5,4.4,10.4,10.7,10.4c2.2,0,3.7-0.2,4.9-1.4c0.6-0.6,1.1-1.9,1.2-2.4c0.1-0.3,0.1-0.4,0.3-0.4c0.1,0,0.3,0.2,0.3,0.4
		s-0.4,2.7-0.7,3.7c-0.2,0.5-0.2,0.6-0.7,0.8c-1.2,0.5-3.5,0.6-5.4,0.6C284.7,26.3,281.7,25.2,279.3,23.2z"/>
	<path class="st0" d="M303.1,12.4c0-4.5,0-5.3-0.1-6.2c-0.1-1-0.2-1.5-1.2-1.6c-0.2,0-0.7-0.1-1-0.1c-0.1,0-0.2-0.1-0.2-0.2
		c0-0.2,0.1-0.2,0.5-0.2c1.4,0,3.3,0.1,3.5,0.1c0.2,0,6.4,0,7.1,0c0.6,0,1.1-0.1,1.4-0.2c0.1,0,0.3-0.1,0.4-0.1
		c0.1,0,0.1,0.1,0.1,0.3c0,0.2-0.2,0.5-0.2,1.4c0,0.3-0.1,1.6-0.2,1.9c0,0.1-0.1,0.3-0.3,0.3c-0.2,0-0.2-0.1-0.2-0.4
		c0-0.2,0-0.7-0.2-1c-0.2-0.5-0.5-0.7-2.1-0.9c-0.5-0.1-4-0.1-4.3-0.1c-0.1,0-0.2,0.1-0.2,0.3v7.8c0,0.2,0,0.3,0.2,0.3
		c0.4,0,4.3,0,5-0.1c0.7-0.1,1.2-0.1,1.5-0.4c0.2-0.2,0.3-0.4,0.4-0.4c0.1,0,0.2,0.1,0.2,0.2s-0.2,0.6-0.2,1.6
		c-0.1,0.6-0.1,1.7-0.1,1.9c0,0.2-0.1,0.5-0.3,0.5c-0.1,0-0.2-0.1-0.2-0.3c0-0.3,0-0.6-0.1-0.9c-0.1-0.4-0.4-0.7-1.5-0.9
		c-0.8-0.1-4-0.1-4.5-0.1c-0.2,0-0.2,0.1-0.2,0.2v2.4c0,1,0,4.3,0,4.9c0.1,1.9,0.6,2.3,3.6,2.3c0.8,0,2.2,0,3-0.3
		c0.8-0.3,1.2-0.8,1.4-2c0.1-0.3,0.1-0.4,0.3-0.4c0.2,0,0.2,0.2,0.2,0.4s-0.2,2.2-0.4,2.8c-0.2,0.7-0.5,0.7-1.7,0.7
		c-2.2,0-4-0.1-5.2-0.1c-1.3-0.1-2-0.1-2.5-0.1c-0.1,0-0.6,0-1.3,0c-0.6,0-1.3,0.1-1.7,0.1c-0.3,0-0.5-0.1-0.5-0.2
		c0-0.1,0.1-0.2,0.2-0.2c0.3,0,0.6-0.1,0.9-0.1c0.6-0.1,0.6-0.7,0.8-1.5c0.2-1.2,0.2-3.5,0.2-6.2V12.4z"/>
	<path class="st0" d="M324.5,17.6c0,4.2,0.1,6,0.6,6.5c0.5,0.5,1.6,0.7,4,0.7c1.6,0,2.9,0,3.6-0.9c0.4-0.4,0.6-1.1,0.7-1.6
		c0-0.2,0.1-0.4,0.3-0.4c0.1,0,0.2,0.1,0.2,0.4s-0.2,2-0.4,2.9c-0.2,0.7-0.3,0.8-1.9,0.8c-2.1,0-3.8,0-5.2-0.1
		c-1.4,0-2.4-0.1-3.3-0.1c-0.1,0-0.6,0-1.2,0c-0.6,0-1.3,0.1-1.7,0.1c-0.3,0-0.5-0.1-0.5-0.2c0-0.1,0.1-0.2,0.2-0.2
		c0.3,0,0.6-0.1,0.9-0.1c0.6-0.1,0.6-0.7,0.8-1.5c0.2-1.2,0.2-3.5,0.2-6.2v-5.1c0-4.5,0-5.3-0.1-6.2c-0.1-1-0.2-1.5-1.2-1.6
		c-0.2,0-0.7-0.1-1-0.1c-0.1,0-0.2-0.1-0.2-0.2c0-0.2,0.1-0.2,0.5-0.2c1.4,0,3.2,0.1,3.4,0.1c0.1,0,2.4-0.1,3.3-0.1
		c0.3,0,0.5,0.1,0.5,0.2c0,0.1-0.1,0.2-0.2,0.2c-0.2,0-0.6,0-1,0.1c-0.9,0.2-1.1,0.6-1.1,1.6c0,0.9,0,1.7,0,6.2V17.6z"/>
	<path class="st0" d="M342.7,17.6c0,4.2,0.1,6,0.6,6.5c0.5,0.5,1.6,0.7,4,0.7c1.6,0,2.9,0,3.6-0.9c0.4-0.4,0.6-1.1,0.7-1.6
		c0-0.2,0.1-0.4,0.3-0.4c0.1,0,0.2,0.1,0.2,0.4s-0.2,2-0.4,2.9c-0.2,0.7-0.3,0.8-1.9,0.8c-2.1,0-3.8,0-5.2-0.1
		c-1.4,0-2.4-0.1-3.3-0.1c-0.1,0-0.6,0-1.2,0c-0.6,0-1.3,0.1-1.7,0.1c-0.3,0-0.5-0.1-0.5-0.2c0-0.1,0.1-0.2,0.2-0.2
		c0.3,0,0.6-0.1,0.9-0.1c0.6-0.1,0.6-0.7,0.8-1.5c0.2-1.2,0.2-3.5,0.2-6.2v-5.1c0-4.5,0-5.3-0.1-6.2c-0.1-1-0.2-1.5-1.2-1.6
		c-0.2,0-0.7-0.1-1-0.1c-0.1,0-0.2-0.1-0.2-0.2c0-0.2,0.1-0.2,0.5-0.2c1.4,0,3.2,0.1,3.4,0.1c0.1,0,2.4-0.1,3.3-0.1
		c0.3,0,0.5,0.1,0.5,0.2c0,0.1-0.1,0.2-0.2,0.2c-0.2,0-0.6,0-1,0.1c-0.9,0.2-1.1,0.6-1.1,1.6c0,0.9,0,1.7,0,6.2V17.6z"/>
	<path class="st0" d="M358.1,12.4c0-4.5,0-5.3-0.1-6.2c-0.1-1-0.2-1.5-1.2-1.6c-0.2,0-0.7-0.1-1-0.1c-0.1,0-0.2-0.1-0.2-0.2
		c0-0.2,0.1-0.2,0.5-0.2c1.4,0,3.3,0.1,3.5,0.1c0.2,0,6.4,0,7.1,0c0.6,0,1.1-0.1,1.4-0.2c0.1,0,0.3-0.1,0.4-0.1
		c0.1,0,0.1,0.1,0.1,0.3c0,0.2-0.2,0.5-0.2,1.4c0,0.3-0.1,1.6-0.2,1.9c0,0.1-0.1,0.3-0.3,0.3c-0.2,0-0.2-0.1-0.2-0.4
		c0-0.2,0-0.7-0.2-1c-0.2-0.5-0.5-0.7-2.1-0.9c-0.5-0.1-4-0.1-4.3-0.1c-0.1,0-0.2,0.1-0.2,0.3v7.8c0,0.2,0,0.3,0.2,0.3
		c0.4,0,4.3,0,5-0.1c0.7-0.1,1.2-0.1,1.5-0.4c0.2-0.2,0.3-0.4,0.4-0.4c0.1,0,0.2,0.1,0.2,0.2s-0.2,0.6-0.2,1.6
		c-0.1,0.6-0.1,1.7-0.1,1.9c0,0.2-0.1,0.5-0.3,0.5c-0.1,0-0.2-0.1-0.2-0.3c0-0.3,0-0.6-0.1-0.9c-0.1-0.4-0.4-0.7-1.5-0.9
		c-0.8-0.1-4-0.1-4.5-0.1c-0.2,0-0.2,0.1-0.2,0.2v2.4c0,1,0,4.3,0,4.9c0.1,1.9,0.6,2.3,3.6,2.3c0.8,0,2.2,0,3-0.3
		c0.8-0.3,1.2-0.8,1.4-2c0.1-0.3,0.1-0.4,0.3-0.4c0.2,0,0.2,0.2,0.2,0.4s-0.2,2.2-0.4,2.8c-0.2,0.7-0.5,0.7-1.7,0.7
		c-2.2,0-4-0.1-5.2-0.1c-1.3-0.1-2-0.1-2.5-0.1c-0.1,0-0.6,0-1.3,0c-0.6,0-1.3,0.1-1.7,0.1c-0.3,0-0.5-0.1-0.5-0.2
		c0-0.1,0.1-0.2,0.2-0.2c0.3,0,0.6-0.1,0.9-0.1c0.6-0.1,0.6-0.7,0.8-1.5c0.2-1.2,0.2-3.5,0.2-6.2V12.4z"/>
	<path class="st0" d="M378,22c0.1,2.4,0.3,3.1,1.2,3.3c0.5,0.1,1.2,0.2,1.5,0.2c0.1,0,0.2,0.1,0.2,0.2c0,0.2-0.2,0.2-0.5,0.2
		c-1.7,0-2.9-0.1-3.2-0.1s-1.5,0.1-2.9,0.1c-0.3,0-0.5,0-0.5-0.2c0-0.1,0.1-0.2,0.2-0.2c0.2,0,0.8,0,1.2-0.2c0.7-0.2,0.8-1,0.8-3.6
		V5.2c0-1.2,0.2-1.5,0.4-1.5c0.3,0,0.8,0.6,1.2,0.9c0.5,0.5,4.8,5.1,9.4,9.8c3,3.1,6.1,6.5,7.1,7.4l-0.3-14.4c0-1.9-0.2-2.5-1.1-2.7
		c-0.5-0.1-1.2-0.1-1.5-0.1c-0.2,0-0.2-0.2-0.2-0.3c0-0.2,0.2-0.2,0.6-0.2c1.4,0,2.8,0.1,3.1,0.1s1.3-0.1,2.5-0.1
		c0.3,0,0.5,0,0.5,0.2c0,0.1-0.1,0.3-0.3,0.3c-0.1,0-0.4,0-0.7,0.1c-1,0.2-1.1,0.8-1.1,2.5L395.7,24c0,1.9,0,2.1-0.2,2.1
		c-0.3,0-0.6-0.2-2.3-1.8c-0.3-0.3-4.6-4.5-7.8-7.8c-3.5-3.6-6.8-7.2-7.7-8.2L378,22z"/>
	<path class="st0" d="M404.8,23.2c-2.9-2.5-3.6-5.8-3.6-8.5c0-1.9,0.7-5.3,3.4-7.9c1.8-1.7,4.5-3.1,9.1-3.1c1.2,0,2.9,0.1,4.3,0.3
		c1.1,0.2,2.1,0.4,3.1,0.4c0.3,0,0.4,0.1,0.4,0.3c0,0.2-0.1,0.6-0.1,1.6c0,0.9,0,2.5-0.1,2.9c0,0.4-0.2,0.6-0.3,0.6
		c-0.2,0-0.2-0.2-0.2-0.6c0-1.1-0.5-2.3-1.3-2.9c-1.1-0.9-3.2-1.6-5.9-1.6c-3.8,0-5.7,1-6.7,2c-2.2,2-2.7,4.6-2.7,7.5
		c0,5.5,4.4,10.4,10.7,10.4c2.2,0,3.7-0.2,4.9-1.4c0.6-0.6,1.1-1.9,1.2-2.4c0.1-0.3,0.1-0.4,0.3-0.4c0.1,0,0.3,0.2,0.3,0.4
		s-0.4,2.7-0.7,3.7c-0.2,0.5-0.2,0.6-0.7,0.8c-1.2,0.5-3.5,0.6-5.4,0.6C410.1,26.3,407.1,25.2,404.8,23.2z"/>
	<path class="st0" d="M428.5,12.4c0-4.5,0-5.3-0.1-6.2c-0.1-1-0.2-1.5-1.2-1.6c-0.2,0-0.7-0.1-1-0.1c-0.1,0-0.2-0.1-0.2-0.2
		c0-0.2,0.1-0.2,0.5-0.2c1.4,0,3.3,0.1,3.5,0.1c0.2,0,6.4,0,7.1,0c0.6,0,1.1-0.1,1.4-0.2c0.1,0,0.3-0.1,0.4-0.1
		c0.1,0,0.1,0.1,0.1,0.3c0,0.2-0.2,0.5-0.2,1.4c0,0.3-0.1,1.6-0.2,1.9c0,0.1-0.1,0.3-0.3,0.3c-0.2,0-0.2-0.1-0.2-0.4
		c0-0.2,0-0.7-0.2-1c-0.2-0.5-0.5-0.7-2.1-0.9c-0.5-0.1-4-0.1-4.3-0.1c-0.1,0-0.2,0.1-0.2,0.3v7.8c0,0.2,0,0.3,0.2,0.3
		c0.4,0,4.3,0,5-0.1c0.7-0.1,1.2-0.1,1.5-0.4c0.2-0.2,0.3-0.4,0.4-0.4c0.1,0,0.2,0.1,0.2,0.2s-0.2,0.6-0.2,1.6
		c-0.1,0.6-0.1,1.7-0.1,1.9c0,0.2-0.1,0.5-0.3,0.5c-0.1,0-0.2-0.1-0.2-0.3c0-0.3,0-0.6-0.1-0.9c-0.1-0.4-0.4-0.7-1.5-0.9
		c-0.8-0.1-4-0.1-4.5-0.1c-0.2,0-0.2,0.1-0.2,0.2v2.4c0,1,0,4.3,0,4.9c0.1,1.9,0.6,2.3,3.6,2.3c0.8,0,2.2,0,3-0.3
		c0.8-0.3,1.2-0.8,1.4-2c0.1-0.3,0.1-0.4,0.3-0.4c0.2,0,0.2,0.2,0.2,0.4s-0.2,2.2-0.4,2.8c-0.2,0.7-0.5,0.7-1.7,0.7
		c-2.2,0-4-0.1-5.2-0.1c-1.3-0.1-2-0.1-2.5-0.1c-0.1,0-0.6,0-1.3,0c-0.6,0-1.3,0.1-1.7,0.1c-0.3,0-0.5-0.1-0.5-0.2
		c0-0.1,0.1-0.2,0.2-0.2c0.3,0,0.6-0.1,0.9-0.1c0.6-0.1,0.6-0.7,0.8-1.5c0.2-1.2,0.2-3.5,0.2-6.2V12.4z"/>
</g>
</svg>
