<svg xmlns="http://www.w3.org/2000/svg" xmlns:xlink="http://www.w3.org/1999/xlink" id="Layer_1" x="0px" y="0px" viewBox="0 0 657.19 113.65" style="enable-background:new 0 0 657.19 113.65;" xml:space="preserve">
<style type="text/css">
	.st0{display:none;}
	.st1{display:inline;}
	.st2{fill:#0358A2;}
	.st3{font-family:'Tahoma-Bold';}
	.st4{font-size:87.1234px;}
	.st5{display:inline;fill:#0358A2;}
	.st6{display:none;fill:#6291C8;enable-background:new    ;}
	.st7{display:none;fill:#1F335E;enable-background:new    ;}
	.st8{font-size:26.6691px;}
	.st9{fill:#124486;}
	.st10{display:inline;fill:#124484;}
	.st11{font-size:15.0309px;}
	.st12{fill:#0458A1;stroke:#0458A1;stroke-width:0.5;stroke-miterlimit:10;}
	.st13{font-size:13.5895px;}
	.st14{fill:#1A428A;}
	.st15{font-size:14.4461px;}
	.st16{display:inline;fill:#0458A1;}
	.st17{display:inline;fill:#1F335E;}
</style>
<g id="TightSeal" class="st0">
	<g class="st1">
		<text transform="matrix(1 0 0 1 74.9619 77.1467)" class="st2 st3 st4">TIGHT-SEAL</text>
	</g>
</g>
<g id="PERMA-COAT" class="st0">
	<text transform="matrix(1 0 0 1 39.4727 77.1462)" class="st5 st3 st4">PERMA-COAT</text>
</g>
<text transform="matrix(1 0 0 1 54.2607 75.2336)" class="st6 st3 st4">PERMALERT</text>
<text transform="matrix(1 0 0 1 0.5103 75.2336)" class="st7 st3 st8">ENGINEEERING, FABRICATION, INSTALLATION</text>
<g id="TRACE_THERM" class="st0">
	<g class="st1">
		<path class="st9" d="M18.72,75.23V23.97H0V11.89h53.35v12.08H34.63v51.26C34.63,75.23,18.72,75.23,18.72,75.23z"></path>
		<path class="st9" d="M118.48,75.23h-19.4L81.42,52.01h-5.7v23.23H59.9V11.89h25.48c3.52,0,6.58,0.22,9.19,0.66    s5.02,1.35,7.23,2.74c2.27,1.45,4.07,3.28,5.4,5.51s2,5.06,2,8.49c0,4.85-1.09,8.78-3.28,11.8c-2.18,3.02-5.1,5.42-8.76,7.21    L118.48,75.23z M92.87,31.29c0-1.59-0.31-2.96-0.91-4.1c-0.61-1.15-1.62-2.03-3.04-2.66c-0.99-0.43-2.1-0.69-3.32-0.81    c-1.22-0.11-2.74-0.17-4.55-0.17h-5.32v17.06h4.55c2.21,0,4.09-0.13,5.64-0.4s2.86-0.84,3.94-1.72c1.02-0.79,1.78-1.74,2.28-2.85    C92.62,34.52,92.87,33.08,92.87,31.29z"></path>
		<path class="st9" d="M116.35,75.23l21.4-63.34h17.36l21.4,63.34h-16.38l-3.96-12.93h-19.91l-3.96,12.93H116.35z M152.68,50.81    l-6.47-20.89l-6.47,20.89H152.68z"></path>
		<path class="st9" d="M210.11,76.47c-9.5,0-17.04-2.87-22.63-8.61c-5.59-5.74-8.38-13.82-8.38-24.23c0-10.04,2.8-18.04,8.4-24.01    c5.6-5.97,13.15-8.95,22.65-8.95c2.52,0,4.79,0.14,6.81,0.43c2.01,0.28,3.94,0.68,5.79,1.19c1.45,0.43,3.02,1.01,4.72,1.74    c1.7,0.74,3.08,1.38,4.13,1.91v15.1h-1.62c-0.77-0.68-1.73-1.5-2.89-2.45s-2.48-1.88-3.96-2.79c-1.48-0.91-3.1-1.68-4.87-2.32    s-3.62-0.96-5.55-0.96c-2.3,0-4.4,0.36-6.32,1.08s-3.74,1.98-5.47,3.76c-1.59,1.62-2.89,3.8-3.89,6.55    c-1.01,2.75-1.51,6-1.51,9.74c0,3.94,0.52,7.25,1.57,9.93s2.43,4.84,4.13,6.49c1.64,1.59,3.48,2.74,5.51,3.45    c2.03,0.71,4.05,1.06,6.06,1.06c2.1,0,4.1-0.35,6-1.04c1.9-0.69,3.5-1.47,4.81-2.32c1.42-0.88,2.67-1.77,3.74-2.68    c1.08-0.91,2.01-1.72,2.81-2.42h1.45v14.89c-1.16,0.54-2.51,1.16-4.04,1.85c-1.53,0.7-3.11,1.28-4.72,1.77    c-1.99,0.6-3.84,1.05-5.57,1.36C215.53,76.31,213.14,76.47,210.11,76.47z"></path>
		<path class="st9" d="M240.95,75.23V11.89h42.84v12.08h-27.01v11.1h24.89v12.08h-24.89v16h27.01v12.08H240.95z"></path>
		<path class="st9" d="M320.89,53.2h-28.2V41.37h28.2V53.2z"></path>
		<path class="st9" d="M344.28,75.23V23.97h-18.72V11.89h53.35v12.08h-18.72v51.26C360.19,75.23,344.28,75.23,344.28,75.23z"></path>
		<path class="st9" d="M438.94,75.23h-15.91V47.16h-21.65v28.08h-15.91V11.89h15.91v23.18h21.65V11.89h15.91V75.23z"></path>
		<path class="st9" d="M452.04,75.23V11.89h42.84v12.08h-27.01v11.1h24.89v12.08h-24.89v16h27.01v12.08H452.04z"></path>
		<path class="st9" d="M564.22,75.23h-19.4L527.17,52h-5.7v23.23h-15.82V11.89h25.48c3.52,0,6.58,0.22,9.19,0.66    s5.02,1.35,7.23,2.74c2.27,1.45,4.07,3.28,5.4,5.51s2,5.06,2,8.49c0,4.85-1.09,8.78-3.28,11.8c-2.18,3.02-5.1,5.42-8.76,7.21    L564.22,75.23z M538.61,31.29c0-1.59-0.31-2.96-0.92-4.1c-0.61-1.15-1.62-2.03-3.04-2.66c-0.99-0.43-2.1-0.69-3.32-0.81    c-1.22-0.11-2.74-0.17-4.55-0.17h-5.32v17.06h4.55c2.21,0,4.09-0.13,5.64-0.4s2.86-0.84,3.94-1.72c1.02-0.79,1.78-1.74,2.28-2.85    C538.36,34.52,538.61,33.08,538.61,31.29z"></path>
		<path class="st9" d="M633.6,75.23h-15.83V33.25l-11.53,27.1H595.4l-11.53-27.1v41.99H568.9V11.89h18.33l14.04,31.27l14-31.27    h18.33L633.6,75.23L633.6,75.23z"></path>
	</g>
	<text transform="matrix(0.9041 0 0 1 636.73 22.7224)" class="st10 st3 st11">TM</text>
</g>
<g id="POLY_THERM" class="st0">
	<g class="st1">
		<path class="st9" d="M83,31.88c0,2.95-0.47,5.76-1.4,8.42c-0.94,2.67-2.28,4.89-4.04,6.68c-1.08,1.11-2.26,2.13-3.55,3.06    c-1.29,0.94-2.72,1.73-4.28,2.38s-3.25,1.16-5.08,1.53s-3.88,0.55-6.15,0.55h-8.34v20.72H34.25V11.89h24.59    c3.66,0,6.81,0.33,9.47,1c2.65,0.67,5.06,1.72,7.21,3.17c2.38,1.59,4.23,3.71,5.53,6.36C82.34,25.07,83,28.23,83,31.88z     M66.66,32.27c0-1.79-0.43-3.32-1.28-4.62c-0.85-1.29-1.87-2.18-3.06-2.66c-1.5-0.65-2.94-1.03-4.32-1.13    c-1.38-0.1-3.24-0.15-5.59-0.15h-2.25v18.97h1.11c1.5,0,2.92-0.01,4.25-0.04c1.33-0.03,2.5-0.13,3.49-0.3    c0.85-0.14,1.75-0.42,2.7-0.83c0.95-0.41,1.68-0.87,2.19-1.38c1.08-1.05,1.81-2.14,2.19-3.28S66.66,34.2,66.66,32.27z"></path>
		<path class="st9" d="M149.19,43.58c0,10.24-2.74,18.29-8.21,24.16s-12.98,8.81-22.5,8.81c-9.56,0-17.06-2.97-22.5-8.91    c-5.45-5.94-8.17-13.96-8.17-24.06c0-10.18,2.72-18.23,8.17-24.14s12.95-8.87,22.5-8.87c9.53,0,17.03,2.94,22.5,8.83    C146.45,25.28,149.19,33.35,149.19,43.58z M132.77,43.54c0-3.77-0.39-6.98-1.17-9.64c-0.78-2.65-1.82-4.83-3.13-6.53    c-1.36-1.73-2.9-2.97-4.62-3.72s-3.5-1.13-5.34-1.13c-1.96,0-3.73,0.35-5.32,1.04c-1.59,0.69-3.12,1.94-4.59,3.72    c-1.31,1.65-2.36,3.83-3.17,6.55s-1.21,5.97-1.21,9.74c0,3.89,0.38,7.11,1.15,9.68c0.77,2.57,1.81,4.72,3.15,6.44    c1.36,1.76,2.91,3.01,4.64,3.76c1.73,0.75,3.52,1.13,5.36,1.13c1.87,0,3.69-0.4,5.45-1.21c1.76-0.81,3.28-2.06,4.55-3.76    c1.36-1.84,2.41-3.99,3.15-6.45C132.4,50.72,132.77,47.51,132.77,43.54z"></path>
		<path class="st9" d="M200.88,75.23h-42.29V11.89h15.91v51.26h26.38V75.23z"></path>
		<path class="st9" d="M261.12,11.89l-21.87,36.88v26.46h-15.91V49.58l-22.25-37.69h18.12l12.42,22.63l11.95-22.63    C243.58,11.89,261.12,11.89,261.12,11.89z"></path>
		<path class="st9" d="M293.19,53.2h-28.2V41.37h28.2V53.2z"></path>
		<path class="st9" d="M316.59,75.23V23.97h-18.72V11.89h53.35v12.08H332.5v51.26C332.5,75.23,316.59,75.23,316.59,75.23z"></path>
		<path class="st9" d="M411.24,75.23h-15.91V47.16h-21.65v28.08h-15.91V11.89h15.91v23.18h21.65V11.89h15.91V75.23z"></path>
		<path class="st9" d="M424.34,75.23V11.89h42.84v12.08h-27.01v11.1h24.89v12.08h-24.89v16h27.01v12.08H424.34z"></path>
		<path class="st9" d="M536.52,75.23h-19.4L499.47,52h-5.7v23.23h-15.82V11.89h25.48c3.52,0,6.58,0.22,9.19,0.66    c2.61,0.44,5.02,1.35,7.23,2.74c2.27,1.45,4.07,3.28,5.4,5.51s2,5.06,2,8.49c0,4.85-1.09,8.78-3.28,11.8    c-2.18,3.02-5.1,5.42-8.76,7.21L536.52,75.23z M510.91,31.29c0-1.59-0.31-2.96-0.92-4.1c-0.61-1.15-1.62-2.03-3.04-2.66    c-0.99-0.43-2.1-0.69-3.32-0.81c-1.22-0.11-2.74-0.17-4.55-0.17h-5.32v17.06h4.55c2.21,0,4.09-0.13,5.64-0.4    c1.55-0.27,2.86-0.84,3.94-1.72c1.02-0.79,1.78-1.74,2.28-2.85C510.67,34.52,510.91,33.08,510.91,31.29z"></path>
		<path class="st9" d="M605.91,75.23h-15.83V33.25l-11.53,27.1H567.7l-11.53-27.1v41.99H541.2V11.89h18.33l14.04,31.27l14-31.27    h18.33L605.91,75.23L605.91,75.23z"></path>
	</g>
	<g class="st1">
		<path class="st12" d="M615.72,12.48c0.7,0.39,1.24,0.95,1.63,1.67s0.59,1.55,0.59,2.49c0,0.92-0.2,1.75-0.59,2.47    s-0.94,1.29-1.64,1.7c-0.7,0.41-1.51,0.61-2.42,0.61s-1.71-0.2-2.41-0.61c-0.71-0.41-1.25-0.97-1.64-1.7    c-0.39-0.72-0.59-1.54-0.59-2.47c0-0.94,0.2-1.77,0.59-2.49c0.39-0.72,0.94-1.27,1.63-1.67c0.7-0.39,1.51-0.59,2.42-0.59    C614.21,11.89,615.02,12.09,615.72,12.48z M615.52,20.39c0.63-0.35,1.12-0.85,1.46-1.5s0.51-1.4,0.51-2.25    c0-0.87-0.17-1.64-0.51-2.29c-0.34-0.66-0.83-1.17-1.46-1.53s-1.37-0.54-2.23-0.54c-0.85,0-1.6,0.18-2.23,0.54    c-0.64,0.36-1.13,0.87-1.47,1.53c-0.34,0.66-0.51,1.42-0.51,2.29c0,0.85,0.17,1.6,0.51,2.25s0.83,1.15,1.47,1.5    c0.64,0.35,1.38,0.53,2.23,0.53C614.15,20.92,614.89,20.74,615.52,20.39z M615.17,16.32c-0.3,0.3-0.74,0.47-1.31,0.51l1.76,2.65    h-0.73l-1.72-2.64h-1.02v2.64h-0.65v-6.03h2.05c0.69,0,1.21,0.15,1.55,0.46c0.35,0.31,0.52,0.71,0.52,1.22    C615.62,15.63,615.47,16.02,615.17,16.32z M614.95,15.2c0-0.38-0.11-0.66-0.34-0.86c-0.22-0.2-0.6-0.3-1.12-0.3h-1.35v2.33h1.35    C614.47,16.37,614.95,15.98,614.95,15.2z"></path>
	</g>
</g>
<g id="FLOW_THERM" class="st0">
	<text transform="matrix(1 0 0 1 15.4424 75.2336)" class="st10 st3 st4">FLOW-THERM</text>
	<text transform="matrix(0.9041 0 0 1 620.1118 22.5007)" class="st10 st3 st11">TM</text>
</g>
<g id="HI_GARD" class="st0">
	<text transform="matrix(1 0 0 1 120.0503 75.2336)" class="st10 st3 st4">HI-GARD</text>
	<text transform="matrix(1 0 0 1 516.1118 24.3547)" class="st10 st3 st13">TM</text>
</g>
<g id="HI_GARD_1_">
	<g>
		<path class="st14" d="M18.57,75.23V11.89h42.84v12.08H34.39v11.1h24.89v12.08H34.39v16H61.4v12.08H18.57z"></path>
		<path class="st14" d="M126.45,75.23h-15.31L86.72,31.08v44.16H72.17V11.89H91.7l20.21,36.29V11.89h14.55v63.34H126.45z"></path>
		<path class="st14" d="M192.22,11.89l-21.78,63.34h-16.59l-21.78-63.34h16.51l13.78,42.92l13.78-42.92    C176.14,11.89,192.22,11.89,192.22,11.89z"></path>
		<path class="st14" d="M229.66,75.23h-34.12V64.17h9.1V22.95h-9.1V11.89h34.12v11.06h-9.1v41.22h9.1V75.23z"></path>
		<path class="st14" d="M298.79,75.23h-19.4L261.74,52h-5.7v23.23h-15.83V11.89h25.48c3.52,0,6.58,0.22,9.19,0.66    c2.61,0.44,5.02,1.35,7.23,2.74c2.27,1.45,4.07,3.28,5.4,5.51s2,5.06,2,8.49c0,4.85-1.09,8.78-3.28,11.8    c-2.18,3.02-5.1,5.42-8.76,7.21L298.79,75.23z M273.18,31.29c0-1.59-0.31-2.96-0.91-4.1c-0.61-1.15-1.62-2.03-3.04-2.66    c-0.99-0.43-2.1-0.69-3.32-0.81c-1.22-0.11-2.74-0.17-4.55-0.17h-5.32v17.06h4.55c2.21,0,4.09-0.13,5.64-0.4    c1.55-0.27,2.86-0.84,3.94-1.72c1.02-0.79,1.78-1.74,2.28-2.85C272.93,34.52,273.18,33.08,273.18,31.29z"></path>
		<path class="st14" d="M361.15,43.58c0,10.24-2.74,18.29-8.21,24.16s-12.97,8.81-22.5,8.81c-9.56,0-17.06-2.97-22.5-8.91    c-5.45-5.94-8.17-13.96-8.17-24.06c0-10.18,2.72-18.23,8.17-24.14s12.95-8.87,22.5-8.87c9.53,0,17.03,2.94,22.5,8.83    C358.41,25.28,361.15,33.35,361.15,43.58z M344.73,43.54c0-3.77-0.39-6.98-1.17-9.64c-0.78-2.65-1.82-4.83-3.12-6.53    c-1.36-1.73-2.9-2.97-4.62-3.72c-1.71-0.75-3.49-1.13-5.34-1.13c-1.96,0-3.73,0.35-5.32,1.04s-3.12,1.94-4.59,3.72    c-1.31,1.65-2.36,3.83-3.17,6.55s-1.21,5.97-1.21,9.74c0,3.89,0.38,7.11,1.15,9.68s1.81,4.72,3.15,6.44    c1.36,1.76,2.91,3.01,4.64,3.76c1.73,0.75,3.52,1.13,5.36,1.13c1.87,0,3.69-0.4,5.45-1.21s3.28-2.06,4.55-3.76    c1.36-1.84,2.41-3.99,3.15-6.45C344.36,50.72,344.73,47.51,344.73,43.54z"></path>
		<path class="st14" d="M396.88,53.2h-28.2V41.37h28.2V53.2z"></path>
		<path class="st14" d="M435.43,76.47c-9.5,0-17.04-2.87-22.63-8.61s-8.38-13.82-8.38-24.23c0-10.04,2.8-18.04,8.4-24.01    s13.15-8.95,22.65-8.95c2.52,0,4.79,0.14,6.81,0.43c2.01,0.28,3.94,0.68,5.79,1.19c1.45,0.43,3.02,1.01,4.72,1.74    c1.7,0.74,3.08,1.38,4.13,1.91v15.1h-1.62c-0.77-0.68-1.73-1.5-2.89-2.45s-2.48-1.88-3.96-2.79s-3.1-1.68-4.87-2.32    s-3.62-0.96-5.55-0.96c-2.3,0-4.4,0.36-6.32,1.08c-1.91,0.72-3.74,1.98-5.47,3.76c-1.59,1.62-2.89,3.8-3.89,6.55    c-1.01,2.75-1.51,6-1.51,9.74c0,3.94,0.52,7.25,1.57,9.93c1.05,2.68,2.42,4.84,4.13,6.49c1.64,1.59,3.48,2.74,5.51,3.45    c2.03,0.71,4.05,1.06,6.06,1.06c2.1,0,4.1-0.35,6-1.04c1.9-0.69,3.5-1.47,4.81-2.32c1.42-0.88,2.67-1.77,3.74-2.68    c1.08-0.91,2.01-1.72,2.81-2.42h1.45v14.89c-1.16,0.54-2.51,1.16-4.04,1.85c-1.53,0.7-3.11,1.28-4.72,1.77    c-1.99,0.6-3.84,1.05-5.57,1.36C440.84,76.31,438.46,76.47,435.43,76.47z"></path>
		<path class="st14" d="M459.46,75.23l21.4-63.34h17.36l21.4,63.34h-16.38l-3.96-12.93h-19.91l-3.96,12.93H459.46z M495.79,50.81    l-6.47-20.89l-6.47,20.89H495.79z"></path>
		<path class="st14" d="M545.48,76.38c-4.85,0-9.11-0.47-12.78-1.4c-3.67-0.94-7.08-2.1-10.23-3.49V56.43h1.45    c3.18,2.69,6.68,4.76,10.51,6.21c3.83,1.45,7.54,2.17,11.15,2.17c0.91,0,2.11-0.1,3.59-0.3c1.49-0.2,2.69-0.51,3.59-0.94    c1.11-0.48,2.04-1.16,2.81-2.02s1.15-2.01,1.15-3.42c0-1.59-0.62-2.88-1.87-3.87c-1.25-0.99-2.74-1.72-4.47-2.17    c-2.16-0.57-4.46-1.11-6.91-1.62c-2.45-0.51-4.74-1.13-6.87-1.87c-4.91-1.73-8.42-4.06-10.55-6.98    c-2.13-2.92-3.19-6.58-3.19-10.98c0-5.93,2.51-10.73,7.53-14.4s11.29-5.51,18.8-5.51c3.77,0,7.52,0.38,11.25,1.15    c3.73,0.77,7.07,1.8,10.02,3.11v14.46h-1.4c-2.35-2.01-5.23-3.71-8.61-5.1c-3.39-1.39-6.87-2.08-10.44-2.08    c-1.39,0-2.64,0.1-3.74,0.3c-1.11,0.2-2.27,0.58-3.49,1.15c-0.99,0.45-1.85,1.13-2.57,2.02c-0.72,0.89-1.08,1.89-1.08,3    c0,1.62,0.57,2.9,1.72,3.85c1.15,0.95,3.37,1.81,6.66,2.57c2.13,0.48,4.18,0.95,6.15,1.4c1.97,0.45,4.08,1.08,6.32,1.87    c4.4,1.59,7.66,3.72,9.81,6.4c2.14,2.68,3.21,6.22,3.21,10.61c0,6.3-2.47,11.36-7.42,15.19C560.59,74.47,553.9,76.38,545.48,76.38    z"></path>
		<path class="st14" d="M581.09,75.23V11.89h42.84v12.08h-27.01v11.1h24.89v12.08h-24.89v16h27.01v12.08H581.09z"></path>
	</g>
	<g>
		<path class="st14" d="M632.9,23.5v-8h-2.92v-1.88h8.32v1.88h-2.92v8H632.9z"></path>
		<path class="st14" d="M649.42,23.5h-2.47v-6.55l-1.8,4.23h-1.69l-1.8-4.23v6.55h-2.34v-9.88h2.86l2.19,4.88l2.18-4.88h2.86v9.88    H649.42z"></path>
	</g>
</g>
<g id="CRYO_THERM" class="st0">
	<text transform="matrix(1 0 0 1 20.5474 75.2336)" class="st10 st3 st4">CRYO-THERM</text>
	<text transform="matrix(1 0 0 1 615.4556 21.4958)" class="st10 st3 st13">TM</text>
</g>
<g id="PVC_THERM" class="st0">
	<text transform="matrix(1 0 0 1 56.8984 75.2336)" class="st10 st3 st4">PVC-THERM</text>
	<text transform="matrix(0.9407 0 0 1 580.1118 21.9953)" class="st10 st3 st15">TM</text>
</g>
<g id="ENI_GARD" class="st0">
	<text transform="matrix(1 0 0 1 92.9731 75.2336)" class="st16 st3 st4">ENI-GARD</text>
	<text transform="matrix(1 0 0 1 540.8618 22.0739)" class="st16 st3 st13">TM</text>
</g>
<g id="PERMA_BOND" class="st0">
	<text transform="matrix(1 0 0 1 15.5273 75.2336)" class="st17 st3 st4">PERMA-BOND</text>
	<text transform="matrix(1 0 0 1 618.3618 23.6047)" class="st17 st3 st13">TM</text>
</g>
<g id="XTRU-THERM" class="st0">
	<g id="XTRU_THERM" class="st1">
		<g>
			<path class="st9" d="M90.72,75.23H72.25l-12.16-20.2l-12.42,20.2H30.05l20.55-31.9L30.86,11.89h18.42l11.4,19.1l11.7-19.1h17.65     l-19.87,30.8L90.72,75.23z"></path>
			<path class="st9" d="M108.92,75.23V23.97H90.21V11.89h53.35v12.08h-18.72v51.26C124.84,75.23,108.92,75.23,108.92,75.23z"></path>
			<path class="st9" d="M208.68,75.23h-19.4L171.63,52h-5.7v23.23H150.1V11.89h25.48c3.52,0,6.58,0.22,9.19,0.66     s5.02,1.35,7.23,2.74c2.27,1.45,4.07,3.28,5.4,5.51c1.33,2.23,2,5.06,2,8.49c0,4.85-1.09,8.78-3.28,11.8     c-2.18,3.02-5.1,5.42-8.76,7.21L208.68,75.23z M183.07,31.29c0-1.59-0.31-2.96-0.91-4.1c-0.61-1.15-1.62-2.03-3.04-2.66     c-0.99-0.43-2.1-0.69-3.32-0.81c-1.22-0.11-2.74-0.17-4.55-0.17h-5.32v17.06h4.55c2.21,0,4.09-0.13,5.64-0.4s2.86-0.84,3.94-1.72     c1.02-0.79,1.78-1.74,2.28-2.85C182.82,34.52,183.07,33.08,183.07,31.29z"></path>
			<path class="st9" d="M238.97,76.55c-8.51,0-15.05-2.06-19.63-6.17s-6.87-10.12-6.87-18.04V11.89h15.91v39.52     c0,4.4,0.83,7.67,2.49,9.83c1.66,2.16,4.36,3.23,8.1,3.23c3.66,0,6.35-1.04,8.06-3.11c1.72-2.07,2.57-5.39,2.57-9.95V11.89h15.91     V52.3c0,7.8-2.23,13.79-6.7,17.97C254.35,74.46,247.74,76.55,238.97,76.55z"></path>
			<path class="st9" d="M304.06,53.2h-28.2V41.37h28.2V53.2z"></path>
			<path class="st9" d="M327.46,75.23V23.97h-18.72V11.89h53.35v12.08h-18.72v51.26C343.37,75.23,327.46,75.23,327.46,75.23z"></path>
			<path class="st9" d="M422.11,75.23H406.2V47.16h-21.65v28.08h-15.91V11.89h15.91v23.18h21.65V11.89h15.91L422.11,75.23     L422.11,75.23z"></path>
			<path class="st9" d="M435.21,75.23V11.89h42.84v12.08h-27.01v11.1h24.89v12.08h-24.89v16h27.01v12.08H435.21z"></path>
			<path class="st9" d="M547.39,75.23h-19.4L510.34,52h-5.7v23.23h-15.82V11.89h25.48c3.52,0,6.58,0.22,9.19,0.66     s5.02,1.35,7.23,2.74c2.27,1.45,4.07,3.28,5.4,5.51s2,5.06,2,8.49c0,4.85-1.09,8.78-3.28,11.8c-2.18,3.02-5.1,5.42-8.76,7.21     L547.39,75.23z M521.78,31.29c0-1.59-0.31-2.96-0.92-4.1c-0.61-1.15-1.62-2.03-3.04-2.66c-0.99-0.43-2.1-0.69-3.32-0.81     c-1.22-0.11-2.74-0.17-4.55-0.17h-5.32v17.06h4.55c2.21,0,4.09-0.13,5.64-0.4s2.86-0.84,3.94-1.72c1.02-0.79,1.78-1.74,2.28-2.85     C521.53,34.52,521.78,33.08,521.78,31.29z"></path>
			<path class="st9" d="M616.78,75.23h-15.83V33.25l-11.53,27.1h-10.85l-11.53-27.1v41.99h-14.97V11.89h18.33l14.04,31.27l14-31.27     h18.33v63.34H616.78z"></path>
		</g>
	</g>
	<g class="st1">
		<path class="st12" d="M627.19,12.48c0.7,0.39,1.24,0.95,1.63,1.67s0.59,1.55,0.59,2.49c0,0.92-0.2,1.75-0.59,2.47    s-0.94,1.29-1.64,1.7c-0.7,0.41-1.51,0.61-2.42,0.61s-1.71-0.2-2.41-0.61c-0.71-0.41-1.25-0.97-1.64-1.7    c-0.39-0.72-0.59-1.54-0.59-2.47c0-0.94,0.2-1.77,0.59-2.49c0.39-0.72,0.94-1.27,1.63-1.67c0.7-0.39,1.51-0.59,2.42-0.59    C625.68,11.89,626.49,12.09,627.19,12.48z M626.99,20.39c0.63-0.35,1.12-0.85,1.46-1.5s0.51-1.4,0.51-2.25    c0-0.87-0.17-1.64-0.51-2.29c-0.34-0.66-0.83-1.17-1.46-1.53s-1.37-0.54-2.23-0.54c-0.85,0-1.6,0.18-2.23,0.54    c-0.64,0.36-1.13,0.87-1.47,1.53c-0.34,0.66-0.51,1.42-0.51,2.29c0,0.85,0.17,1.6,0.51,2.25s0.83,1.15,1.47,1.5    c0.64,0.35,1.38,0.53,2.23,0.53C625.62,20.92,626.36,20.74,626.99,20.39z M626.64,16.32c-0.3,0.3-0.74,0.47-1.31,0.51l1.76,2.65    h-0.73l-1.72-2.64h-1.02v2.64h-0.65v-6.03h2.05c0.69,0,1.21,0.15,1.55,0.46c0.35,0.31,0.52,0.71,0.52,1.22    C627.09,15.63,626.94,16.02,626.64,16.32z M626.42,15.2c0-0.38-0.11-0.66-0.34-0.86c-0.22-0.2-0.6-0.3-1.12-0.3h-1.35v2.33h1.35    C625.93,16.37,626.42,15.98,626.42,15.2z"></path>
	</g>
</g>
<g id="MULTI-THERM" class="st0">
	<g id="MULTI_THERM" class="st1">
		<g>
			<path class="st9" d="M71.51,75.23H55.69V33.25l-11.53,27.1H33.31l-11.53-27.1v41.99H6.81V11.89h18.33l14.04,31.27l14-31.27h18.33     V75.23z"></path>
			<path class="st9" d="M110.22,76.55c-8.51,0-15.05-2.06-19.63-6.17c-4.58-4.11-6.87-10.12-6.87-18.04V11.89h15.91v39.52     c0,4.4,0.83,7.67,2.49,9.83c1.66,2.16,4.36,3.23,8.1,3.23c3.66,0,6.35-1.04,8.06-3.11c1.72-2.07,2.57-5.39,2.57-9.95V11.89h15.91     V52.3c0,7.8-2.23,13.79-6.7,17.97C125.6,74.46,118.99,76.55,110.22,76.55z"></path>
			<path class="st9" d="M191.26,75.23h-42.29V11.89h15.91v51.26h26.38L191.26,75.23L191.26,75.23z"></path>
			<path class="st9" d="M211,75.23V23.97h-18.72V11.89h53.35v12.08h-18.72v51.26C226.91,75.23,211,75.23,211,75.23z"></path>
			<path class="st9" d="M283.75,75.23h-34.12V64.17h9.1V22.95h-9.1V11.89h34.12v11.06h-9.1v41.22h9.1V75.23z"></path>
			<path class="st9" d="M320.63,53.2h-28.2V41.37h28.2V53.2z"></path>
			<path class="st9" d="M344.03,75.23V23.97h-18.72V11.89h53.35v12.08h-18.72v51.26C359.94,75.23,344.03,75.23,344.03,75.23z"></path>
			<path class="st9" d="M438.68,75.23h-15.91V47.16h-21.65v28.08h-15.91V11.89h15.91v23.18h21.65V11.89h15.91V75.23z"></path>
			<path class="st9" d="M451.78,75.23V11.89h42.84v12.08h-27.01v11.1h24.89v12.08h-24.89v16h27.01v12.08H451.78z"></path>
			<path class="st9" d="M563.96,75.23h-19.4L526.91,52h-5.7v23.23h-15.82V11.89h25.48c3.52,0,6.58,0.22,9.19,0.66     s5.02,1.35,7.23,2.74c2.27,1.45,4.07,3.28,5.4,5.51s2,5.06,2,8.49c0,4.85-1.09,8.78-3.28,11.8c-2.18,3.02-5.1,5.42-8.76,7.21     L563.96,75.23z M538.35,31.29c0-1.59-0.31-2.96-0.92-4.1c-0.61-1.15-1.62-2.03-3.04-2.66c-0.99-0.43-2.1-0.69-3.32-0.81     c-1.22-0.11-2.74-0.17-4.55-0.17h-5.32v17.06h4.55c2.21,0,4.09-0.13,5.64-0.4s2.86-0.84,3.94-1.72c1.02-0.79,1.78-1.74,2.28-2.85     C538.1,34.52,538.35,33.08,538.35,31.29z"></path>
			<path class="st9" d="M633.35,75.23h-15.83V33.25l-11.53,27.1h-10.85l-11.53-27.1v41.99h-14.97V11.89h18.33l14.04,31.27l14-31.27     h18.33v63.34H633.35z"></path>
		</g>
	</g>
	<g class="st1">
		<path class="st12" d="M643.33,12.48c0.7,0.39,1.24,0.95,1.63,1.67s0.59,1.55,0.59,2.49c0,0.92-0.2,1.75-0.59,2.47    s-0.94,1.29-1.64,1.7c-0.7,0.41-1.51,0.61-2.42,0.61s-1.71-0.2-2.41-0.61c-0.71-0.41-1.25-0.97-1.64-1.7    c-0.39-0.72-0.59-1.54-0.59-2.47c0-0.94,0.2-1.77,0.59-2.49c0.39-0.72,0.94-1.27,1.63-1.67c0.7-0.39,1.51-0.59,2.42-0.59    C641.82,11.89,642.63,12.09,643.33,12.48z M643.13,20.39c0.63-0.35,1.12-0.85,1.46-1.5s0.51-1.4,0.51-2.25    c0-0.87-0.17-1.64-0.51-2.29c-0.34-0.66-0.83-1.17-1.46-1.53s-1.37-0.54-2.23-0.54c-0.85,0-1.6,0.18-2.23,0.54    c-0.64,0.36-1.13,0.87-1.47,1.53c-0.34,0.66-0.51,1.42-0.51,2.29c0,0.85,0.17,1.6,0.51,2.25s0.83,1.15,1.47,1.5    c0.64,0.35,1.38,0.53,2.23,0.53C641.76,20.92,642.5,20.74,643.13,20.39z M642.78,16.32c-0.3,0.3-0.74,0.47-1.31,0.51l1.76,2.65    h-0.73l-1.72-2.64h-1.02v2.64h-0.65v-6.03h2.05c0.69,0,1.21,0.15,1.55,0.46c0.34,0.31,0.52,0.71,0.52,1.22    C643.23,15.63,643.09,16.02,642.78,16.32z M642.56,15.2c0-0.38-0.11-0.66-0.34-0.86c-0.22-0.2-0.6-0.3-1.12-0.3h-1.35v2.33h1.35    C642.08,16.37,642.56,15.98,642.56,15.2z"></path>
	</g>
</g>
</svg>