<svg xmlns="http://www.w3.org/2000/svg" xmlns:xlink="http://www.w3.org/1999/xlink" id="Layer_1" x="0px" y="0px" viewBox="0 0 655.5 113.7" style="enable-background:new 0 0 655.5 113.7;" xml:space="preserve"><style type="text/css">	.st0{fill:#212B53;}</style><g>	<path class="st0" d="M38.5,85.9c-8.8,0-15.5-2.1-20.3-6.4c-4.7-4.2-7.1-10.5-7.1-18.6V19.1h16.4v40.8c0,4.5,0.9,7.9,2.6,10.2  s4.5,3.3,8.4,3.3c3.8,0,6.6-1.1,8.3-3.2c1.8-2.1,2.7-5.6,2.7-10.3V19.1h16.4v41.7c0,8.1-2.3,14.2-6.9,18.6S47.5,85.9,38.5,85.9z"></path>	<path class="st0" d="M93,84.5H77.6V16.1H93V84.5z"></path>	<path class="st0" d="M123.7,85.5c-6.3,0-10.8-1.3-13.7-3.9s-4.3-6.8-4.3-12.7V45.9h-5.9V35.2h5.9V21.1h15.4v14.1h14.8v10.7h-14.8  v17.5c0,1.7,0,3.2,0,4.5c0,1.3,0.3,2.4,0.7,3.5c0.4,1,1.1,1.8,2.2,2.4c1,0.6,2.6,0.9,4.5,0.9c0.8,0,1.9-0.2,3.2-0.5  c1.3-0.4,2.3-0.7,2.8-1h1.3v10.9c-1.7,0.4-3.4,0.8-5.3,1C128.7,85.4,126.4,85.5,123.7,85.5z"></path>	<path class="st0" d="M175.3,49.7H174c-0.6-0.2-1.4-0.4-2.5-0.5c-1.1-0.1-2.3-0.2-3.7-0.2c-1.6,0-3.3,0.2-5.1,0.7  c-1.8,0.5-3.5,1-5.2,1.7v33h-15.4V35.2h15.4v7.1c0.7-0.6,1.7-1.5,2.9-2.4c1.2-1,2.4-1.8,3.4-2.4c1.1-0.7,2.4-1.3,3.9-1.7  c1.5-0.5,2.9-0.7,4.2-0.7c0.5,0,1.1,0,1.7,0s1.2,0.1,1.7,0.1V49.7z"></path>	<path class="st0" d="M208.4,79.3c-1.1,0.9-2,1.7-2.8,2.4s-2,1.4-3.4,2.1c-1.4,0.7-2.7,1.2-4,1.5c-1.3,0.4-3.1,0.5-5.5,0.5  c-4.4,0-8-1.5-10.9-4.4c-2.9-2.9-4.3-6.6-4.3-11.1c0-3.7,0.7-6.6,2.2-8.9c1.5-2.3,3.6-4,6.3-5.4c2.8-1.3,6.1-2.3,10-2.8  s8-0.9,12.5-1.2v-0.3c0-2.7-1-4.6-3-5.6c-2-1-5-1.6-9-1.6c-1.8,0-3.9,0.3-6.4,1c-2.4,0.7-4.8,1.5-7.1,2.5h-1.3V36.2  c1.5-0.4,4-1,7.4-1.6c3.4-0.6,6.8-0.9,10.3-0.9c8.5,0,14.7,1.4,18.6,4.2s5.8,7.1,5.8,12.9v33.6h-15.3V79.3z M208.4,71.7V61.4  c-2.6,0.3-4.7,0.5-6.3,0.7c-1.6,0.2-3.2,0.6-4.7,1.1c-1.3,0.5-2.4,1.2-3.1,2.1c-0.7,1-1.1,2.2-1.1,3.8c0,2.3,0.6,3.9,1.9,4.8  c1.2,0.9,3.1,1.3,5.5,1.3c1.3,0,2.7-0.3,4.1-0.9S207.3,72.8,208.4,71.7z"></path>	<path class="st0" d="M283.5,59.2c0,7.9-2,14.2-6,19c-4,4.8-8.9,7.3-14.8,7.3c-2.5,0-4.6-0.3-6.4-0.8s-3.8-1.4-5.8-2.6l-0.7,2.5  h-14.7V16.1h15.4v24.2c2.3-1.9,4.6-3.5,6.9-4.7s5.1-1.8,8.1-1.8c5.7,0,10.2,2.2,13.3,6.7C281.9,45,283.5,51.2,283.5,59.2z   M267.7,59.5c0-4.9-0.7-8.4-2.2-10.5s-3.8-3.2-6.9-3.2c-1.4,0-2.7,0.2-4.1,0.7c-1.4,0.4-2.7,1.1-4,2v24.8c1,0.4,2.1,0.7,3.1,0.8  s2.1,0.2,3.1,0.2c3.7,0,6.5-1.2,8.3-3.7S267.7,64.4,267.7,59.5z"></path>	<path class="st0" d="M339.3,59.9c0,8.1-2.2,14.5-6.7,19.2c-4.4,4.7-10.7,7-18.8,7c-8.1,0-14.3-2.3-18.8-7s-6.7-11.1-6.7-19.2  c0-8.2,2.2-14.6,6.7-19.3c4.5-4.6,10.7-7,18.8-7c8.1,0,14.4,2.3,18.8,7S339.3,51.7,339.3,59.9z M323.5,60c0-2.9-0.2-5.4-0.7-7.3  c-0.5-1.9-1.1-3.5-2-4.7c-0.9-1.2-1.9-2.1-3.1-2.6c-1.1-0.5-2.4-0.7-3.9-0.7c-1.4,0-2.6,0.2-3.7,0.6s-2.1,1.2-3.1,2.4  c-0.9,1.1-1.6,2.7-2.1,4.7s-0.8,4.5-0.8,7.5s0.2,5.5,0.7,7.3s1.1,3.3,1.9,4.5c0.8,1.1,1.8,2,3.1,2.5s2.6,0.8,4.1,0.8  c1.2,0,2.5-0.3,3.8-0.8c1.3-0.5,2.3-1.3,3.1-2.4c0.9-1.3,1.6-2.8,2.1-4.5C323.3,65.5,323.5,63.1,323.5,60z"></path>	<path class="st0" d="M393.7,84.5h-15.5V60c0-2-0.1-4-0.2-6c-0.2-2-0.5-3.4-0.9-4.4c-0.5-1.1-1.3-1.9-2.3-2.4c-1-0.5-2.3-0.7-4-0.7  c-1.3,0-2.5,0.2-3.8,0.7s-2.7,1.2-4.1,2.2v35h-15.4V35.2h15.4v5.4c2.5-2.1,5-3.8,7.4-5c2.4-1.2,5-1.8,7.9-1.8c5,0,8.9,1.6,11.6,4.8  c2.7,3.2,4,7.8,4,13.8V84.5z"></path>	<path class="st0" d="M450,84.5h-15.4v-5.1c-1,0.8-2.1,1.7-3.4,2.6c-1.3,0.9-2.4,1.6-3.4,2.1c-1.2,0.6-2.4,1-3.6,1.3  s-2.6,0.4-4.3,0.4c-5.6,0-10.1-2.3-13.4-7s-4.9-10.9-4.9-18.7c0-4.3,0.6-8,1.7-11.2s2.7-5.9,4.6-8.3c1.8-2.1,4-3.8,6.5-5.1  c2.5-1.2,5.2-1.9,8.1-1.9c2.6,0,4.7,0.3,6.4,0.8c1.7,0.5,3.6,1.4,5.8,2.5v-21H450V84.5z M434.6,70.9V46.7c-0.8-0.4-1.8-0.7-3-0.9  s-2.3-0.4-3.2-0.4c-3.7,0-6.5,1.3-8.3,3.9c-1.9,2.6-2.8,6.2-2.8,10.8c0,4.9,0.7,8.4,2.2,10.5s3.9,3.3,7.2,3.3  c1.3,0,2.7-0.3,4.1-0.8S433.4,71.8,434.6,70.9z"></path>	<path class="st0" d="M532.8,31.6h-27.5v12.3h25.3v12.5h-25.3v28.1H489V19.1h43.8V31.6z"></path>	<path class="st0" d="M593.6,64.5c0,3.3-0.6,6.1-1.8,8.6s-2.9,4.5-5,6.1c-2.5,1.9-5.2,3.3-8.1,4.1c-2.9,0.8-6.7,1.2-11.2,1.2h-26.2  V19.1h23.1c4.8,0,8.4,0.2,10.9,0.5s4.8,1.1,7,2.3c2.3,1.3,4.1,2.9,5.3,5.1s1.7,4.5,1.7,7.3c0,3.2-0.8,6-2.4,8.5  c-1.6,2.5-3.8,4.3-6.6,5.5v0.4c4,0.8,7.3,2.6,9.7,5.2C592.4,56.5,593.6,60,593.6,64.5z M572.6,37.6c0-1.1-0.3-2.1-0.8-3.3  c-0.5-1.1-1.4-1.9-2.5-2.4c-1.1-0.5-2.4-0.7-3.8-0.8c-1.5,0-3.7-0.1-6.6-0.1h-1.1v13.8h2.1c2.8,0,4.8,0,5.9-0.1  c1.1-0.1,2.3-0.4,3.5-0.9c1.3-0.6,2.2-1.5,2.7-2.5S572.6,39,572.6,37.6z M576.7,64.2c0-2-0.4-3.6-1.2-4.7s-2.1-2-3.7-2.6  c-1-0.4-2.4-0.6-4.1-0.6c-1.7,0-4.1-0.1-7-0.1h-3v16.4h0.9c4.3,0,7.2,0,8.9-0.1s3.3-0.5,5-1.2c1.5-0.6,2.6-1.6,3.3-2.8  S576.7,65.8,576.7,64.2z"></path>	<path class="st0" d="M603,84.5V19.1h44.3v12.5h-27.9V43h25.7v12.5h-25.7V72h27.9v12.5H603z"></path></g></svg>