<svg xmlns="http://www.w3.org/2000/svg" xmlns:xlink="http://www.w3.org/1999/xlink" id="Layer_1" x="0px" y="0px" viewBox="0 0 657.349 63.646" style="enable-background:new 0 0 657.349 63.646;" xml:space="preserve"><g>	<path style="fill:#212B53;" d="M24.922,63.486c-8.001,0-14.155-1.934-18.462-5.801C2.153,53.819,0,48.165,0,40.724V2.68h14.961  v37.164c0,4.135,0.78,7.215,2.34,9.241c1.56,2.027,4.1,3.04,7.621,3.04c3.44,0,5.967-0.973,7.581-2.92  c1.613-1.946,2.42-5.067,2.42-9.361V2.68h14.961v38.004c0,7.335-2.1,12.969-6.3,16.902C39.384,61.52,33.163,63.486,24.922,63.486z"></path>	<path style="fill:#212B53;" d="M74.567,62.246H60.566V0h14.001V62.246z"></path>	<path style="fill:#212B53;" d="M102.491,63.126c-5.708,0-9.861-1.173-12.461-3.52s-3.9-6.188-3.9-11.521V27.083h-5.36v-9.762h5.36  V4.48h14.001v12.841h13.481v9.762H100.13v15.921c0,1.574,0.013,2.947,0.04,4.121c0.026,1.174,0.24,2.227,0.64,3.16  c0.373,0.934,1.033,1.674,1.98,2.22c0.946,0.547,2.327,0.82,4.141,0.82c0.746,0,1.727-0.16,2.94-0.479  c1.213-0.32,2.06-0.613,2.54-0.881h1.2v9.882c-1.52,0.399-3.134,0.713-4.84,0.939C107.064,63.013,104.971,63.126,102.491,63.126z"></path>	<path style="fill:#212B53;" d="M149.496,30.563h-1.16c-0.534-0.187-1.307-0.327-2.32-0.421c-1.014-0.093-2.134-0.14-3.36-0.14  c-1.467,0-3.007,0.214-4.621,0.64c-1.614,0.428-3.18,0.935-4.701,1.521v30.083h-14.001V17.321h14.001v6.441  c0.64-0.587,1.527-1.327,2.661-2.221c1.133-0.894,2.167-1.606,3.1-2.141c1.013-0.612,2.193-1.14,3.541-1.58  c1.346-0.439,2.62-0.66,3.82-0.66c0.453,0,0.96,0.015,1.52,0.04c0.56,0.027,1.066,0.067,1.521,0.12V30.563z"></path>	<path style="fill:#212B53;" d="M179.619,57.485c-0.96,0.801-1.82,1.521-2.58,2.161c-0.76,0.64-1.78,1.279-3.061,1.92  c-1.254,0.613-2.474,1.08-3.66,1.4c-1.187,0.319-2.847,0.479-4.98,0.479c-3.974,0-7.274-1.333-9.901-4s-3.94-6.027-3.94-10.081  c0-3.334,0.667-6.027,2-8.081c1.333-2.054,3.253-3.681,5.761-4.881c2.533-1.227,5.561-2.08,9.081-2.56  c3.521-0.48,7.307-0.854,11.361-1.12v-0.24c0-2.48-0.914-4.193-2.74-5.141c-1.827-0.946-4.567-1.42-8.221-1.42  c-1.654,0-3.587,0.3-5.801,0.899c-2.214,0.601-4.374,1.367-6.48,2.301h-1.2V18.281c1.386-0.399,3.626-0.873,6.721-1.42  c3.093-0.546,6.214-0.82,9.361-0.82c7.734,0,13.368,1.287,16.902,3.861c3.533,2.573,5.3,6.5,5.3,11.781v30.562h-13.921V57.485z   M179.619,50.525v-9.361c-2.374,0.24-4.294,0.447-5.76,0.62c-1.467,0.174-2.907,0.514-4.321,1.021  c-1.227,0.427-2.18,1.073-2.86,1.939c-0.68,0.867-1.02,2.021-1.02,3.461c0,2.106,0.566,3.554,1.7,4.34  c1.133,0.787,2.807,1.181,5.021,1.181c1.227,0,2.48-0.28,3.76-0.84C177.418,52.325,178.579,51.539,179.619,50.525z"></path>	<path style="fill:#212B53;" d="M247.946,39.164c0,7.147-1.814,12.928-5.44,17.342c-3.627,4.414-8.121,6.62-13.481,6.62  c-2.24,0-4.188-0.253-5.841-0.76c-1.654-0.506-3.414-1.293-5.281-2.36l-0.6,2.24h-13.402V0h14.001v22.002  c2.054-1.76,4.147-3.187,6.281-4.28c2.133-1.094,4.601-1.641,7.401-1.641c5.227,0,9.261,2.041,12.101,6.121  C246.525,26.282,247.946,31.937,247.946,39.164z M233.624,39.444c0-4.48-0.68-7.682-2.04-9.602s-3.454-2.88-6.281-2.88  c-1.254,0-2.5,0.2-3.74,0.6c-1.24,0.4-2.46,1-3.661,1.801v22.562c0.934,0.374,1.874,0.627,2.82,0.761s1.887,0.2,2.82,0.2  c3.387,0,5.914-1.12,7.581-3.36C232.791,47.285,233.624,43.925,233.624,39.444z"></path>	<path style="fill:#212B53;" d="M298.791,39.804c0,7.388-2.02,13.209-6.061,17.462c-4.041,4.254-9.754,6.381-17.142,6.381  c-7.334,0-13.035-2.127-17.102-6.381c-4.067-4.253-6.101-10.074-6.101-17.462c0-7.467,2.034-13.314,6.101-17.542  c4.067-4.227,9.768-6.34,17.102-6.34c7.361,0,13.067,2.127,17.122,6.38C296.764,26.557,298.791,32.39,298.791,39.804z   M284.43,39.884c0-2.666-0.22-4.887-0.66-6.66s-1.047-3.193-1.82-4.261c-0.827-1.12-1.76-1.9-2.8-2.34  c-1.041-0.44-2.228-0.66-3.561-0.66c-1.254,0-2.387,0.193-3.4,0.58c-1.014,0.387-1.947,1.127-2.8,2.22  c-0.8,1.04-1.44,2.467-1.92,4.28c-0.48,1.814-0.72,4.095-0.72,6.841c0,2.747,0.226,4.968,0.68,6.661s1.041,3.047,1.76,4.061  c0.747,1.04,1.68,1.8,2.8,2.28c1.12,0.479,2.36,0.72,3.721,0.72c1.12,0,2.26-0.24,3.42-0.72c1.16-0.48,2.086-1.2,2.78-2.16  c0.826-1.146,1.453-2.527,1.88-4.141C284.216,44.972,284.43,42.738,284.43,39.884z"></path>	<path style="fill:#212B53;" d="M348.317,62.246h-14.082V39.964c0-1.813-0.074-3.62-0.22-5.421c-0.147-1.8-0.42-3.126-0.82-3.979  c-0.48-1.014-1.174-1.74-2.08-2.181c-0.907-0.44-2.12-0.66-3.64-0.66c-1.147,0-2.307,0.214-3.48,0.64  c-1.174,0.428-2.427,1.107-3.761,2.041v31.843h-14.001V17.321h14.001v4.961c2.293-1.946,4.527-3.467,6.701-4.561  s4.581-1.641,7.221-1.641c4.586,0,8.094,1.447,10.521,4.341c2.427,2.895,3.641,7.088,3.641,12.581V62.246z"></path>	<path style="fill:#212B53;" d="M399.522,62.246H385.52v-4.681c-0.906,0.747-1.94,1.548-3.1,2.4  c-1.16,0.854-2.181,1.494-3.061,1.921c-1.12,0.533-2.228,0.933-3.32,1.2c-1.094,0.266-2.4,0.399-3.921,0.399  c-5.12,0-9.175-2.12-12.161-6.36c-2.987-4.24-4.48-9.907-4.48-17.002c0-3.921,0.507-7.32,1.521-10.201  c1.013-2.88,2.413-5.387,4.2-7.521c1.626-1.946,3.601-3.486,5.921-4.621c2.32-1.133,4.773-1.7,7.36-1.7  c2.347,0,4.273,0.247,5.78,0.74c1.507,0.494,3.261,1.261,5.261,2.301V0h14.002V62.246z M385.52,49.845V27.803  c-0.693-0.347-1.6-0.633-2.72-0.86c-1.12-0.226-2.08-0.34-2.881-0.34c-3.36,0-5.888,1.174-7.58,3.521  c-1.694,2.347-2.541,5.627-2.541,9.841c0,4.428,0.674,7.628,2.021,9.602s3.526,2.96,6.541,2.96c1.226,0,2.466-0.24,3.72-0.72  C383.333,51.325,384.48,50.672,385.52,49.845z"></path>	<path style="fill:#212B53;" d="M435.805,41.524h-26.522V30.403h26.522V41.524z"></path>	<path style="fill:#212B53;" d="M476.049,62.246h-32.083v-10.4h8.561V13.081h-8.561V2.68h32.083v10.401h-8.561v38.765h8.561V62.246z  "></path>	<path style="fill:#212B53;" d="M515.654,62.246h-32.083v-10.4h8.561V13.081h-8.561V2.68h32.083v10.401h-8.561v38.765h8.561V62.246z  "></path>	<path style="fill:#212B53;" d="M555.258,62.246h-32.083v-10.4h8.561V13.081h-8.561V2.68h32.083v10.401h-8.561v38.765h8.561V62.246z  "></path>	<path style="fill:#212B53;" d="M583.581,63.326c-4.561,0-8.567-0.439-12.021-1.32c-3.454-0.88-6.66-1.973-9.621-3.28V44.564h1.36  c2.986,2.534,6.281,4.48,9.881,5.841c3.601,1.36,7.094,2.04,10.481,2.04c0.854,0,1.98-0.093,3.38-0.28  c1.4-0.186,2.527-0.479,3.381-0.88c1.04-0.453,1.92-1.086,2.641-1.9c0.72-0.813,1.08-1.886,1.08-3.22  c0-1.494-0.587-2.707-1.761-3.641s-2.574-1.613-4.2-2.04c-2.027-0.533-4.194-1.04-6.501-1.521s-4.46-1.066-6.46-1.76  c-4.614-1.627-7.921-3.813-9.922-6.562c-2-2.746-3-6.187-3-10.32c0-5.574,2.36-10.088,7.081-13.542  C574.1,3.327,579.994,1.6,587.061,1.6c3.547,0,7.074,0.36,10.581,1.08c3.507,0.721,6.647,1.694,9.421,2.921v13.602h-1.32  c-2.214-1.894-4.914-3.494-8.101-4.801c-3.188-1.307-6.461-1.96-9.821-1.96c-1.307,0-2.479,0.094-3.521,0.279  c-1.04,0.188-2.134,0.547-3.28,1.08c-0.934,0.428-1.74,1.061-2.42,1.9c-0.68,0.841-1.021,1.78-1.021,2.82  c0,1.521,0.54,2.728,1.62,3.621c1.081,0.894,3.167,1.7,6.261,2.42c2.001,0.454,3.927,0.894,5.781,1.32  c1.854,0.427,3.833,1.014,5.94,1.76c4.134,1.494,7.207,3.501,9.221,6.021c2.014,2.521,3.021,5.848,3.021,9.981  c0,5.921-2.327,10.681-6.98,14.281C597.789,61.526,591.501,63.326,583.581,63.326z"></path>	<path style="fill:#212B53;" d="M617.065,62.246V2.68h40.284v11.361h-25.403v10.441h23.402v11.361h-23.402v15.041h25.403v11.361  H617.065z"></path></g></svg>