<svg xmlns="http://www.w3.org/2000/svg" xmlns:xlink="http://www.w3.org/1999/xlink" id="Capa_1" x="0px" y="0px" viewBox="-49 141 512 512" style="enable-background:new -49 141 512 512;" xml:space="preserve">
<path d="M215.2,463V233.1h-16.4V463c-36.8,4.1-65.5,35.4-65.5,73.3c0,40.7,33.1,73.7,73.7,73.7s73.7-33.1,73.7-73.7  C280.7,498.4,252,467.1,215.2,463z M207,593.6c-31.6,0-57.4-25.7-57.4-57.4c0-31.6,25.7-57.4,57.4-57.4s57.4,25.7,57.4,57.4  S238.6,593.6,207,593.6z"></path>
<path d="M256.2,432.7v-19.3h41V397h-41v-32.8h24.6v-16.4h-24.6V315h41v-16.4h-41v-32.8h24.6v-16.4h-24.6v-32.7h41v-16.3h-41v-8.2  c0-27.1-22.1-49.2-49.2-49.2s-49.2,22.1-49.2,49.2v240.5c-40,19-65.5,59.1-65.5,103.6C92.3,599.6,143.8,651,207,651  s114.7-51.5,114.7-114.7C321.7,491.7,296.2,451.6,256.2,432.7z M207,634.6c-54.2,0-98.3-44.1-98.3-98.3c0-69.6,65.5-92.9,65.5-92.9  V192.2c0-18.1,14.7-32.8,32.8-32.8s32.8,14.7,32.8,32.8v251.3c0,0,65.5,22.8,65.5,92.9C305.3,590.5,261.2,634.6,207,634.6z"></path>
</svg>